G04 EAGLE Gerber X2 export*
G75*
%MOIN*%
%FSLAX24Y24*%
%LPD*%
%AMOC8*
5,1,8,0,0,1.08239X$1,22.5*%
G01*
%ADD10C,0.008000*%
%ADD11C,0.011000*%
%ADD12C,0.015000*%
%ADD13C,0.012000*%
%ADD14C,0.005000*%


D10*
X26515Y3158D02*
X26835Y3158D01*
X26729Y3265D01*
X26835Y3371D01*
X26515Y3371D01*
X26515Y3526D02*
X26515Y3633D01*
X26515Y3580D02*
X26835Y3580D01*
X26835Y3633D02*
X26835Y3526D01*
X26835Y3932D02*
X26782Y3985D01*
X26835Y3932D02*
X26835Y3825D01*
X26782Y3772D01*
X26568Y3772D01*
X26515Y3825D01*
X26515Y3932D01*
X26568Y3985D01*
X26785Y2454D02*
X26785Y2240D01*
X26625Y2240D01*
X26679Y2347D01*
X26679Y2400D01*
X26625Y2454D01*
X26518Y2454D01*
X26465Y2400D01*
X26465Y2293D01*
X26518Y2240D01*
X26572Y2608D02*
X26785Y2608D01*
X26572Y2608D02*
X26465Y2715D01*
X26572Y2822D01*
X26785Y2822D01*
X26754Y4390D02*
X26540Y4390D01*
X26754Y4390D02*
X26860Y4497D01*
X26754Y4604D01*
X26540Y4604D01*
X26700Y4604D02*
X26700Y4390D01*
X26860Y4758D02*
X26540Y4758D01*
X26540Y4918D01*
X26593Y4972D01*
X26807Y4972D01*
X26860Y4918D01*
X26860Y4758D01*
X29853Y5040D02*
X29960Y5040D01*
X29907Y5040D02*
X29907Y5360D01*
X29960Y5360D02*
X29853Y5360D01*
X29714Y5360D02*
X29714Y5040D01*
X29501Y5040D02*
X29714Y5360D01*
X29501Y5360D02*
X29501Y5040D01*
X29239Y5040D02*
X29239Y5360D01*
X29133Y5360D02*
X29346Y5360D01*
X29925Y3360D02*
X29871Y3307D01*
X29925Y3360D02*
X30032Y3360D01*
X30085Y3307D01*
X30085Y3093D01*
X30032Y3040D01*
X29925Y3040D01*
X29871Y3093D01*
X29871Y3200D01*
X29978Y3200D01*
X29717Y3040D02*
X29717Y3360D01*
X29503Y3040D01*
X29503Y3360D01*
X29348Y3360D02*
X29348Y3040D01*
X29188Y3040D01*
X29135Y3093D01*
X29135Y3307D01*
X29188Y3360D01*
X29348Y3360D01*
X29871Y4307D02*
X29925Y4360D01*
X30032Y4360D01*
X30085Y4307D01*
X30085Y4093D01*
X30032Y4040D01*
X29925Y4040D01*
X29871Y4093D01*
X29871Y4200D01*
X29978Y4200D01*
X29717Y4040D02*
X29717Y4360D01*
X29503Y4040D01*
X29503Y4360D01*
X29348Y4360D02*
X29348Y4040D01*
X29188Y4040D01*
X29135Y4093D01*
X29135Y4307D01*
X29188Y4360D01*
X29348Y4360D01*
D11*
X1850Y4296D02*
X1751Y4197D01*
X1850Y4296D02*
X2047Y4296D01*
X2145Y4197D01*
X2145Y3803D01*
X2047Y3705D01*
X1850Y3705D01*
X1751Y3803D01*
X1751Y4000D01*
X1948Y4000D01*
X1500Y3705D02*
X1500Y4296D01*
X1107Y3705D01*
X1107Y4296D01*
X856Y4296D02*
X856Y3705D01*
X561Y3705D01*
X462Y3803D01*
X462Y4197D01*
X561Y4296D01*
X856Y4296D01*
D12*
X23358Y4284D02*
X23500Y4426D01*
X23783Y4426D01*
X23925Y4284D01*
X23925Y4142D01*
X23783Y4000D01*
X23500Y4000D01*
X23358Y3859D01*
X23358Y3717D01*
X23500Y3575D01*
X23783Y3575D01*
X23925Y3717D01*
X23004Y3575D02*
X23004Y4142D01*
X22862Y4142D01*
X22721Y4000D01*
X22721Y3575D01*
X22721Y4000D02*
X22579Y4142D01*
X22437Y4000D01*
X22437Y3575D01*
X21942Y4142D02*
X21658Y4142D01*
X21516Y4000D01*
X21516Y3575D01*
X21942Y3575D01*
X22083Y3717D01*
X21942Y3859D01*
X21516Y3859D01*
X21163Y4142D02*
X21163Y3575D01*
X21163Y3859D02*
X20879Y4142D01*
X20737Y4142D01*
X20254Y4284D02*
X20254Y3717D01*
X20112Y3575D01*
X20112Y4142D02*
X20395Y4142D01*
X18861Y4426D02*
X18861Y3575D01*
X18577Y4142D02*
X18861Y4426D01*
X18577Y4142D02*
X18294Y4426D01*
X18294Y3575D01*
X17940Y4142D02*
X17798Y4142D01*
X17798Y3575D01*
X17940Y3575D02*
X17656Y3575D01*
X17798Y4426D02*
X17798Y4568D01*
X17184Y4142D02*
X16759Y4142D01*
X17184Y4142D02*
X17326Y4000D01*
X17326Y3717D01*
X17184Y3575D01*
X16759Y3575D01*
X15484Y3859D02*
X15484Y4426D01*
X15484Y3859D02*
X15201Y3575D01*
X14917Y3859D01*
X14917Y4426D01*
X14564Y4284D02*
X14564Y3717D01*
X14564Y4284D02*
X14422Y4426D01*
X14138Y4426D01*
X13997Y4284D01*
X13997Y3717D01*
X14138Y3575D01*
X14422Y3575D01*
X14564Y3717D01*
X13997Y4284D01*
X13643Y4142D02*
X13359Y4426D01*
X13359Y3575D01*
X13076Y3575D02*
X13643Y3575D01*
D13*
X9500Y4100D02*
X9200Y4200D01*
X9113Y4227D01*
X9025Y4251D01*
X8936Y4270D01*
X8846Y4286D01*
X8755Y4297D01*
X8664Y4305D01*
X8573Y4309D01*
X8482Y4310D01*
X8391Y4306D01*
X8300Y4298D01*
X8209Y4287D01*
X8119Y4271D01*
X8030Y4252D01*
X7941Y4229D01*
X7854Y4202D01*
X7768Y4172D01*
X7683Y4138D01*
X7600Y4100D01*
X7524Y4069D01*
X7446Y4041D01*
X7366Y4017D01*
X7286Y3997D01*
X7205Y3980D01*
X7124Y3967D01*
X7041Y3958D01*
X6959Y3953D01*
X6876Y3951D01*
X6794Y3953D01*
X6711Y3959D01*
X6629Y3969D01*
X6547Y3983D01*
X6467Y4000D01*
X6387Y4021D01*
X6308Y4046D01*
X6230Y4074D01*
X6154Y4106D01*
X6079Y4141D01*
X6006Y4180D01*
X5934Y4222D01*
X5865Y4267D01*
X5798Y4315D01*
X5733Y4367D01*
X5671Y4421D01*
X5611Y4478D01*
X5554Y4538D01*
X5500Y4600D01*
X5501Y4601D02*
X5456Y4622D01*
X5413Y4646D01*
X5372Y4674D01*
X5333Y4704D01*
X5296Y4737D01*
X5262Y4773D01*
X5230Y4811D01*
X5201Y4851D01*
X5176Y4894D01*
X5153Y4938D01*
X5134Y4983D01*
X5118Y5030D01*
X5105Y5078D01*
X5096Y5127D01*
X5091Y5176D01*
X5089Y5226D01*
X5091Y5275D01*
X5096Y5324D01*
X5105Y5373D01*
X5117Y5421D01*
X5133Y5468D01*
X5153Y5513D01*
X5175Y5558D01*
X5201Y5600D01*
X5199Y5599D02*
X5244Y5578D01*
X5287Y5554D01*
X5328Y5526D01*
X5367Y5496D01*
X5404Y5463D01*
X5438Y5427D01*
X5470Y5389D01*
X5499Y5349D01*
X5524Y5306D01*
X5547Y5262D01*
X5566Y5217D01*
X5582Y5170D01*
X5595Y5122D01*
X5604Y5073D01*
X5609Y5024D01*
X5611Y4974D01*
X5609Y4925D01*
X5604Y4876D01*
X5595Y4827D01*
X5583Y4779D01*
X5567Y4732D01*
X5547Y4687D01*
X5525Y4642D01*
X5499Y4600D01*
X5496Y4568D02*
X5447Y4564D01*
X5398Y4563D01*
X5348Y4566D01*
X5299Y4573D01*
X5251Y4584D01*
X5203Y4597D01*
X5157Y4615D01*
X5112Y4635D01*
X5068Y4659D01*
X5027Y4686D01*
X4987Y4716D01*
X4950Y4748D01*
X4915Y4784D01*
X4883Y4821D01*
X4854Y4861D01*
X4827Y4903D01*
X4804Y4947D01*
X4784Y4992D01*
X4768Y5039D01*
X4754Y5087D01*
X4745Y5135D01*
X4739Y5184D01*
X4736Y5234D01*
X4737Y5283D01*
X4737Y5282D02*
X4786Y5286D01*
X4835Y5287D01*
X4885Y5284D01*
X4934Y5277D01*
X4982Y5266D01*
X5030Y5253D01*
X5076Y5235D01*
X5121Y5215D01*
X5165Y5191D01*
X5206Y5164D01*
X5246Y5134D01*
X5283Y5102D01*
X5318Y5066D01*
X5350Y5029D01*
X5379Y4989D01*
X5406Y4947D01*
X5429Y4903D01*
X5449Y4858D01*
X5465Y4811D01*
X5479Y4763D01*
X5488Y4715D01*
X5494Y4666D01*
X5497Y4616D01*
X5496Y4567D01*
X5469Y4564D02*
X5428Y4536D01*
X5386Y4511D01*
X5341Y4489D01*
X5295Y4470D01*
X5248Y4455D01*
X5200Y4443D01*
X5151Y4435D01*
X5102Y4430D01*
X5052Y4429D01*
X5003Y4432D01*
X4954Y4438D01*
X4905Y4447D01*
X4858Y4460D01*
X4811Y4477D01*
X4766Y4497D01*
X4722Y4520D01*
X4680Y4546D01*
X4640Y4576D01*
X4602Y4608D01*
X4567Y4642D01*
X4534Y4680D01*
X4504Y4719D01*
X4477Y4761D01*
X4454Y4804D01*
X4454Y4803D02*
X4495Y4831D01*
X4537Y4856D01*
X4582Y4878D01*
X4628Y4897D01*
X4675Y4912D01*
X4723Y4924D01*
X4772Y4932D01*
X4821Y4937D01*
X4871Y4938D01*
X4920Y4935D01*
X4969Y4929D01*
X5018Y4920D01*
X5065Y4907D01*
X5112Y4890D01*
X5157Y4870D01*
X5201Y4847D01*
X5243Y4821D01*
X5283Y4791D01*
X5321Y4759D01*
X5356Y4725D01*
X5389Y4687D01*
X5419Y4648D01*
X5446Y4606D01*
X5469Y4563D01*
X7200Y4000D02*
X7300Y4000D01*
X7200Y4000D02*
X7167Y4002D01*
X7135Y4007D01*
X7103Y4016D01*
X7073Y4028D01*
X7044Y4043D01*
X7017Y4061D01*
X6992Y4082D01*
X6969Y4106D01*
X6949Y4132D01*
X6932Y4160D01*
X6918Y4190D01*
X6908Y4221D01*
X6900Y4253D01*
X6897Y4285D01*
X6896Y4318D01*
X6900Y4350D01*
X6905Y4395D01*
X6906Y4441D01*
X6904Y4486D01*
X6897Y4532D01*
X6887Y4576D01*
X6874Y4620D01*
X6857Y4662D01*
X6836Y4703D01*
X6812Y4742D01*
X6785Y4778D01*
X6755Y4813D01*
X6722Y4845D01*
X6687Y4874D01*
X6650Y4900D01*
X8150Y4200D02*
X8200Y4250D01*
X8150Y4200D02*
X8120Y4167D01*
X8093Y4132D01*
X8068Y4094D01*
X8047Y4055D01*
X8030Y4014D01*
X8016Y3971D01*
X8005Y3928D01*
X7998Y3884D01*
X7995Y3839D01*
X7996Y3794D01*
X8000Y3750D01*
X8005Y3701D01*
X8007Y3651D01*
X8005Y3601D01*
X8000Y3551D01*
X7991Y3502D01*
X7978Y3454D01*
X7962Y3407D01*
X7943Y3361D01*
X7921Y3317D01*
X7895Y3274D01*
X7866Y3233D01*
X7835Y3194D01*
X7801Y3158D01*
X7764Y3124D01*
X7725Y3093D01*
X7684Y3065D01*
X7641Y3040D01*
X7596Y3018D01*
X7550Y3000D01*
X6643Y4919D02*
X6609Y4943D01*
X6578Y4970D01*
X6549Y5000D01*
X6522Y5032D01*
X6499Y5066D01*
X6479Y5102D01*
X6462Y5140D01*
X6448Y5179D01*
X6438Y5219D01*
X6431Y5260D01*
X6428Y5301D01*
X6429Y5343D01*
X6433Y5384D01*
X6441Y5425D01*
X6452Y5465D01*
X6467Y5503D01*
X6485Y5541D01*
X6506Y5576D01*
X6530Y5610D01*
X6557Y5641D01*
X6557Y5642D02*
X6591Y5618D01*
X6622Y5591D01*
X6651Y5561D01*
X6678Y5529D01*
X6701Y5495D01*
X6721Y5459D01*
X6738Y5421D01*
X6752Y5382D01*
X6762Y5342D01*
X6769Y5301D01*
X6772Y5260D01*
X6771Y5218D01*
X6767Y5177D01*
X6759Y5136D01*
X6748Y5096D01*
X6733Y5058D01*
X6715Y5020D01*
X6694Y4985D01*
X6670Y4951D01*
X6643Y4920D01*
X6765Y4685D02*
X6747Y4647D01*
X6726Y4612D01*
X6702Y4578D01*
X6675Y4547D01*
X6645Y4518D01*
X6613Y4491D01*
X6579Y4468D01*
X6543Y4448D01*
X6505Y4431D01*
X6466Y4417D01*
X6426Y4407D01*
X6385Y4400D01*
X6344Y4397D01*
X6302Y4398D01*
X6261Y4402D01*
X6220Y4410D01*
X6180Y4421D01*
X6142Y4436D01*
X6104Y4454D01*
X6069Y4475D01*
X6069Y4474D02*
X6087Y4512D01*
X6108Y4547D01*
X6132Y4581D01*
X6159Y4612D01*
X6189Y4641D01*
X6221Y4668D01*
X6255Y4691D01*
X6291Y4711D01*
X6329Y4728D01*
X6368Y4742D01*
X6408Y4752D01*
X6449Y4759D01*
X6490Y4762D01*
X6532Y4761D01*
X6573Y4757D01*
X6614Y4749D01*
X6654Y4738D01*
X6692Y4723D01*
X6730Y4705D01*
X6765Y4684D01*
X6981Y4480D02*
X6971Y4520D01*
X6964Y4561D01*
X6961Y4602D01*
X6962Y4644D01*
X6966Y4685D01*
X6974Y4726D01*
X6985Y4766D01*
X7000Y4804D01*
X7018Y4842D01*
X7039Y4877D01*
X7063Y4911D01*
X7090Y4942D01*
X7120Y4971D01*
X7152Y4998D01*
X7186Y5021D01*
X7222Y5041D01*
X7260Y5058D01*
X7299Y5072D01*
X7339Y5082D01*
X7380Y5089D01*
X7381Y5089D02*
X7391Y5049D01*
X7398Y5008D01*
X7401Y4967D01*
X7400Y4925D01*
X7396Y4884D01*
X7388Y4843D01*
X7377Y4803D01*
X7362Y4765D01*
X7344Y4727D01*
X7323Y4692D01*
X7299Y4658D01*
X7272Y4627D01*
X7242Y4598D01*
X7210Y4571D01*
X7176Y4548D01*
X7140Y4528D01*
X7102Y4511D01*
X7063Y4497D01*
X7023Y4487D01*
X6982Y4480D01*
X7000Y3250D02*
X7026Y3213D01*
X7055Y3178D01*
X7087Y3145D01*
X7122Y3115D01*
X7158Y3088D01*
X7197Y3064D01*
X7238Y3043D01*
X7280Y3026D01*
X7324Y3013D01*
X7368Y3003D01*
X7414Y2996D01*
X7459Y2994D01*
X7505Y2995D01*
X7550Y3000D01*
X6981Y3257D02*
X6957Y3291D01*
X6930Y3322D01*
X6900Y3351D01*
X6868Y3378D01*
X6834Y3401D01*
X6798Y3421D01*
X6760Y3438D01*
X6721Y3452D01*
X6681Y3462D01*
X6640Y3469D01*
X6599Y3472D01*
X6557Y3471D01*
X6516Y3467D01*
X6475Y3459D01*
X6435Y3448D01*
X6397Y3433D01*
X6359Y3415D01*
X6324Y3394D01*
X6290Y3370D01*
X6259Y3343D01*
X6258Y3343D02*
X6282Y3309D01*
X6309Y3278D01*
X6339Y3249D01*
X6371Y3222D01*
X6405Y3199D01*
X6441Y3179D01*
X6479Y3162D01*
X6518Y3148D01*
X6558Y3138D01*
X6599Y3131D01*
X6640Y3128D01*
X6682Y3129D01*
X6723Y3133D01*
X6764Y3141D01*
X6804Y3152D01*
X6842Y3167D01*
X6880Y3185D01*
X6915Y3206D01*
X6949Y3230D01*
X6980Y3257D01*
X7215Y3135D02*
X7253Y3153D01*
X7288Y3174D01*
X7322Y3198D01*
X7353Y3225D01*
X7382Y3255D01*
X7409Y3287D01*
X7432Y3321D01*
X7452Y3357D01*
X7469Y3395D01*
X7483Y3434D01*
X7493Y3474D01*
X7500Y3515D01*
X7503Y3556D01*
X7502Y3598D01*
X7498Y3639D01*
X7490Y3680D01*
X7479Y3720D01*
X7464Y3758D01*
X7446Y3796D01*
X7425Y3831D01*
X7426Y3831D02*
X7388Y3813D01*
X7353Y3792D01*
X7319Y3768D01*
X7288Y3741D01*
X7259Y3711D01*
X7232Y3679D01*
X7209Y3645D01*
X7189Y3609D01*
X7172Y3571D01*
X7158Y3532D01*
X7148Y3492D01*
X7141Y3451D01*
X7138Y3410D01*
X7139Y3368D01*
X7143Y3327D01*
X7151Y3286D01*
X7162Y3246D01*
X7177Y3208D01*
X7195Y3170D01*
X7216Y3135D01*
X7420Y2919D02*
X7380Y2929D01*
X7339Y2936D01*
X7298Y2939D01*
X7256Y2938D01*
X7215Y2934D01*
X7174Y2926D01*
X7134Y2915D01*
X7096Y2900D01*
X7058Y2882D01*
X7023Y2861D01*
X6989Y2837D01*
X6958Y2810D01*
X6929Y2780D01*
X6902Y2748D01*
X6879Y2714D01*
X6859Y2678D01*
X6842Y2640D01*
X6828Y2601D01*
X6818Y2561D01*
X6811Y2520D01*
X6811Y2519D02*
X6851Y2509D01*
X6892Y2502D01*
X6933Y2499D01*
X6975Y2500D01*
X7016Y2504D01*
X7057Y2512D01*
X7097Y2523D01*
X7135Y2538D01*
X7173Y2556D01*
X7208Y2577D01*
X7242Y2601D01*
X7273Y2628D01*
X7302Y2658D01*
X7329Y2690D01*
X7352Y2724D01*
X7372Y2760D01*
X7389Y2798D01*
X7403Y2837D01*
X7413Y2877D01*
X7420Y2918D01*
X7857Y3181D02*
X7891Y3157D01*
X7922Y3130D01*
X7951Y3100D01*
X7978Y3068D01*
X8001Y3034D01*
X8021Y2998D01*
X8038Y2960D01*
X8052Y2921D01*
X8062Y2881D01*
X8069Y2840D01*
X8072Y2799D01*
X8071Y2757D01*
X8067Y2716D01*
X8059Y2675D01*
X8048Y2635D01*
X8033Y2597D01*
X8015Y2559D01*
X7994Y2524D01*
X7970Y2490D01*
X7943Y2459D01*
X7943Y2458D02*
X7909Y2482D01*
X7878Y2509D01*
X7849Y2539D01*
X7822Y2571D01*
X7799Y2605D01*
X7779Y2641D01*
X7762Y2679D01*
X7748Y2718D01*
X7738Y2758D01*
X7731Y2799D01*
X7728Y2840D01*
X7729Y2882D01*
X7733Y2923D01*
X7741Y2964D01*
X7752Y3004D01*
X7767Y3042D01*
X7785Y3080D01*
X7806Y3115D01*
X7830Y3149D01*
X7857Y3180D01*
D14*
X11000Y1500D02*
X11000Y500D01*
X26000Y500D02*
X26000Y1500D01*
X26000Y500D02*
X11000Y500D01*
X11000Y6500D02*
X11000Y7500D01*
X26000Y7500D01*
X26000Y6500D01*
X25770Y1735D02*
X25770Y1465D01*
X25635Y1465D01*
X25589Y1510D01*
X25589Y1690D01*
X25635Y1735D01*
X25770Y1735D01*
X25475Y1645D02*
X25385Y1735D01*
X25385Y1465D01*
X25475Y1465D02*
X25295Y1465D01*
X24770Y1465D02*
X24770Y1735D01*
X24770Y1465D02*
X24635Y1465D01*
X24589Y1510D01*
X24589Y1690D01*
X24635Y1735D01*
X24770Y1735D01*
X24475Y1690D02*
X24475Y1510D01*
X24475Y1690D02*
X24430Y1735D01*
X24340Y1735D01*
X24295Y1690D01*
X24295Y1510D01*
X24340Y1465D01*
X24430Y1465D01*
X24475Y1510D01*
X24295Y1690D01*
X23917Y1735D02*
X23917Y1465D01*
X23917Y1735D02*
X23782Y1735D01*
X23737Y1690D01*
X23737Y1600D01*
X23782Y1555D01*
X23917Y1555D01*
X23827Y1555D02*
X23737Y1465D01*
X23487Y1735D02*
X23442Y1690D01*
X23487Y1735D02*
X23577Y1735D01*
X23622Y1690D01*
X23622Y1645D01*
X23577Y1600D01*
X23487Y1600D01*
X23442Y1555D01*
X23442Y1510D01*
X23487Y1465D01*
X23577Y1465D01*
X23622Y1510D01*
X23238Y1465D02*
X23238Y1735D01*
X23328Y1735D02*
X23148Y1735D01*
X22782Y1735D02*
X22737Y1690D01*
X22782Y1735D02*
X22872Y1735D01*
X22917Y1690D01*
X22917Y1510D01*
X22872Y1465D01*
X22782Y1465D01*
X22737Y1510D01*
X22737Y1600D01*
X22827Y1600D01*
X22622Y1465D02*
X22622Y1735D01*
X22442Y1465D01*
X22442Y1735D01*
X22328Y1735D02*
X22328Y1465D01*
X22193Y1465D01*
X22148Y1510D01*
X22148Y1690D01*
X22193Y1735D01*
X22328Y1735D01*
X21770Y1735D02*
X21770Y1465D01*
X21635Y1465D01*
X21589Y1510D01*
X21589Y1690D01*
X21635Y1735D01*
X21770Y1735D01*
X21475Y1465D02*
X21295Y1465D01*
X21475Y1465D02*
X21295Y1645D01*
X21295Y1690D01*
X21340Y1735D01*
X21430Y1735D01*
X21475Y1690D01*
X20770Y1735D02*
X20770Y1465D01*
X20635Y1465D01*
X20589Y1510D01*
X20589Y1690D01*
X20635Y1735D01*
X20770Y1735D01*
X20475Y1690D02*
X20430Y1735D01*
X20340Y1735D01*
X20295Y1690D01*
X20295Y1645D01*
X20340Y1600D01*
X20385Y1600D01*
X20340Y1600D02*
X20295Y1555D01*
X20295Y1510D01*
X20340Y1465D01*
X20430Y1465D01*
X20475Y1510D01*
X19770Y1465D02*
X19770Y1735D01*
X19770Y1465D02*
X19635Y1465D01*
X19589Y1510D01*
X19589Y1690D01*
X19635Y1735D01*
X19770Y1735D01*
X19340Y1735D02*
X19340Y1465D01*
X19475Y1600D02*
X19340Y1735D01*
X19295Y1600D02*
X19475Y1600D01*
X18770Y1735D02*
X18770Y1465D01*
X18635Y1465D01*
X18589Y1510D01*
X18589Y1690D01*
X18635Y1735D01*
X18770Y1735D01*
X18475Y1735D02*
X18295Y1735D01*
X18475Y1735D02*
X18475Y1600D01*
X18385Y1645D01*
X18340Y1645D01*
X18295Y1600D01*
X18295Y1510D01*
X18340Y1465D01*
X18430Y1465D01*
X18475Y1510D01*
X17770Y1465D02*
X17770Y1735D01*
X17770Y1465D02*
X17635Y1465D01*
X17589Y1510D01*
X17589Y1690D01*
X17635Y1735D01*
X17770Y1735D01*
X17385Y1690D02*
X17295Y1735D01*
X17385Y1690D02*
X17475Y1600D01*
X17475Y1510D01*
X17430Y1465D01*
X17340Y1465D01*
X17295Y1510D01*
X17295Y1555D01*
X17340Y1600D01*
X17475Y1600D01*
X16770Y1735D02*
X16770Y1465D01*
X16635Y1465D01*
X16589Y1510D01*
X16589Y1690D01*
X16635Y1735D01*
X16770Y1735D01*
X16475Y1735D02*
X16295Y1735D01*
X16295Y1690D01*
X16475Y1510D01*
X16475Y1465D01*
X15770Y1465D02*
X15770Y1735D01*
X15770Y1465D02*
X15635Y1465D01*
X15589Y1510D01*
X15589Y1690D01*
X15635Y1735D01*
X15770Y1735D01*
X15475Y1690D02*
X15430Y1735D01*
X15340Y1735D01*
X15295Y1690D01*
X15295Y1645D01*
X15340Y1600D01*
X15295Y1555D01*
X15295Y1510D01*
X15340Y1465D01*
X15430Y1465D01*
X15475Y1510D01*
X15475Y1555D01*
X15430Y1600D01*
X15475Y1645D01*
X15475Y1690D01*
X15430Y1600D02*
X15340Y1600D01*
X14770Y1735D02*
X14770Y1465D01*
X14635Y1465D01*
X14589Y1510D01*
X14589Y1690D01*
X14635Y1735D01*
X14770Y1735D01*
X14475Y1510D02*
X14430Y1465D01*
X14340Y1465D01*
X14295Y1510D01*
X14295Y1690D01*
X14340Y1735D01*
X14430Y1735D01*
X14475Y1690D01*
X14475Y1645D01*
X14430Y1600D01*
X14295Y1600D01*
X13917Y1735D02*
X13917Y1465D01*
X13782Y1465D01*
X13737Y1510D01*
X13737Y1690D01*
X13782Y1735D01*
X13917Y1735D01*
X13622Y1645D02*
X13532Y1735D01*
X13532Y1465D01*
X13622Y1465D02*
X13442Y1465D01*
X13328Y1510D02*
X13328Y1690D01*
X13283Y1735D01*
X13193Y1735D01*
X13148Y1690D01*
X13148Y1510D01*
X13193Y1465D01*
X13283Y1465D01*
X13328Y1510D01*
X13148Y1690D01*
X12917Y1735D02*
X12917Y1465D01*
X12782Y1465D01*
X12737Y1510D01*
X12737Y1690D01*
X12782Y1735D01*
X12917Y1735D01*
X12622Y1645D02*
X12532Y1735D01*
X12532Y1465D01*
X12622Y1465D02*
X12442Y1465D01*
X12328Y1645D02*
X12238Y1735D01*
X12238Y1465D01*
X12328Y1465D02*
X12148Y1465D01*
X11917Y1465D02*
X11917Y1735D01*
X11917Y1465D02*
X11782Y1465D01*
X11737Y1510D01*
X11737Y1690D01*
X11782Y1735D01*
X11917Y1735D01*
X11622Y1645D02*
X11532Y1735D01*
X11532Y1465D01*
X11622Y1465D02*
X11442Y1465D01*
X11328Y1465D02*
X11148Y1465D01*
X11328Y1465D02*
X11148Y1645D01*
X11148Y1690D01*
X11193Y1735D01*
X11283Y1735D01*
X11328Y1690D01*
X11917Y6265D02*
X11917Y6535D01*
X11917Y6265D02*
X11782Y6265D01*
X11737Y6310D01*
X11737Y6490D01*
X11782Y6535D01*
X11917Y6535D01*
X11622Y6445D02*
X11532Y6535D01*
X11532Y6265D01*
X11622Y6265D02*
X11442Y6265D01*
X11328Y6490D02*
X11283Y6535D01*
X11193Y6535D01*
X11148Y6490D01*
X11148Y6445D01*
X11193Y6400D01*
X11238Y6400D01*
X11193Y6400D02*
X11148Y6355D01*
X11148Y6310D01*
X11193Y6265D01*
X11283Y6265D01*
X11328Y6310D01*
X12872Y6535D02*
X12917Y6490D01*
X12872Y6535D02*
X12782Y6535D01*
X12737Y6490D01*
X12737Y6445D01*
X12782Y6400D01*
X12827Y6400D01*
X12782Y6400D02*
X12737Y6355D01*
X12737Y6310D01*
X12782Y6265D01*
X12872Y6265D01*
X12917Y6310D01*
X12622Y6355D02*
X12622Y6535D01*
X12622Y6355D02*
X12532Y6265D01*
X12442Y6355D01*
X12442Y6535D01*
X12328Y6490D02*
X12283Y6535D01*
X12193Y6535D01*
X12148Y6490D01*
X12148Y6445D01*
X12193Y6400D01*
X12238Y6400D01*
X12193Y6400D02*
X12148Y6355D01*
X12148Y6310D01*
X12193Y6265D01*
X12283Y6265D01*
X12328Y6310D01*
X13917Y6265D02*
X13917Y6535D01*
X13782Y6535D01*
X13737Y6490D01*
X13737Y6400D01*
X13782Y6355D01*
X13917Y6355D01*
X13827Y6355D02*
X13737Y6265D01*
X13622Y6535D02*
X13442Y6535D01*
X13622Y6535D02*
X13622Y6265D01*
X13442Y6265D01*
X13532Y6400D02*
X13622Y6400D01*
X13328Y6265D02*
X13328Y6535D01*
X13148Y6535D01*
X13238Y6400D02*
X13328Y6400D01*
X14770Y6445D02*
X14770Y6265D01*
X14770Y6445D02*
X14680Y6535D01*
X14589Y6445D01*
X14589Y6265D01*
X14589Y6400D02*
X14770Y6400D01*
X14475Y6310D02*
X14475Y6490D01*
X14430Y6535D01*
X14340Y6535D01*
X14295Y6490D01*
X14295Y6310D01*
X14340Y6265D01*
X14430Y6265D01*
X14475Y6310D01*
X14295Y6490D01*
X15770Y6445D02*
X15770Y6265D01*
X15770Y6445D02*
X15680Y6535D01*
X15589Y6445D01*
X15589Y6265D01*
X15589Y6400D02*
X15770Y6400D01*
X15475Y6445D02*
X15385Y6535D01*
X15385Y6265D01*
X15475Y6265D02*
X15295Y6265D01*
X16770Y6265D02*
X16770Y6445D01*
X16680Y6535D01*
X16589Y6445D01*
X16589Y6265D01*
X16589Y6400D02*
X16770Y6400D01*
X16475Y6265D02*
X16295Y6265D01*
X16475Y6265D02*
X16295Y6445D01*
X16295Y6490D01*
X16340Y6535D01*
X16430Y6535D01*
X16475Y6490D01*
X17770Y6445D02*
X17770Y6265D01*
X17770Y6445D02*
X17680Y6535D01*
X17589Y6445D01*
X17589Y6265D01*
X17589Y6400D02*
X17770Y6400D01*
X17475Y6490D02*
X17430Y6535D01*
X17340Y6535D01*
X17295Y6490D01*
X17295Y6445D01*
X17340Y6400D01*
X17385Y6400D01*
X17340Y6400D02*
X17295Y6355D01*
X17295Y6310D01*
X17340Y6265D01*
X17430Y6265D01*
X17475Y6310D01*
X18770Y6265D02*
X18770Y6445D01*
X18680Y6535D01*
X18589Y6445D01*
X18589Y6265D01*
X18589Y6400D02*
X18770Y6400D01*
X18340Y6265D02*
X18340Y6535D01*
X18475Y6400D01*
X18295Y6400D01*
X19770Y6445D02*
X19770Y6265D01*
X19770Y6445D02*
X19680Y6535D01*
X19589Y6445D01*
X19589Y6265D01*
X19589Y6400D02*
X19770Y6400D01*
X19475Y6535D02*
X19295Y6535D01*
X19475Y6535D02*
X19475Y6400D01*
X19385Y6445D01*
X19340Y6445D01*
X19295Y6400D01*
X19295Y6310D01*
X19340Y6265D01*
X19430Y6265D01*
X19475Y6310D01*
X20770Y6265D02*
X20770Y6445D01*
X20680Y6535D01*
X20589Y6445D01*
X20589Y6265D01*
X20589Y6400D02*
X20770Y6400D01*
X20385Y6490D02*
X20295Y6535D01*
X20385Y6490D02*
X20475Y6400D01*
X20475Y6310D01*
X20430Y6265D01*
X20340Y6265D01*
X20295Y6310D01*
X20295Y6355D01*
X20340Y6400D01*
X20475Y6400D01*
X21770Y6445D02*
X21770Y6265D01*
X21770Y6445D02*
X21680Y6535D01*
X21589Y6445D01*
X21589Y6265D01*
X21589Y6400D02*
X21770Y6400D01*
X21475Y6535D02*
X21295Y6535D01*
X21295Y6490D01*
X21475Y6310D01*
X21475Y6265D01*
X22589Y6535D02*
X22770Y6535D01*
X22770Y6400D01*
X22680Y6445D01*
X22635Y6445D01*
X22589Y6400D01*
X22589Y6310D01*
X22635Y6265D01*
X22725Y6265D01*
X22770Y6310D01*
X22475Y6355D02*
X22475Y6535D01*
X22475Y6355D02*
X22385Y6265D01*
X22295Y6355D01*
X22295Y6535D01*
X23917Y6535D02*
X23917Y6265D01*
X23917Y6535D02*
X23782Y6535D01*
X23737Y6490D01*
X23737Y6400D01*
X23782Y6355D01*
X23917Y6355D01*
X23827Y6355D02*
X23737Y6265D01*
X23487Y6535D02*
X23442Y6490D01*
X23487Y6535D02*
X23577Y6535D01*
X23622Y6490D01*
X23622Y6445D01*
X23577Y6400D01*
X23487Y6400D01*
X23442Y6355D01*
X23442Y6310D01*
X23487Y6265D01*
X23577Y6265D01*
X23622Y6310D01*
X23238Y6265D02*
X23238Y6535D01*
X23328Y6535D02*
X23148Y6535D01*
X24737Y6490D02*
X24782Y6535D01*
X24872Y6535D01*
X24917Y6490D01*
X24917Y6310D01*
X24872Y6265D01*
X24782Y6265D01*
X24737Y6310D01*
X24737Y6400D01*
X24827Y6400D01*
X24622Y6265D02*
X24622Y6535D01*
X24442Y6265D01*
X24442Y6535D01*
X24328Y6535D02*
X24328Y6265D01*
X24193Y6265D01*
X24148Y6310D01*
X24148Y6490D01*
X24193Y6535D01*
X24328Y6535D01*
X25868Y6535D02*
X25868Y6355D01*
X25778Y6265D01*
X25688Y6355D01*
X25688Y6535D01*
X25573Y6265D02*
X25483Y6265D01*
X25528Y6265D02*
X25528Y6535D01*
X25573Y6535D02*
X25483Y6535D01*
X25377Y6535D02*
X25377Y6265D01*
X25197Y6265D02*
X25377Y6535D01*
X25197Y6535D02*
X25197Y6265D01*
X2500Y2375D02*
X250Y2375D01*
X2500Y2375D02*
X2500Y3125D01*
X250Y3125D01*
X250Y4875D02*
X2500Y4875D01*
X2500Y5625D01*
X250Y5625D01*
M02*
