G04 EAGLE Gerber X2 export*
G75*
%MOIN*%
%FSLAX24Y24*%
%LPD*%
%AMOC8*
5,1,8,0,0,1.08239X$1,22.5*%
G01*
%ADD10C,0.070000*%
%ADD11C,0.074000*%
%ADD12R,0.196850X0.039370*%
%ADD13C,0.031811*%
%ADD14C,0.012000*%
%ADD15C,0.010000*%
%ADD16C,0.033780*%
%ADD17C,0.016000*%

G36*
X32755Y201D02*
X32755Y201D01*
X32760Y202D01*
X32761Y202D01*
X32762Y202D01*
X32767Y204D01*
X32772Y206D01*
X32773Y206D01*
X32774Y207D01*
X32778Y210D01*
X32782Y213D01*
X32783Y214D01*
X32784Y214D01*
X32787Y218D01*
X32790Y222D01*
X32791Y223D01*
X32792Y224D01*
X32794Y228D01*
X32796Y233D01*
X32796Y234D01*
X32797Y235D01*
X32799Y247D01*
X32799Y249D01*
X32799Y250D01*
X32799Y7750D01*
X32799Y7755D01*
X32798Y7760D01*
X32798Y7761D01*
X32798Y7762D01*
X32796Y7767D01*
X32794Y7772D01*
X32794Y7773D01*
X32793Y7774D01*
X32790Y7778D01*
X32787Y7782D01*
X32786Y7783D01*
X32786Y7784D01*
X32782Y7787D01*
X32778Y7790D01*
X32777Y7791D01*
X32776Y7792D01*
X32772Y7794D01*
X32767Y7796D01*
X32766Y7796D01*
X32765Y7797D01*
X32753Y7799D01*
X32751Y7799D01*
X32750Y7799D01*
X10561Y7799D01*
X10557Y7799D01*
X10553Y7799D01*
X10551Y7798D01*
X10549Y7798D01*
X10545Y7796D01*
X10541Y7795D01*
X10539Y7794D01*
X10537Y7793D01*
X10527Y7786D01*
X10527Y7785D01*
X10526Y7785D01*
X9435Y6694D01*
X9321Y6579D01*
X9280Y6579D01*
X9276Y6579D01*
X9271Y6579D01*
X9270Y6578D01*
X9268Y6578D01*
X9264Y6576D01*
X9260Y6575D01*
X9258Y6574D01*
X9256Y6573D01*
X9246Y6566D01*
X9246Y6565D01*
X9245Y6565D01*
X9230Y6549D01*
X3311Y6549D01*
X3307Y6549D01*
X3303Y6549D01*
X3301Y6548D01*
X3299Y6548D01*
X3295Y6546D01*
X3291Y6545D01*
X3289Y6544D01*
X3287Y6543D01*
X3277Y6536D01*
X3277Y6535D01*
X3276Y6535D01*
X2685Y5944D01*
X2571Y5829D01*
X2530Y5829D01*
X2526Y5829D01*
X2521Y5829D01*
X2520Y5828D01*
X2518Y5828D01*
X2514Y5826D01*
X2510Y5825D01*
X2508Y5824D01*
X2506Y5823D01*
X2496Y5816D01*
X2496Y5815D01*
X2495Y5815D01*
X2480Y5799D01*
X250Y5799D01*
X245Y5799D01*
X240Y5798D01*
X239Y5798D01*
X238Y5798D01*
X233Y5796D01*
X228Y5794D01*
X227Y5794D01*
X226Y5793D01*
X222Y5790D01*
X218Y5787D01*
X217Y5786D01*
X216Y5786D01*
X213Y5782D01*
X210Y5778D01*
X209Y5777D01*
X208Y5776D01*
X206Y5772D01*
X204Y5767D01*
X204Y5766D01*
X203Y5765D01*
X201Y5753D01*
X201Y5751D01*
X201Y5750D01*
X201Y5597D01*
X201Y5592D01*
X202Y5587D01*
X202Y5586D01*
X202Y5585D01*
X204Y5580D01*
X206Y5575D01*
X206Y5574D01*
X207Y5573D01*
X210Y5569D01*
X213Y5565D01*
X214Y5564D01*
X214Y5563D01*
X218Y5560D01*
X222Y5557D01*
X223Y5556D01*
X224Y5555D01*
X228Y5553D01*
X233Y5551D01*
X234Y5551D01*
X235Y5550D01*
X247Y5548D01*
X249Y5548D01*
X250Y5548D01*
X1152Y5548D01*
X1152Y5298D01*
X1153Y5294D01*
X1153Y5289D01*
X1154Y5287D01*
X1154Y5286D01*
X1156Y5282D01*
X1157Y5277D01*
X1158Y5276D01*
X1158Y5275D01*
X1161Y5271D01*
X1164Y5266D01*
X1165Y5266D01*
X1166Y5265D01*
X1170Y5261D01*
X1173Y5258D01*
X1174Y5257D01*
X1175Y5257D01*
X1180Y5255D01*
X1184Y5252D01*
X1185Y5252D01*
X1187Y5251D01*
X1195Y5250D01*
X1192Y5250D01*
X1191Y5249D01*
X1189Y5249D01*
X1185Y5247D01*
X1180Y5246D01*
X1179Y5245D01*
X1178Y5245D01*
X1174Y5242D01*
X1170Y5239D01*
X1169Y5238D01*
X1168Y5237D01*
X1165Y5233D01*
X1161Y5230D01*
X1161Y5229D01*
X1160Y5228D01*
X1158Y5223D01*
X1155Y5219D01*
X1155Y5218D01*
X1155Y5216D01*
X1152Y5204D01*
X1153Y5203D01*
X1152Y5202D01*
X1152Y4952D01*
X250Y4952D01*
X245Y4952D01*
X240Y4951D01*
X239Y4951D01*
X238Y4951D01*
X233Y4949D01*
X228Y4947D01*
X227Y4947D01*
X226Y4946D01*
X222Y4943D01*
X218Y4941D01*
X217Y4940D01*
X216Y4939D01*
X213Y4935D01*
X210Y4931D01*
X209Y4930D01*
X208Y4929D01*
X206Y4925D01*
X204Y4920D01*
X204Y4919D01*
X203Y4918D01*
X201Y4906D01*
X201Y4904D01*
X201Y4903D01*
X201Y3097D01*
X201Y3092D01*
X202Y3087D01*
X202Y3086D01*
X202Y3085D01*
X204Y3080D01*
X206Y3075D01*
X206Y3074D01*
X207Y3073D01*
X210Y3069D01*
X213Y3065D01*
X214Y3064D01*
X214Y3063D01*
X218Y3060D01*
X222Y3057D01*
X223Y3056D01*
X224Y3055D01*
X228Y3053D01*
X233Y3051D01*
X234Y3051D01*
X235Y3050D01*
X247Y3048D01*
X249Y3048D01*
X250Y3048D01*
X1152Y3048D01*
X1152Y2798D01*
X1153Y2794D01*
X1153Y2789D01*
X1154Y2787D01*
X1154Y2786D01*
X1156Y2782D01*
X1157Y2777D01*
X1158Y2776D01*
X1158Y2775D01*
X1161Y2771D01*
X1164Y2766D01*
X1165Y2766D01*
X1166Y2765D01*
X1170Y2761D01*
X1173Y2758D01*
X1174Y2757D01*
X1175Y2757D01*
X1180Y2755D01*
X1184Y2752D01*
X1185Y2752D01*
X1187Y2751D01*
X1195Y2750D01*
X1192Y2750D01*
X1191Y2749D01*
X1189Y2749D01*
X1185Y2747D01*
X1180Y2746D01*
X1179Y2745D01*
X1178Y2745D01*
X1174Y2742D01*
X1170Y2739D01*
X1169Y2738D01*
X1168Y2737D01*
X1165Y2733D01*
X1161Y2730D01*
X1161Y2729D01*
X1160Y2728D01*
X1158Y2723D01*
X1155Y2719D01*
X1155Y2718D01*
X1155Y2716D01*
X1152Y2704D01*
X1153Y2703D01*
X1152Y2702D01*
X1152Y2452D01*
X250Y2452D01*
X245Y2452D01*
X240Y2451D01*
X239Y2451D01*
X238Y2451D01*
X233Y2449D01*
X228Y2447D01*
X227Y2447D01*
X226Y2446D01*
X222Y2443D01*
X218Y2441D01*
X217Y2440D01*
X216Y2439D01*
X213Y2435D01*
X210Y2431D01*
X209Y2430D01*
X208Y2429D01*
X206Y2425D01*
X204Y2420D01*
X204Y2419D01*
X203Y2418D01*
X201Y2406D01*
X201Y2404D01*
X201Y2403D01*
X201Y2250D01*
X201Y2245D01*
X202Y2240D01*
X202Y2239D01*
X202Y2238D01*
X204Y2233D01*
X206Y2228D01*
X206Y2227D01*
X207Y2226D01*
X210Y2222D01*
X213Y2218D01*
X214Y2217D01*
X214Y2216D01*
X218Y2213D01*
X222Y2210D01*
X223Y2209D01*
X224Y2208D01*
X228Y2206D01*
X233Y2204D01*
X234Y2204D01*
X235Y2203D01*
X247Y2201D01*
X249Y2201D01*
X250Y2201D01*
X2480Y2201D01*
X2495Y2185D01*
X2499Y2183D01*
X2502Y2180D01*
X2503Y2179D01*
X2505Y2178D01*
X2509Y2176D01*
X2513Y2174D01*
X2514Y2174D01*
X2516Y2173D01*
X2529Y2171D01*
X2530Y2171D01*
X2571Y2171D01*
X3276Y1465D01*
X3280Y1463D01*
X3283Y1460D01*
X3285Y1459D01*
X3286Y1458D01*
X3290Y1456D01*
X3294Y1454D01*
X3295Y1454D01*
X3298Y1453D01*
X3310Y1451D01*
X3311Y1451D01*
X9230Y1451D01*
X9245Y1435D01*
X9249Y1433D01*
X9252Y1430D01*
X9253Y1429D01*
X9255Y1428D01*
X9259Y1426D01*
X9263Y1424D01*
X9264Y1424D01*
X9266Y1423D01*
X9279Y1421D01*
X9280Y1421D01*
X9321Y1421D01*
X10526Y215D01*
X10530Y213D01*
X10533Y210D01*
X10535Y209D01*
X10536Y208D01*
X10540Y206D01*
X10544Y204D01*
X10545Y204D01*
X10548Y203D01*
X10560Y201D01*
X10561Y201D01*
X32750Y201D01*
X32755Y201D01*
G37*
%LPC*%
G36*
X20317Y1710D02*
X20317Y1710D01*
X20211Y1754D01*
X20129Y1836D01*
X20085Y1942D01*
X20085Y2058D01*
X20129Y2164D01*
X20211Y2246D01*
X20317Y2290D01*
X20403Y2290D01*
X20407Y2290D01*
X20411Y2290D01*
X20413Y2291D01*
X20415Y2291D01*
X20419Y2293D01*
X20423Y2294D01*
X20424Y2295D01*
X20427Y2296D01*
X20437Y2303D01*
X20437Y2304D01*
X20438Y2304D01*
X21135Y3001D01*
X21138Y3006D01*
X21142Y3010D01*
X21142Y3011D01*
X21145Y3016D01*
X21147Y3021D01*
X21147Y3022D01*
X21147Y3023D01*
X21148Y3028D01*
X21149Y3034D01*
X21149Y3035D01*
X21149Y3040D01*
X21148Y3046D01*
X21148Y3047D01*
X21146Y3052D01*
X21144Y3058D01*
X21144Y3059D01*
X21141Y3063D01*
X21137Y3068D01*
X21137Y3069D01*
X21132Y3073D01*
X21128Y3076D01*
X21128Y3077D01*
X21127Y3077D01*
X21122Y3080D01*
X21117Y3082D01*
X21116Y3083D01*
X21104Y3085D01*
X21101Y3085D01*
X21100Y3085D01*
X21067Y3085D01*
X20961Y3129D01*
X20879Y3211D01*
X20835Y3317D01*
X20835Y3403D01*
X20835Y3407D01*
X20835Y3411D01*
X20834Y3413D01*
X20834Y3415D01*
X20832Y3419D01*
X20831Y3423D01*
X20830Y3424D01*
X20829Y3427D01*
X20822Y3437D01*
X20821Y3437D01*
X20821Y3438D01*
X19864Y4394D01*
X19862Y4396D01*
X19861Y4397D01*
X19858Y4399D01*
X19854Y4402D01*
X19852Y4403D01*
X19851Y4404D01*
X19847Y4405D01*
X19843Y4407D01*
X19841Y4407D01*
X19839Y4408D01*
X19835Y4408D01*
X19831Y4409D01*
X19828Y4409D01*
X19826Y4409D01*
X19822Y4408D01*
X19818Y4408D01*
X19816Y4407D01*
X19814Y4406D01*
X19810Y4405D01*
X19807Y4403D01*
X19805Y4402D01*
X19803Y4401D01*
X19800Y4398D01*
X19796Y4396D01*
X19795Y4395D01*
X19793Y4393D01*
X19792Y4391D01*
X19788Y4387D01*
X19785Y4381D01*
X19784Y4378D01*
X19746Y4286D01*
X19664Y4204D01*
X19558Y4160D01*
X19442Y4160D01*
X19336Y4204D01*
X19276Y4265D01*
X19272Y4267D01*
X19269Y4270D01*
X19267Y4271D01*
X19266Y4272D01*
X19262Y4274D01*
X19258Y4276D01*
X19257Y4276D01*
X19254Y4277D01*
X19242Y4279D01*
X19241Y4279D01*
X18159Y4279D01*
X18155Y4279D01*
X18151Y4279D01*
X18149Y4278D01*
X18147Y4278D01*
X18143Y4276D01*
X18139Y4275D01*
X18138Y4274D01*
X18135Y4273D01*
X18125Y4266D01*
X18125Y4265D01*
X18124Y4265D01*
X18064Y4204D01*
X17958Y4160D01*
X17842Y4160D01*
X17736Y4204D01*
X17654Y4286D01*
X17610Y4392D01*
X17610Y4508D01*
X17654Y4614D01*
X17736Y4696D01*
X17842Y4740D01*
X17958Y4740D01*
X18064Y4696D01*
X18124Y4635D01*
X18128Y4633D01*
X18131Y4630D01*
X18133Y4629D01*
X18134Y4628D01*
X18138Y4626D01*
X18142Y4624D01*
X18143Y4624D01*
X18146Y4623D01*
X18158Y4621D01*
X18159Y4621D01*
X19241Y4621D01*
X19245Y4621D01*
X19249Y4621D01*
X19251Y4622D01*
X19253Y4622D01*
X19257Y4624D01*
X19261Y4625D01*
X19262Y4626D01*
X19265Y4627D01*
X19275Y4634D01*
X19275Y4635D01*
X19276Y4635D01*
X19336Y4696D01*
X19428Y4734D01*
X19430Y4735D01*
X19432Y4736D01*
X19436Y4738D01*
X19439Y4740D01*
X19441Y4742D01*
X19442Y4743D01*
X19445Y4746D01*
X19448Y4749D01*
X19449Y4751D01*
X19451Y4752D01*
X19452Y4756D01*
X19455Y4759D01*
X19455Y4761D01*
X19456Y4763D01*
X19457Y4767D01*
X19458Y4771D01*
X19458Y4773D01*
X19459Y4775D01*
X19458Y4780D01*
X19459Y4784D01*
X19458Y4786D01*
X19458Y4788D01*
X19457Y4792D01*
X19456Y4796D01*
X19455Y4798D01*
X19454Y4800D01*
X19453Y4802D01*
X19450Y4807D01*
X19446Y4811D01*
X19445Y4813D01*
X19444Y4814D01*
X18694Y5565D01*
X18690Y5567D01*
X18687Y5570D01*
X18685Y5571D01*
X18684Y5572D01*
X18680Y5574D01*
X18676Y5576D01*
X18675Y5576D01*
X18672Y5577D01*
X18660Y5579D01*
X18659Y5579D01*
X17679Y5579D01*
X17188Y6071D01*
X17184Y6074D01*
X17181Y6076D01*
X17179Y6077D01*
X17178Y6079D01*
X17174Y6080D01*
X17170Y6082D01*
X17169Y6082D01*
X17166Y6083D01*
X17154Y6085D01*
X17153Y6085D01*
X17067Y6085D01*
X17021Y6105D01*
X17018Y6105D01*
X17016Y6106D01*
X17012Y6107D01*
X17009Y6108D01*
X17006Y6108D01*
X17003Y6108D01*
X17000Y6108D01*
X16996Y6108D01*
X16994Y6107D01*
X16991Y6107D01*
X16988Y6106D01*
X16984Y6105D01*
X16982Y6104D01*
X16979Y6103D01*
X16976Y6101D01*
X16973Y6099D01*
X16971Y6097D01*
X16969Y6096D01*
X16967Y6093D01*
X16964Y6091D01*
X16963Y6088D01*
X16961Y6086D01*
X16959Y6083D01*
X16958Y6080D01*
X16957Y6078D01*
X16955Y6075D01*
X16955Y6072D01*
X16954Y6069D01*
X16953Y6066D01*
X16953Y6063D01*
X16953Y6060D01*
X16953Y6056D01*
X16953Y6053D01*
X16953Y6051D01*
X16955Y6047D01*
X16955Y6044D01*
X16956Y6041D01*
X16957Y6039D01*
X16959Y6037D01*
X16960Y6033D01*
X16966Y6026D01*
X16967Y6024D01*
X17046Y5946D01*
X17046Y3690D01*
X17046Y3686D01*
X17046Y3682D01*
X17047Y3680D01*
X17047Y3678D01*
X17049Y3674D01*
X17050Y3670D01*
X17051Y3669D01*
X17052Y3666D01*
X17059Y3656D01*
X17060Y3656D01*
X17121Y3595D01*
X17165Y3489D01*
X17165Y3373D01*
X17121Y3267D01*
X17039Y3186D01*
X16933Y3141D01*
X16817Y3141D01*
X16711Y3186D01*
X16629Y3267D01*
X16585Y3373D01*
X16585Y3489D01*
X16629Y3595D01*
X16690Y3656D01*
X16692Y3659D01*
X16695Y3662D01*
X16696Y3664D01*
X16697Y3665D01*
X16699Y3669D01*
X16701Y3673D01*
X16701Y3675D01*
X16702Y3677D01*
X16704Y3689D01*
X16704Y3690D01*
X16704Y5784D01*
X16704Y5788D01*
X16704Y5792D01*
X16703Y5794D01*
X16703Y5796D01*
X16701Y5800D01*
X16700Y5804D01*
X16699Y5806D01*
X16698Y5808D01*
X16691Y5818D01*
X16690Y5818D01*
X16690Y5819D01*
X16569Y5940D01*
X16565Y5942D01*
X16562Y5945D01*
X16560Y5946D01*
X16559Y5947D01*
X16555Y5949D01*
X16551Y5951D01*
X16550Y5951D01*
X16547Y5952D01*
X16535Y5954D01*
X16534Y5954D01*
X15304Y5954D01*
X15190Y6069D01*
X14713Y6546D01*
X14712Y6547D01*
X14711Y6548D01*
X14707Y6550D01*
X14703Y6553D01*
X14702Y6554D01*
X14700Y6555D01*
X14696Y6556D01*
X14692Y6558D01*
X14690Y6558D01*
X14689Y6559D01*
X14684Y6559D01*
X14679Y6560D01*
X14678Y6560D01*
X14676Y6560D01*
X14674Y6560D01*
X14667Y6559D01*
X14662Y6557D01*
X14659Y6556D01*
X14594Y6529D01*
X14406Y6529D01*
X14233Y6601D01*
X14101Y6733D01*
X14045Y6867D01*
X14043Y6872D01*
X14040Y6877D01*
X14039Y6878D01*
X14035Y6882D01*
X14032Y6886D01*
X14031Y6886D01*
X14031Y6887D01*
X14026Y6890D01*
X14021Y6893D01*
X14020Y6893D01*
X14015Y6895D01*
X14009Y6897D01*
X14008Y6897D01*
X14003Y6897D01*
X13997Y6897D01*
X13996Y6897D01*
X13990Y6896D01*
X13985Y6895D01*
X13984Y6895D01*
X13979Y6892D01*
X13974Y6890D01*
X13973Y6889D01*
X13972Y6889D01*
X13968Y6885D01*
X13964Y6882D01*
X13964Y6881D01*
X13963Y6881D01*
X13956Y6871D01*
X13955Y6868D01*
X13954Y6867D01*
X13899Y6733D01*
X13767Y6601D01*
X13594Y6529D01*
X13406Y6529D01*
X13233Y6601D01*
X13101Y6733D01*
X13045Y6867D01*
X13043Y6872D01*
X13040Y6877D01*
X13039Y6878D01*
X13035Y6882D01*
X13032Y6886D01*
X13031Y6886D01*
X13031Y6887D01*
X13026Y6890D01*
X13021Y6893D01*
X13020Y6893D01*
X13015Y6895D01*
X13009Y6897D01*
X13008Y6897D01*
X13003Y6897D01*
X12997Y6897D01*
X12996Y6897D01*
X12990Y6896D01*
X12985Y6895D01*
X12984Y6895D01*
X12979Y6892D01*
X12974Y6890D01*
X12973Y6889D01*
X12972Y6889D01*
X12968Y6885D01*
X12964Y6882D01*
X12964Y6881D01*
X12963Y6881D01*
X12956Y6871D01*
X12955Y6868D01*
X12954Y6867D01*
X12899Y6733D01*
X12767Y6601D01*
X12594Y6529D01*
X12406Y6529D01*
X12233Y6601D01*
X12101Y6733D01*
X12045Y6867D01*
X12043Y6872D01*
X12040Y6877D01*
X12039Y6878D01*
X12035Y6882D01*
X12032Y6886D01*
X12031Y6886D01*
X12031Y6887D01*
X12026Y6890D01*
X12021Y6893D01*
X12020Y6893D01*
X12015Y6895D01*
X12009Y6897D01*
X12008Y6897D01*
X12003Y6897D01*
X11997Y6897D01*
X11996Y6897D01*
X11990Y6896D01*
X11985Y6895D01*
X11984Y6895D01*
X11979Y6892D01*
X11974Y6890D01*
X11973Y6889D01*
X11972Y6889D01*
X11968Y6885D01*
X11964Y6882D01*
X11964Y6881D01*
X11963Y6881D01*
X11956Y6871D01*
X11955Y6868D01*
X11954Y6867D01*
X11899Y6733D01*
X11767Y6601D01*
X11594Y6529D01*
X11406Y6529D01*
X11233Y6601D01*
X11101Y6733D01*
X11029Y6906D01*
X11029Y7094D01*
X11101Y7267D01*
X11233Y7399D01*
X11406Y7471D01*
X11594Y7471D01*
X11767Y7399D01*
X11899Y7267D01*
X11954Y7133D01*
X11957Y7128D01*
X11960Y7123D01*
X11961Y7122D01*
X11965Y7118D01*
X11968Y7114D01*
X11969Y7114D01*
X11969Y7113D01*
X11974Y7110D01*
X11979Y7107D01*
X11980Y7107D01*
X11985Y7105D01*
X11991Y7103D01*
X11992Y7103D01*
X11997Y7103D01*
X12003Y7103D01*
X12004Y7103D01*
X12010Y7104D01*
X12015Y7105D01*
X12016Y7105D01*
X12021Y7108D01*
X12026Y7110D01*
X12027Y7111D01*
X12028Y7111D01*
X12032Y7115D01*
X12036Y7118D01*
X12036Y7119D01*
X12037Y7119D01*
X12044Y7129D01*
X12045Y7132D01*
X12045Y7133D01*
X12101Y7267D01*
X12233Y7399D01*
X12406Y7471D01*
X12594Y7471D01*
X12767Y7399D01*
X12899Y7267D01*
X12954Y7133D01*
X12957Y7128D01*
X12960Y7123D01*
X12961Y7122D01*
X12965Y7118D01*
X12968Y7114D01*
X12969Y7114D01*
X12969Y7113D01*
X12974Y7110D01*
X12979Y7107D01*
X12980Y7107D01*
X12985Y7105D01*
X12991Y7103D01*
X12992Y7103D01*
X12997Y7103D01*
X13003Y7103D01*
X13004Y7103D01*
X13010Y7104D01*
X13015Y7105D01*
X13016Y7105D01*
X13021Y7108D01*
X13026Y7110D01*
X13027Y7111D01*
X13028Y7111D01*
X13032Y7115D01*
X13036Y7118D01*
X13036Y7119D01*
X13037Y7119D01*
X13044Y7129D01*
X13045Y7132D01*
X13045Y7133D01*
X13101Y7267D01*
X13233Y7399D01*
X13406Y7471D01*
X13594Y7471D01*
X13767Y7399D01*
X13899Y7267D01*
X13954Y7133D01*
X13957Y7128D01*
X13960Y7123D01*
X13961Y7122D01*
X13965Y7118D01*
X13968Y7114D01*
X13969Y7114D01*
X13969Y7113D01*
X13974Y7110D01*
X13979Y7107D01*
X13980Y7107D01*
X13985Y7105D01*
X13991Y7103D01*
X13992Y7103D01*
X13997Y7103D01*
X14003Y7103D01*
X14004Y7103D01*
X14010Y7104D01*
X14015Y7105D01*
X14016Y7105D01*
X14021Y7108D01*
X14026Y7110D01*
X14027Y7111D01*
X14028Y7111D01*
X14032Y7115D01*
X14036Y7118D01*
X14036Y7119D01*
X14037Y7119D01*
X14044Y7129D01*
X14045Y7132D01*
X14045Y7133D01*
X14101Y7267D01*
X14233Y7399D01*
X14406Y7471D01*
X14594Y7471D01*
X14767Y7399D01*
X14899Y7267D01*
X14954Y7133D01*
X14957Y7128D01*
X14960Y7123D01*
X14961Y7122D01*
X14965Y7118D01*
X14968Y7114D01*
X14969Y7114D01*
X14969Y7113D01*
X14974Y7110D01*
X14979Y7107D01*
X14980Y7107D01*
X14985Y7105D01*
X14991Y7103D01*
X14992Y7103D01*
X14997Y7103D01*
X15003Y7103D01*
X15004Y7103D01*
X15010Y7104D01*
X15015Y7105D01*
X15016Y7105D01*
X15021Y7108D01*
X15026Y7110D01*
X15027Y7111D01*
X15028Y7111D01*
X15032Y7115D01*
X15036Y7118D01*
X15036Y7119D01*
X15037Y7119D01*
X15044Y7129D01*
X15045Y7132D01*
X15045Y7133D01*
X15101Y7267D01*
X15233Y7399D01*
X15406Y7471D01*
X15594Y7471D01*
X15767Y7399D01*
X15899Y7267D01*
X15954Y7133D01*
X15957Y7128D01*
X15960Y7123D01*
X15961Y7122D01*
X15965Y7118D01*
X15968Y7114D01*
X15969Y7114D01*
X15969Y7113D01*
X15974Y7110D01*
X15979Y7107D01*
X15980Y7107D01*
X15985Y7105D01*
X15991Y7103D01*
X15992Y7103D01*
X15997Y7103D01*
X16003Y7103D01*
X16004Y7103D01*
X16010Y7104D01*
X16015Y7105D01*
X16016Y7105D01*
X16021Y7108D01*
X16026Y7110D01*
X16027Y7111D01*
X16028Y7111D01*
X16032Y7115D01*
X16036Y7118D01*
X16036Y7119D01*
X16037Y7119D01*
X16044Y7129D01*
X16045Y7132D01*
X16045Y7133D01*
X16101Y7267D01*
X16233Y7399D01*
X16406Y7471D01*
X16594Y7471D01*
X16767Y7399D01*
X16899Y7267D01*
X16954Y7133D01*
X16957Y7128D01*
X16960Y7123D01*
X16961Y7122D01*
X16965Y7118D01*
X16968Y7114D01*
X16969Y7114D01*
X16969Y7113D01*
X16974Y7110D01*
X16979Y7107D01*
X16980Y7107D01*
X16985Y7105D01*
X16991Y7103D01*
X16992Y7103D01*
X16997Y7103D01*
X17003Y7103D01*
X17004Y7103D01*
X17010Y7104D01*
X17015Y7105D01*
X17016Y7105D01*
X17021Y7108D01*
X17026Y7110D01*
X17027Y7111D01*
X17028Y7111D01*
X17032Y7115D01*
X17036Y7118D01*
X17036Y7119D01*
X17037Y7119D01*
X17044Y7129D01*
X17045Y7132D01*
X17046Y7133D01*
X17101Y7267D01*
X17233Y7399D01*
X17406Y7471D01*
X17594Y7471D01*
X17767Y7399D01*
X17899Y7267D01*
X17954Y7133D01*
X17957Y7128D01*
X17960Y7123D01*
X17961Y7122D01*
X17965Y7118D01*
X17968Y7114D01*
X17969Y7114D01*
X17969Y7113D01*
X17974Y7110D01*
X17979Y7107D01*
X17980Y7107D01*
X17985Y7105D01*
X17991Y7103D01*
X17992Y7103D01*
X17997Y7103D01*
X18003Y7103D01*
X18004Y7103D01*
X18010Y7104D01*
X18015Y7105D01*
X18016Y7105D01*
X18021Y7108D01*
X18026Y7110D01*
X18027Y7111D01*
X18028Y7111D01*
X18032Y7115D01*
X18036Y7118D01*
X18036Y7119D01*
X18037Y7119D01*
X18044Y7129D01*
X18045Y7132D01*
X18045Y7133D01*
X18101Y7267D01*
X18233Y7399D01*
X18406Y7471D01*
X18594Y7471D01*
X18767Y7399D01*
X18899Y7267D01*
X18954Y7133D01*
X18957Y7128D01*
X18960Y7123D01*
X18961Y7122D01*
X18965Y7118D01*
X18968Y7114D01*
X18969Y7114D01*
X18969Y7113D01*
X18974Y7110D01*
X18979Y7107D01*
X18980Y7107D01*
X18985Y7105D01*
X18991Y7103D01*
X18992Y7103D01*
X18997Y7103D01*
X19003Y7103D01*
X19004Y7103D01*
X19010Y7104D01*
X19015Y7105D01*
X19016Y7105D01*
X19021Y7108D01*
X19026Y7110D01*
X19027Y7111D01*
X19028Y7111D01*
X19032Y7115D01*
X19036Y7118D01*
X19036Y7119D01*
X19037Y7119D01*
X19044Y7129D01*
X19045Y7132D01*
X19045Y7133D01*
X19101Y7267D01*
X19233Y7399D01*
X19406Y7471D01*
X19594Y7471D01*
X19767Y7399D01*
X19899Y7267D01*
X19954Y7133D01*
X19957Y7128D01*
X19960Y7123D01*
X19961Y7122D01*
X19965Y7118D01*
X19968Y7114D01*
X19969Y7114D01*
X19969Y7113D01*
X19974Y7110D01*
X19979Y7107D01*
X19980Y7107D01*
X19985Y7105D01*
X19991Y7103D01*
X19992Y7103D01*
X19997Y7103D01*
X20003Y7103D01*
X20004Y7103D01*
X20010Y7104D01*
X20015Y7105D01*
X20016Y7105D01*
X20021Y7108D01*
X20026Y7110D01*
X20027Y7111D01*
X20028Y7111D01*
X20032Y7115D01*
X20036Y7118D01*
X20036Y7119D01*
X20037Y7119D01*
X20044Y7129D01*
X20045Y7132D01*
X20045Y7133D01*
X20101Y7267D01*
X20233Y7399D01*
X20406Y7471D01*
X20594Y7471D01*
X20767Y7399D01*
X20899Y7267D01*
X20954Y7133D01*
X20957Y7128D01*
X20960Y7123D01*
X20961Y7122D01*
X20965Y7118D01*
X20968Y7114D01*
X20969Y7114D01*
X20969Y7113D01*
X20974Y7110D01*
X20979Y7107D01*
X20980Y7107D01*
X20985Y7105D01*
X20991Y7103D01*
X20992Y7103D01*
X20997Y7103D01*
X21003Y7103D01*
X21004Y7103D01*
X21010Y7104D01*
X21015Y7105D01*
X21016Y7105D01*
X21021Y7108D01*
X21026Y7110D01*
X21027Y7111D01*
X21028Y7111D01*
X21032Y7115D01*
X21036Y7118D01*
X21036Y7119D01*
X21037Y7119D01*
X21044Y7129D01*
X21045Y7132D01*
X21045Y7133D01*
X21101Y7267D01*
X21233Y7399D01*
X21406Y7471D01*
X21594Y7471D01*
X21767Y7399D01*
X21899Y7267D01*
X21954Y7133D01*
X21957Y7128D01*
X21960Y7123D01*
X21961Y7122D01*
X21965Y7118D01*
X21968Y7114D01*
X21969Y7114D01*
X21969Y7113D01*
X21974Y7110D01*
X21979Y7107D01*
X21980Y7107D01*
X21985Y7105D01*
X21991Y7103D01*
X21992Y7103D01*
X21997Y7103D01*
X22003Y7103D01*
X22004Y7103D01*
X22010Y7104D01*
X22015Y7105D01*
X22016Y7105D01*
X22021Y7108D01*
X22026Y7110D01*
X22027Y7111D01*
X22028Y7111D01*
X22032Y7115D01*
X22036Y7118D01*
X22036Y7119D01*
X22037Y7119D01*
X22044Y7129D01*
X22045Y7132D01*
X22045Y7133D01*
X22101Y7267D01*
X22233Y7399D01*
X22406Y7471D01*
X22594Y7471D01*
X22767Y7399D01*
X22899Y7267D01*
X22954Y7133D01*
X22957Y7128D01*
X22960Y7123D01*
X22961Y7122D01*
X22965Y7118D01*
X22968Y7114D01*
X22969Y7114D01*
X22969Y7113D01*
X22974Y7110D01*
X22979Y7107D01*
X22980Y7107D01*
X22985Y7105D01*
X22991Y7103D01*
X22992Y7103D01*
X22997Y7103D01*
X23003Y7103D01*
X23004Y7103D01*
X23010Y7104D01*
X23015Y7105D01*
X23016Y7105D01*
X23021Y7108D01*
X23026Y7110D01*
X23027Y7111D01*
X23028Y7111D01*
X23032Y7115D01*
X23036Y7118D01*
X23036Y7119D01*
X23037Y7119D01*
X23044Y7129D01*
X23045Y7132D01*
X23045Y7133D01*
X23101Y7267D01*
X23233Y7399D01*
X23406Y7471D01*
X23594Y7471D01*
X23767Y7399D01*
X23899Y7267D01*
X23968Y7101D01*
X23968Y7100D01*
X23969Y7099D01*
X23971Y7094D01*
X23974Y7090D01*
X23975Y7089D01*
X23975Y7088D01*
X23979Y7085D01*
X23983Y7081D01*
X23984Y7081D01*
X23985Y7080D01*
X23989Y7077D01*
X23993Y7075D01*
X23994Y7074D01*
X23996Y7074D01*
X24000Y7073D01*
X24005Y7071D01*
X24006Y7071D01*
X24008Y7071D01*
X24013Y7071D01*
X24017Y7071D01*
X24019Y7071D01*
X24020Y7071D01*
X24025Y7072D01*
X24030Y7073D01*
X24031Y7074D01*
X24032Y7074D01*
X24036Y7077D01*
X24041Y7079D01*
X24042Y7080D01*
X24043Y7080D01*
X24046Y7084D01*
X24050Y7087D01*
X24051Y7088D01*
X24052Y7089D01*
X24053Y7091D01*
X24057Y7097D01*
X24059Y7102D01*
X24060Y7105D01*
X24082Y7173D01*
X24114Y7236D01*
X24156Y7294D01*
X24206Y7344D01*
X24264Y7386D01*
X24327Y7418D01*
X24394Y7440D01*
X24402Y7441D01*
X24402Y7048D01*
X24403Y7044D01*
X24403Y7039D01*
X24404Y7037D01*
X24404Y7036D01*
X24406Y7032D01*
X24407Y7027D01*
X24408Y7026D01*
X24408Y7025D01*
X24411Y7021D01*
X24414Y7016D01*
X24415Y7016D01*
X24416Y7015D01*
X24420Y7011D01*
X24423Y7008D01*
X24424Y7007D01*
X24425Y7007D01*
X24430Y7005D01*
X24434Y7002D01*
X24435Y7002D01*
X24437Y7001D01*
X24449Y6999D01*
X24451Y6999D01*
X24452Y6999D01*
X24548Y6999D01*
X24553Y7000D01*
X24558Y7000D01*
X24559Y7001D01*
X24561Y7001D01*
X24565Y7003D01*
X24570Y7004D01*
X24571Y7005D01*
X24572Y7005D01*
X24576Y7008D01*
X24580Y7011D01*
X24581Y7012D01*
X24582Y7013D01*
X24585Y7017D01*
X24589Y7020D01*
X24589Y7021D01*
X24590Y7022D01*
X24592Y7027D01*
X24595Y7031D01*
X24595Y7032D01*
X24595Y7034D01*
X24598Y7046D01*
X24597Y7047D01*
X24598Y7048D01*
X24598Y7441D01*
X24606Y7440D01*
X24673Y7418D01*
X24736Y7386D01*
X24794Y7344D01*
X24844Y7294D01*
X24886Y7236D01*
X24918Y7173D01*
X24940Y7105D01*
X24941Y7103D01*
X24941Y7102D01*
X24943Y7098D01*
X24945Y7093D01*
X24946Y7092D01*
X24947Y7091D01*
X24950Y7088D01*
X24953Y7084D01*
X24954Y7083D01*
X24955Y7082D01*
X24959Y7079D01*
X24963Y7077D01*
X24964Y7076D01*
X24966Y7075D01*
X24970Y7074D01*
X24975Y7072D01*
X24976Y7072D01*
X24977Y7071D01*
X24982Y7071D01*
X24987Y7071D01*
X24989Y7071D01*
X24990Y7071D01*
X24995Y7072D01*
X25000Y7072D01*
X25001Y7073D01*
X25002Y7073D01*
X25006Y7075D01*
X25011Y7077D01*
X25012Y7078D01*
X25013Y7078D01*
X25017Y7081D01*
X25021Y7084D01*
X25022Y7085D01*
X25023Y7086D01*
X25024Y7088D01*
X25029Y7094D01*
X25031Y7099D01*
X25032Y7101D01*
X25101Y7267D01*
X25233Y7399D01*
X25406Y7471D01*
X25594Y7471D01*
X25767Y7399D01*
X25899Y7267D01*
X25971Y7094D01*
X25971Y6906D01*
X25899Y6733D01*
X25871Y6705D01*
X25867Y6700D01*
X25864Y6696D01*
X25863Y6696D01*
X25863Y6695D01*
X25861Y6690D01*
X25858Y6685D01*
X25858Y6684D01*
X25857Y6678D01*
X25856Y6673D01*
X25856Y6672D01*
X25856Y6671D01*
X25857Y6666D01*
X25857Y6660D01*
X25857Y6659D01*
X25859Y6654D01*
X25861Y6648D01*
X25862Y6647D01*
X25865Y6643D01*
X25868Y6638D01*
X25869Y6637D01*
X25873Y6633D01*
X25877Y6630D01*
X25878Y6629D01*
X25883Y6626D01*
X25888Y6624D01*
X25889Y6624D01*
X25889Y6623D01*
X25902Y6621D01*
X25904Y6621D01*
X25905Y6621D01*
X26271Y6621D01*
X26385Y6506D01*
X26712Y6179D01*
X26716Y6176D01*
X26719Y6174D01*
X26721Y6173D01*
X26722Y6171D01*
X26726Y6170D01*
X26730Y6168D01*
X26731Y6168D01*
X26734Y6167D01*
X26746Y6165D01*
X26747Y6165D01*
X26808Y6165D01*
X26914Y6121D01*
X26996Y6039D01*
X27040Y5933D01*
X27040Y5817D01*
X26996Y5711D01*
X26914Y5629D01*
X26808Y5585D01*
X26692Y5585D01*
X26586Y5629D01*
X26504Y5711D01*
X26460Y5817D01*
X26460Y5928D01*
X26460Y5932D01*
X26460Y5936D01*
X26459Y5938D01*
X26459Y5940D01*
X26457Y5944D01*
X26456Y5948D01*
X26455Y5949D01*
X26454Y5952D01*
X26447Y5962D01*
X26446Y5962D01*
X26446Y5963D01*
X26333Y6076D01*
X26331Y6077D01*
X26329Y6079D01*
X26326Y6081D01*
X26323Y6083D01*
X26321Y6084D01*
X26318Y6086D01*
X26315Y6087D01*
X26312Y6088D01*
X26309Y6088D01*
X26306Y6089D01*
X26303Y6089D01*
X26299Y6090D01*
X26297Y6090D01*
X26294Y6090D01*
X26291Y6089D01*
X26287Y6089D01*
X26284Y6088D01*
X26282Y6087D01*
X26279Y6086D01*
X26275Y6084D01*
X26273Y6083D01*
X26271Y6082D01*
X26268Y6079D01*
X26265Y6077D01*
X26263Y6075D01*
X26261Y6073D01*
X26259Y6070D01*
X26257Y6068D01*
X26256Y6065D01*
X26254Y6063D01*
X26253Y6060D01*
X26252Y6057D01*
X26251Y6054D01*
X26250Y6051D01*
X26250Y6048D01*
X26249Y6045D01*
X26249Y6042D01*
X26249Y6039D01*
X26249Y6037D01*
X26250Y6032D01*
X26252Y6024D01*
X26253Y6022D01*
X26290Y5933D01*
X26290Y5887D01*
X26290Y5886D01*
X26290Y5885D01*
X26290Y5883D01*
X26291Y5875D01*
X26293Y5870D01*
X26293Y5868D01*
X26326Y5790D01*
X26326Y3104D01*
X26326Y3099D01*
X26326Y3095D01*
X26327Y3093D01*
X26327Y3091D01*
X26329Y3087D01*
X26330Y3083D01*
X26331Y3082D01*
X26332Y3080D01*
X26339Y3070D01*
X26340Y3069D01*
X26444Y2965D01*
X26447Y2963D01*
X26450Y2960D01*
X26452Y2959D01*
X26454Y2958D01*
X26457Y2956D01*
X26461Y2954D01*
X26463Y2954D01*
X26465Y2953D01*
X26477Y2951D01*
X26478Y2951D01*
X26479Y2951D01*
X26521Y2951D01*
X26526Y2951D01*
X26532Y2952D01*
X26533Y2952D01*
X26538Y2954D01*
X26543Y2956D01*
X26544Y2957D01*
X26545Y2957D01*
X26549Y2960D01*
X26554Y2963D01*
X26554Y2964D01*
X26555Y2964D01*
X26558Y2969D01*
X26562Y2973D01*
X26562Y2974D01*
X26565Y2979D01*
X26567Y2984D01*
X26567Y2985D01*
X26568Y2985D01*
X26569Y2991D01*
X26570Y2996D01*
X26570Y2997D01*
X26570Y3003D01*
X26569Y3009D01*
X26569Y3010D01*
X26567Y3015D01*
X26566Y3020D01*
X26565Y3021D01*
X26565Y3022D01*
X26558Y3032D01*
X26556Y3034D01*
X26556Y3035D01*
X26504Y3086D01*
X26460Y3192D01*
X26460Y3308D01*
X26504Y3414D01*
X26565Y3474D01*
X26567Y3478D01*
X26570Y3481D01*
X26571Y3483D01*
X26572Y3484D01*
X26574Y3488D01*
X26576Y3492D01*
X26576Y3493D01*
X26577Y3496D01*
X26579Y3508D01*
X26579Y3509D01*
X26579Y5071D01*
X27065Y5556D01*
X27179Y5671D01*
X28224Y5671D01*
X28225Y5671D01*
X28227Y5671D01*
X28236Y5672D01*
X28240Y5674D01*
X28242Y5674D01*
X28402Y5741D01*
X28598Y5741D01*
X28778Y5666D01*
X28916Y5528D01*
X28991Y5348D01*
X28991Y5152D01*
X28916Y4972D01*
X28778Y4834D01*
X28659Y4785D01*
X28658Y4784D01*
X28656Y4784D01*
X28652Y4781D01*
X28648Y4778D01*
X28647Y4777D01*
X28646Y4777D01*
X28643Y4773D01*
X28639Y4770D01*
X28638Y4769D01*
X28637Y4768D01*
X28635Y4763D01*
X28633Y4759D01*
X28632Y4758D01*
X28632Y4757D01*
X28630Y4752D01*
X28629Y4747D01*
X28629Y4746D01*
X28629Y4745D01*
X28629Y4740D01*
X28629Y4735D01*
X28629Y4734D01*
X28629Y4732D01*
X28630Y4727D01*
X28631Y4723D01*
X28632Y4721D01*
X28632Y4720D01*
X28635Y4716D01*
X28637Y4712D01*
X28638Y4711D01*
X28638Y4709D01*
X28642Y4706D01*
X28645Y4702D01*
X28646Y4701D01*
X28647Y4701D01*
X28649Y4699D01*
X28655Y4695D01*
X28660Y4693D01*
X28662Y4692D01*
X28681Y4686D01*
X28747Y4653D01*
X28807Y4609D01*
X28859Y4557D01*
X28903Y4497D01*
X28936Y4431D01*
X28959Y4360D01*
X28961Y4349D01*
X28550Y4349D01*
X28545Y4349D01*
X28540Y4348D01*
X28539Y4348D01*
X28538Y4348D01*
X28533Y4346D01*
X28528Y4344D01*
X28527Y4344D01*
X28526Y4343D01*
X28522Y4340D01*
X28518Y4337D01*
X28517Y4336D01*
X28516Y4336D01*
X28513Y4332D01*
X28510Y4328D01*
X28509Y4327D01*
X28508Y4326D01*
X28506Y4322D01*
X28504Y4317D01*
X28504Y4316D01*
X28503Y4315D01*
X28501Y4303D01*
X28501Y4301D01*
X28501Y4300D01*
X28501Y4249D01*
X28499Y4249D01*
X28499Y4300D01*
X28499Y4305D01*
X28498Y4310D01*
X28498Y4311D01*
X28498Y4312D01*
X28496Y4317D01*
X28494Y4322D01*
X28494Y4323D01*
X28493Y4324D01*
X28490Y4328D01*
X28487Y4332D01*
X28486Y4333D01*
X28486Y4334D01*
X28482Y4337D01*
X28478Y4340D01*
X28477Y4341D01*
X28476Y4342D01*
X28472Y4344D01*
X28467Y4346D01*
X28466Y4346D01*
X28465Y4347D01*
X28453Y4349D01*
X28451Y4349D01*
X28450Y4349D01*
X28039Y4349D01*
X28041Y4360D01*
X28064Y4431D01*
X28097Y4497D01*
X28141Y4557D01*
X28193Y4609D01*
X28253Y4653D01*
X28319Y4686D01*
X28338Y4692D01*
X28339Y4693D01*
X28340Y4693D01*
X28344Y4695D01*
X28349Y4698D01*
X28350Y4698D01*
X28351Y4699D01*
X28355Y4702D01*
X28358Y4705D01*
X28359Y4707D01*
X28360Y4707D01*
X28363Y4712D01*
X28366Y4716D01*
X28366Y4717D01*
X28367Y4718D01*
X28368Y4723D01*
X28370Y4727D01*
X28370Y4728D01*
X28371Y4730D01*
X28371Y4735D01*
X28372Y4739D01*
X28371Y4741D01*
X28372Y4742D01*
X28371Y4747D01*
X28370Y4752D01*
X28370Y4753D01*
X28369Y4754D01*
X28367Y4759D01*
X28365Y4763D01*
X28365Y4764D01*
X28364Y4766D01*
X28361Y4769D01*
X28358Y4773D01*
X28357Y4774D01*
X28356Y4775D01*
X28354Y4776D01*
X28348Y4781D01*
X28343Y4783D01*
X28341Y4785D01*
X28222Y4834D01*
X28084Y4972D01*
X28009Y5152D01*
X28009Y5280D01*
X28009Y5285D01*
X28008Y5290D01*
X28008Y5291D01*
X28008Y5292D01*
X28006Y5297D01*
X28004Y5302D01*
X28004Y5303D01*
X28003Y5304D01*
X28000Y5308D01*
X27997Y5312D01*
X27996Y5313D01*
X27996Y5314D01*
X27992Y5317D01*
X27988Y5320D01*
X27987Y5321D01*
X27986Y5322D01*
X27982Y5324D01*
X27977Y5326D01*
X27976Y5326D01*
X27975Y5327D01*
X27963Y5329D01*
X27961Y5329D01*
X27960Y5329D01*
X27632Y5329D01*
X27629Y5329D01*
X27626Y5329D01*
X27623Y5328D01*
X27619Y5328D01*
X27617Y5327D01*
X27614Y5326D01*
X27611Y5324D01*
X27608Y5323D01*
X27605Y5321D01*
X27603Y5320D01*
X27600Y5318D01*
X27598Y5316D01*
X27596Y5314D01*
X27594Y5312D01*
X27592Y5309D01*
X27590Y5306D01*
X27589Y5304D01*
X27587Y5301D01*
X27586Y5298D01*
X27585Y5295D01*
X27584Y5292D01*
X27583Y5289D01*
X27583Y5286D01*
X27582Y5283D01*
X27583Y5280D01*
X27582Y5277D01*
X27583Y5274D01*
X27583Y5270D01*
X27584Y5268D01*
X27585Y5265D01*
X27586Y5262D01*
X27587Y5258D01*
X27589Y5256D01*
X27590Y5254D01*
X27592Y5251D01*
X27594Y5248D01*
X27596Y5246D01*
X27598Y5244D01*
X27600Y5243D01*
X27603Y5240D01*
X27611Y5236D01*
X27613Y5234D01*
X27778Y5166D01*
X27916Y5028D01*
X27991Y4848D01*
X27991Y4652D01*
X27916Y4472D01*
X27778Y4334D01*
X27685Y4295D01*
X27680Y4293D01*
X27675Y4290D01*
X27674Y4289D01*
X27670Y4285D01*
X27666Y4282D01*
X27666Y4281D01*
X27665Y4281D01*
X27663Y4276D01*
X27660Y4271D01*
X27659Y4271D01*
X27659Y4270D01*
X27657Y4265D01*
X27656Y4259D01*
X27655Y4258D01*
X27655Y4253D01*
X27655Y4247D01*
X27655Y4246D01*
X27656Y4240D01*
X27657Y4235D01*
X27657Y4234D01*
X27658Y4234D01*
X27660Y4229D01*
X27662Y4224D01*
X27663Y4223D01*
X27663Y4222D01*
X27667Y4218D01*
X27670Y4214D01*
X27671Y4214D01*
X27671Y4213D01*
X27682Y4206D01*
X27684Y4205D01*
X27685Y4204D01*
X27778Y4166D01*
X27916Y4028D01*
X27991Y3848D01*
X27991Y3652D01*
X27916Y3472D01*
X27778Y3334D01*
X27685Y3296D01*
X27680Y3293D01*
X27675Y3290D01*
X27674Y3289D01*
X27670Y3285D01*
X27666Y3282D01*
X27666Y3281D01*
X27665Y3281D01*
X27663Y3276D01*
X27660Y3271D01*
X27659Y3271D01*
X27659Y3270D01*
X27657Y3265D01*
X27656Y3259D01*
X27655Y3258D01*
X27655Y3253D01*
X27655Y3247D01*
X27655Y3246D01*
X27656Y3240D01*
X27657Y3235D01*
X27657Y3234D01*
X27658Y3234D01*
X27660Y3229D01*
X27662Y3224D01*
X27663Y3223D01*
X27663Y3222D01*
X27667Y3218D01*
X27670Y3214D01*
X27671Y3214D01*
X27671Y3213D01*
X27682Y3206D01*
X27684Y3205D01*
X27685Y3204D01*
X27778Y3166D01*
X27916Y3028D01*
X27991Y2848D01*
X27991Y2652D01*
X27916Y2472D01*
X27778Y2334D01*
X27598Y2259D01*
X27402Y2259D01*
X27222Y2334D01*
X27084Y2472D01*
X27065Y2519D01*
X27064Y2520D01*
X27063Y2522D01*
X27061Y2526D01*
X27058Y2530D01*
X27057Y2531D01*
X27057Y2532D01*
X27053Y2535D01*
X27050Y2539D01*
X27048Y2539D01*
X27047Y2540D01*
X27043Y2543D01*
X27039Y2545D01*
X27038Y2545D01*
X27036Y2546D01*
X27034Y2547D01*
X27027Y2549D01*
X27022Y2549D01*
X27019Y2549D01*
X26335Y2549D01*
X26261Y2580D01*
X26028Y2813D01*
X26026Y2815D01*
X26024Y2816D01*
X26021Y2819D01*
X26018Y2821D01*
X26016Y2822D01*
X26014Y2823D01*
X26010Y2824D01*
X26006Y2826D01*
X26004Y2826D01*
X26002Y2827D01*
X25998Y2827D01*
X25994Y2828D01*
X25992Y2828D01*
X25990Y2828D01*
X25986Y2827D01*
X25982Y2827D01*
X25980Y2826D01*
X25978Y2825D01*
X25974Y2824D01*
X25970Y2822D01*
X25968Y2821D01*
X25966Y2820D01*
X25963Y2818D01*
X25960Y2815D01*
X25958Y2814D01*
X25957Y2812D01*
X25955Y2810D01*
X25952Y2806D01*
X25949Y2800D01*
X25947Y2797D01*
X25916Y2722D01*
X25778Y2584D01*
X25598Y2509D01*
X25402Y2509D01*
X25222Y2584D01*
X25084Y2722D01*
X25009Y2902D01*
X25009Y3098D01*
X25084Y3278D01*
X25222Y3416D01*
X25315Y3454D01*
X25320Y3457D01*
X25325Y3460D01*
X25326Y3461D01*
X25330Y3465D01*
X25334Y3468D01*
X25334Y3469D01*
X25335Y3469D01*
X25337Y3474D01*
X25340Y3479D01*
X25341Y3479D01*
X25341Y3480D01*
X25343Y3485D01*
X25344Y3491D01*
X25345Y3492D01*
X25345Y3497D01*
X25345Y3503D01*
X25345Y3504D01*
X25344Y3510D01*
X25343Y3515D01*
X25343Y3516D01*
X25342Y3516D01*
X25340Y3521D01*
X25338Y3526D01*
X25337Y3527D01*
X25337Y3528D01*
X25333Y3532D01*
X25330Y3536D01*
X25329Y3536D01*
X25329Y3537D01*
X25324Y3540D01*
X25323Y3541D01*
X25322Y3541D01*
X25318Y3544D01*
X25316Y3545D01*
X25315Y3545D01*
X25222Y3584D01*
X25084Y3722D01*
X25009Y3902D01*
X25009Y4098D01*
X25084Y4278D01*
X25222Y4416D01*
X25315Y4454D01*
X25320Y4457D01*
X25325Y4460D01*
X25326Y4461D01*
X25330Y4465D01*
X25334Y4468D01*
X25334Y4469D01*
X25335Y4469D01*
X25337Y4474D01*
X25340Y4479D01*
X25341Y4479D01*
X25341Y4480D01*
X25343Y4485D01*
X25344Y4491D01*
X25345Y4492D01*
X25345Y4497D01*
X25345Y4503D01*
X25345Y4504D01*
X25344Y4510D01*
X25343Y4515D01*
X25343Y4516D01*
X25342Y4516D01*
X25340Y4521D01*
X25338Y4526D01*
X25337Y4527D01*
X25337Y4528D01*
X25333Y4532D01*
X25330Y4536D01*
X25329Y4536D01*
X25329Y4537D01*
X25318Y4544D01*
X25316Y4545D01*
X25315Y4545D01*
X25222Y4584D01*
X25084Y4722D01*
X25009Y4902D01*
X25009Y5098D01*
X25084Y5278D01*
X25190Y5384D01*
X25192Y5387D01*
X25195Y5390D01*
X25196Y5392D01*
X25197Y5394D01*
X25199Y5398D01*
X25201Y5401D01*
X25201Y5403D01*
X25202Y5405D01*
X25204Y5417D01*
X25204Y5418D01*
X25204Y5419D01*
X25204Y5534D01*
X25204Y5538D01*
X25204Y5542D01*
X25203Y5544D01*
X25203Y5546D01*
X25201Y5550D01*
X25200Y5554D01*
X25199Y5556D01*
X25198Y5558D01*
X25191Y5568D01*
X25190Y5568D01*
X25190Y5569D01*
X24744Y6015D01*
X24740Y6017D01*
X24737Y6020D01*
X24735Y6021D01*
X24734Y6022D01*
X24730Y6024D01*
X24726Y6026D01*
X24725Y6026D01*
X24722Y6027D01*
X24710Y6029D01*
X24709Y6029D01*
X18229Y6029D01*
X18115Y6144D01*
X17713Y6546D01*
X17712Y6547D01*
X17711Y6548D01*
X17707Y6550D01*
X17703Y6553D01*
X17702Y6554D01*
X17700Y6555D01*
X17696Y6556D01*
X17692Y6558D01*
X17690Y6558D01*
X17689Y6559D01*
X17684Y6559D01*
X17679Y6560D01*
X17678Y6560D01*
X17676Y6560D01*
X17674Y6560D01*
X17667Y6559D01*
X17662Y6557D01*
X17659Y6556D01*
X17594Y6529D01*
X17448Y6529D01*
X17446Y6529D01*
X17444Y6529D01*
X17440Y6528D01*
X17436Y6528D01*
X17434Y6527D01*
X17432Y6526D01*
X17428Y6525D01*
X17424Y6523D01*
X17423Y6522D01*
X17421Y6521D01*
X17418Y6518D01*
X17414Y6516D01*
X17413Y6514D01*
X17411Y6513D01*
X17409Y6509D01*
X17407Y6506D01*
X17406Y6504D01*
X17404Y6502D01*
X17403Y6499D01*
X17401Y6495D01*
X17401Y6493D01*
X17400Y6491D01*
X17400Y6487D01*
X17399Y6483D01*
X17399Y6480D01*
X17399Y6478D01*
X17400Y6476D01*
X17400Y6470D01*
X17402Y6464D01*
X17403Y6461D01*
X17415Y6433D01*
X17415Y6347D01*
X17415Y6343D01*
X17415Y6339D01*
X17416Y6337D01*
X17416Y6335D01*
X17418Y6331D01*
X17419Y6327D01*
X17420Y6326D01*
X17421Y6323D01*
X17428Y6313D01*
X17429Y6313D01*
X17429Y6312D01*
X17806Y5935D01*
X17810Y5933D01*
X17813Y5930D01*
X17815Y5929D01*
X17816Y5928D01*
X17820Y5926D01*
X17824Y5924D01*
X17825Y5924D01*
X17828Y5923D01*
X17840Y5921D01*
X17841Y5921D01*
X18821Y5921D01*
X20649Y4092D01*
X20652Y4090D01*
X20653Y4088D01*
X20656Y4087D01*
X20659Y4085D01*
X20662Y4083D01*
X20664Y4082D01*
X20667Y4081D01*
X20671Y4080D01*
X20673Y4079D01*
X20676Y4078D01*
X20679Y4078D01*
X20683Y4078D01*
X20686Y4078D01*
X20688Y4078D01*
X20692Y4079D01*
X20695Y4079D01*
X20698Y4080D01*
X20701Y4081D01*
X20704Y4082D01*
X20707Y4083D01*
X20709Y4085D01*
X20712Y4086D01*
X20714Y4088D01*
X20717Y4090D01*
X20719Y4093D01*
X20721Y4094D01*
X20723Y4097D01*
X20725Y4100D01*
X20726Y4102D01*
X20728Y4105D01*
X20729Y4108D01*
X20731Y4111D01*
X20731Y4114D01*
X20732Y4116D01*
X20733Y4120D01*
X20733Y4123D01*
X20733Y4126D01*
X20733Y4129D01*
X20733Y4131D01*
X20733Y4136D01*
X20730Y4144D01*
X20730Y4146D01*
X20710Y4192D01*
X20710Y4308D01*
X20754Y4414D01*
X20836Y4496D01*
X20942Y4540D01*
X21028Y4540D01*
X21032Y4540D01*
X21036Y4540D01*
X21038Y4541D01*
X21040Y4541D01*
X21044Y4543D01*
X21048Y4544D01*
X21049Y4545D01*
X21052Y4546D01*
X21062Y4553D01*
X21062Y4554D01*
X21063Y4554D01*
X21179Y4671D01*
X21571Y4671D01*
X22171Y4071D01*
X22171Y2929D01*
X21304Y2063D01*
X21301Y2059D01*
X21299Y2056D01*
X21298Y2054D01*
X21296Y2053D01*
X21295Y2049D01*
X21293Y2045D01*
X21293Y2044D01*
X21292Y2041D01*
X21290Y2029D01*
X21290Y2028D01*
X21290Y1942D01*
X21246Y1836D01*
X21164Y1754D01*
X21058Y1710D01*
X20942Y1710D01*
X20836Y1754D01*
X20754Y1836D01*
X20733Y1888D01*
X20730Y1893D01*
X20728Y1897D01*
X20727Y1898D01*
X20727Y1899D01*
X20723Y1903D01*
X20719Y1907D01*
X20718Y1907D01*
X20713Y1910D01*
X20709Y1913D01*
X20708Y1914D01*
X20702Y1915D01*
X20697Y1917D01*
X20696Y1917D01*
X20690Y1918D01*
X20685Y1918D01*
X20684Y1918D01*
X20683Y1918D01*
X20678Y1917D01*
X20672Y1916D01*
X20672Y1915D01*
X20671Y1915D01*
X20666Y1913D01*
X20661Y1910D01*
X20660Y1910D01*
X20656Y1906D01*
X20651Y1902D01*
X20644Y1891D01*
X20643Y1889D01*
X20642Y1888D01*
X20621Y1836D01*
X20539Y1754D01*
X20433Y1710D01*
X20317Y1710D01*
G37*
%LPD*%
%LPC*%
G36*
X11406Y529D02*
X11406Y529D01*
X11233Y601D01*
X11101Y733D01*
X11029Y906D01*
X11029Y1094D01*
X11101Y1267D01*
X11233Y1399D01*
X11406Y1471D01*
X11594Y1471D01*
X11767Y1399D01*
X11899Y1267D01*
X11954Y1133D01*
X11957Y1128D01*
X11960Y1123D01*
X11961Y1122D01*
X11965Y1118D01*
X11968Y1114D01*
X11969Y1114D01*
X11969Y1113D01*
X11974Y1110D01*
X11979Y1107D01*
X11980Y1107D01*
X11985Y1105D01*
X11991Y1103D01*
X11992Y1103D01*
X11997Y1103D01*
X12003Y1103D01*
X12004Y1103D01*
X12010Y1104D01*
X12015Y1105D01*
X12016Y1105D01*
X12021Y1108D01*
X12026Y1110D01*
X12027Y1111D01*
X12028Y1111D01*
X12032Y1115D01*
X12036Y1118D01*
X12036Y1119D01*
X12037Y1119D01*
X12044Y1129D01*
X12045Y1132D01*
X12045Y1133D01*
X12101Y1267D01*
X12233Y1399D01*
X12406Y1471D01*
X12594Y1471D01*
X12767Y1399D01*
X12899Y1267D01*
X12954Y1133D01*
X12957Y1128D01*
X12960Y1123D01*
X12961Y1122D01*
X12965Y1118D01*
X12968Y1114D01*
X12969Y1114D01*
X12969Y1113D01*
X12974Y1110D01*
X12979Y1107D01*
X12980Y1107D01*
X12985Y1105D01*
X12991Y1103D01*
X12992Y1103D01*
X12997Y1103D01*
X13003Y1103D01*
X13004Y1103D01*
X13010Y1104D01*
X13015Y1105D01*
X13016Y1105D01*
X13021Y1108D01*
X13026Y1110D01*
X13027Y1111D01*
X13028Y1111D01*
X13032Y1115D01*
X13036Y1118D01*
X13036Y1119D01*
X13037Y1119D01*
X13044Y1129D01*
X13045Y1132D01*
X13045Y1133D01*
X13101Y1267D01*
X13233Y1399D01*
X13406Y1471D01*
X13594Y1471D01*
X13767Y1399D01*
X13899Y1267D01*
X13954Y1133D01*
X13957Y1128D01*
X13960Y1123D01*
X13961Y1122D01*
X13965Y1118D01*
X13968Y1114D01*
X13969Y1114D01*
X13969Y1113D01*
X13974Y1110D01*
X13979Y1107D01*
X13980Y1107D01*
X13985Y1105D01*
X13991Y1103D01*
X13992Y1103D01*
X13997Y1103D01*
X14003Y1103D01*
X14004Y1103D01*
X14010Y1104D01*
X14015Y1105D01*
X14016Y1105D01*
X14021Y1108D01*
X14026Y1110D01*
X14027Y1111D01*
X14028Y1111D01*
X14032Y1115D01*
X14036Y1118D01*
X14036Y1119D01*
X14037Y1119D01*
X14044Y1129D01*
X14045Y1132D01*
X14045Y1133D01*
X14101Y1267D01*
X14233Y1399D01*
X14406Y1471D01*
X14594Y1471D01*
X14767Y1399D01*
X14899Y1267D01*
X14954Y1133D01*
X14957Y1128D01*
X14960Y1123D01*
X14961Y1122D01*
X14965Y1118D01*
X14968Y1114D01*
X14969Y1114D01*
X14969Y1113D01*
X14974Y1110D01*
X14979Y1107D01*
X14980Y1107D01*
X14985Y1105D01*
X14991Y1103D01*
X14992Y1103D01*
X14997Y1103D01*
X15003Y1103D01*
X15004Y1103D01*
X15010Y1104D01*
X15015Y1105D01*
X15016Y1105D01*
X15021Y1108D01*
X15026Y1110D01*
X15027Y1111D01*
X15028Y1111D01*
X15032Y1115D01*
X15036Y1118D01*
X15036Y1119D01*
X15037Y1119D01*
X15044Y1129D01*
X15045Y1132D01*
X15045Y1133D01*
X15101Y1267D01*
X15233Y1399D01*
X15406Y1471D01*
X15594Y1471D01*
X15767Y1399D01*
X15899Y1267D01*
X15954Y1133D01*
X15957Y1128D01*
X15960Y1123D01*
X15961Y1122D01*
X15965Y1118D01*
X15968Y1114D01*
X15969Y1114D01*
X15969Y1113D01*
X15974Y1110D01*
X15979Y1107D01*
X15980Y1107D01*
X15985Y1105D01*
X15991Y1103D01*
X15992Y1103D01*
X15997Y1103D01*
X16003Y1103D01*
X16004Y1103D01*
X16010Y1104D01*
X16015Y1105D01*
X16016Y1105D01*
X16021Y1108D01*
X16026Y1110D01*
X16027Y1111D01*
X16028Y1111D01*
X16032Y1115D01*
X16036Y1118D01*
X16036Y1119D01*
X16037Y1119D01*
X16044Y1129D01*
X16045Y1132D01*
X16045Y1133D01*
X16101Y1267D01*
X16233Y1399D01*
X16406Y1471D01*
X16594Y1471D01*
X16767Y1399D01*
X16899Y1267D01*
X16954Y1133D01*
X16957Y1128D01*
X16960Y1123D01*
X16961Y1122D01*
X16965Y1118D01*
X16968Y1114D01*
X16969Y1114D01*
X16969Y1113D01*
X16974Y1110D01*
X16979Y1107D01*
X16980Y1107D01*
X16985Y1105D01*
X16991Y1103D01*
X16992Y1103D01*
X16997Y1103D01*
X17003Y1103D01*
X17004Y1103D01*
X17010Y1104D01*
X17015Y1105D01*
X17016Y1105D01*
X17021Y1108D01*
X17026Y1110D01*
X17027Y1111D01*
X17028Y1111D01*
X17032Y1115D01*
X17036Y1118D01*
X17036Y1119D01*
X17037Y1119D01*
X17044Y1129D01*
X17045Y1132D01*
X17045Y1133D01*
X17101Y1267D01*
X17233Y1399D01*
X17406Y1471D01*
X17594Y1471D01*
X17767Y1399D01*
X17899Y1267D01*
X17954Y1133D01*
X17957Y1128D01*
X17960Y1123D01*
X17961Y1122D01*
X17965Y1118D01*
X17968Y1114D01*
X17969Y1114D01*
X17969Y1113D01*
X17974Y1110D01*
X17979Y1107D01*
X17980Y1107D01*
X17985Y1105D01*
X17991Y1103D01*
X17992Y1103D01*
X17997Y1103D01*
X18003Y1103D01*
X18004Y1103D01*
X18010Y1104D01*
X18015Y1105D01*
X18016Y1105D01*
X18021Y1108D01*
X18026Y1110D01*
X18027Y1111D01*
X18028Y1111D01*
X18032Y1115D01*
X18036Y1118D01*
X18036Y1119D01*
X18037Y1119D01*
X18044Y1129D01*
X18045Y1132D01*
X18045Y1133D01*
X18101Y1267D01*
X18233Y1399D01*
X18406Y1471D01*
X18594Y1471D01*
X18767Y1399D01*
X18899Y1267D01*
X18954Y1133D01*
X18957Y1128D01*
X18960Y1123D01*
X18961Y1122D01*
X18965Y1118D01*
X18968Y1114D01*
X18969Y1114D01*
X18969Y1113D01*
X18974Y1110D01*
X18979Y1107D01*
X18980Y1107D01*
X18985Y1105D01*
X18991Y1103D01*
X18992Y1103D01*
X18997Y1103D01*
X19003Y1103D01*
X19004Y1103D01*
X19010Y1104D01*
X19015Y1105D01*
X19016Y1105D01*
X19021Y1108D01*
X19026Y1110D01*
X19027Y1111D01*
X19028Y1111D01*
X19032Y1115D01*
X19036Y1118D01*
X19036Y1119D01*
X19037Y1119D01*
X19044Y1129D01*
X19045Y1132D01*
X19045Y1133D01*
X19101Y1267D01*
X19233Y1399D01*
X19406Y1471D01*
X19594Y1471D01*
X19767Y1399D01*
X19899Y1267D01*
X19954Y1133D01*
X19957Y1128D01*
X19960Y1123D01*
X19961Y1122D01*
X19965Y1118D01*
X19968Y1114D01*
X19969Y1114D01*
X19969Y1113D01*
X19974Y1110D01*
X19979Y1107D01*
X19980Y1107D01*
X19985Y1105D01*
X19991Y1103D01*
X19992Y1103D01*
X19997Y1103D01*
X20003Y1103D01*
X20004Y1103D01*
X20010Y1104D01*
X20015Y1105D01*
X20016Y1105D01*
X20021Y1108D01*
X20026Y1110D01*
X20027Y1111D01*
X20028Y1111D01*
X20032Y1115D01*
X20036Y1118D01*
X20036Y1119D01*
X20037Y1119D01*
X20044Y1129D01*
X20045Y1132D01*
X20045Y1133D01*
X20101Y1267D01*
X20233Y1399D01*
X20406Y1471D01*
X20594Y1471D01*
X20767Y1399D01*
X20899Y1267D01*
X20954Y1133D01*
X20957Y1128D01*
X20960Y1123D01*
X20961Y1122D01*
X20965Y1118D01*
X20968Y1114D01*
X20969Y1114D01*
X20969Y1113D01*
X20974Y1110D01*
X20979Y1107D01*
X20980Y1107D01*
X20985Y1105D01*
X20991Y1103D01*
X20992Y1103D01*
X20997Y1103D01*
X21003Y1103D01*
X21004Y1103D01*
X21010Y1104D01*
X21015Y1105D01*
X21016Y1105D01*
X21021Y1108D01*
X21026Y1110D01*
X21027Y1111D01*
X21028Y1111D01*
X21032Y1115D01*
X21036Y1118D01*
X21036Y1119D01*
X21037Y1119D01*
X21044Y1129D01*
X21045Y1132D01*
X21045Y1133D01*
X21101Y1267D01*
X21233Y1399D01*
X21406Y1471D01*
X21594Y1471D01*
X21767Y1399D01*
X21899Y1267D01*
X21968Y1101D01*
X21968Y1100D01*
X21969Y1099D01*
X21971Y1094D01*
X21974Y1090D01*
X21975Y1089D01*
X21975Y1088D01*
X21979Y1085D01*
X21983Y1081D01*
X21984Y1081D01*
X21985Y1080D01*
X21989Y1077D01*
X21993Y1075D01*
X21994Y1074D01*
X21996Y1074D01*
X22000Y1073D01*
X22005Y1071D01*
X22006Y1071D01*
X22008Y1071D01*
X22013Y1071D01*
X22017Y1071D01*
X22019Y1071D01*
X22020Y1071D01*
X22025Y1072D01*
X22030Y1073D01*
X22031Y1074D01*
X22032Y1074D01*
X22036Y1077D01*
X22041Y1079D01*
X22042Y1080D01*
X22043Y1080D01*
X22046Y1084D01*
X22050Y1087D01*
X22051Y1088D01*
X22052Y1089D01*
X22053Y1091D01*
X22057Y1097D01*
X22059Y1102D01*
X22060Y1105D01*
X22082Y1173D01*
X22114Y1236D01*
X22156Y1294D01*
X22206Y1344D01*
X22264Y1386D01*
X22327Y1418D01*
X22394Y1440D01*
X22402Y1441D01*
X22402Y1048D01*
X22403Y1044D01*
X22403Y1039D01*
X22404Y1037D01*
X22404Y1036D01*
X22406Y1032D01*
X22407Y1027D01*
X22408Y1026D01*
X22408Y1025D01*
X22411Y1021D01*
X22414Y1016D01*
X22415Y1016D01*
X22416Y1015D01*
X22420Y1011D01*
X22423Y1008D01*
X22424Y1007D01*
X22425Y1007D01*
X22430Y1005D01*
X22434Y1002D01*
X22435Y1002D01*
X22437Y1001D01*
X22445Y1000D01*
X22442Y1000D01*
X22441Y999D01*
X22439Y999D01*
X22435Y997D01*
X22430Y996D01*
X22429Y995D01*
X22428Y995D01*
X22424Y992D01*
X22420Y989D01*
X22419Y988D01*
X22418Y987D01*
X22415Y983D01*
X22411Y980D01*
X22411Y979D01*
X22410Y978D01*
X22408Y973D01*
X22405Y969D01*
X22405Y968D01*
X22405Y966D01*
X22402Y954D01*
X22403Y953D01*
X22402Y952D01*
X22402Y559D01*
X22394Y560D01*
X22327Y582D01*
X22264Y614D01*
X22206Y656D01*
X22156Y706D01*
X22114Y764D01*
X22082Y827D01*
X22060Y895D01*
X22059Y897D01*
X22059Y898D01*
X22057Y902D01*
X22055Y907D01*
X22054Y908D01*
X22053Y909D01*
X22050Y912D01*
X22047Y916D01*
X22046Y917D01*
X22045Y918D01*
X22041Y921D01*
X22037Y923D01*
X22036Y924D01*
X22034Y925D01*
X22030Y926D01*
X22025Y928D01*
X22024Y928D01*
X22023Y929D01*
X22018Y929D01*
X22013Y929D01*
X22011Y929D01*
X22010Y929D01*
X22005Y928D01*
X22000Y928D01*
X21999Y927D01*
X21998Y927D01*
X21994Y925D01*
X21989Y923D01*
X21988Y922D01*
X21987Y922D01*
X21983Y919D01*
X21979Y916D01*
X21978Y915D01*
X21977Y914D01*
X21976Y912D01*
X21971Y906D01*
X21969Y901D01*
X21968Y899D01*
X21899Y733D01*
X21767Y601D01*
X21594Y529D01*
X21406Y529D01*
X21233Y601D01*
X21101Y733D01*
X21045Y867D01*
X21043Y872D01*
X21040Y877D01*
X21039Y878D01*
X21035Y882D01*
X21032Y886D01*
X21031Y886D01*
X21031Y887D01*
X21026Y890D01*
X21021Y893D01*
X21020Y893D01*
X21015Y895D01*
X21009Y897D01*
X21008Y897D01*
X21003Y897D01*
X20997Y897D01*
X20996Y897D01*
X20990Y896D01*
X20985Y895D01*
X20984Y895D01*
X20979Y892D01*
X20974Y890D01*
X20973Y889D01*
X20972Y889D01*
X20968Y885D01*
X20964Y882D01*
X20964Y881D01*
X20963Y881D01*
X20956Y871D01*
X20955Y868D01*
X20954Y867D01*
X20899Y733D01*
X20767Y601D01*
X20594Y529D01*
X20406Y529D01*
X20233Y601D01*
X20101Y733D01*
X20045Y867D01*
X20043Y872D01*
X20040Y877D01*
X20039Y878D01*
X20035Y882D01*
X20032Y886D01*
X20031Y886D01*
X20031Y887D01*
X20026Y890D01*
X20021Y893D01*
X20020Y893D01*
X20015Y895D01*
X20009Y897D01*
X20008Y897D01*
X20003Y897D01*
X19997Y897D01*
X19996Y897D01*
X19990Y896D01*
X19985Y895D01*
X19984Y895D01*
X19979Y892D01*
X19974Y890D01*
X19973Y889D01*
X19972Y889D01*
X19968Y885D01*
X19964Y882D01*
X19964Y881D01*
X19963Y881D01*
X19956Y871D01*
X19955Y868D01*
X19954Y867D01*
X19899Y733D01*
X19767Y601D01*
X19594Y529D01*
X19406Y529D01*
X19233Y601D01*
X19101Y733D01*
X19045Y867D01*
X19043Y872D01*
X19040Y877D01*
X19039Y878D01*
X19035Y882D01*
X19032Y886D01*
X19031Y886D01*
X19031Y887D01*
X19026Y890D01*
X19021Y893D01*
X19020Y893D01*
X19015Y895D01*
X19009Y897D01*
X19008Y897D01*
X19003Y897D01*
X18997Y897D01*
X18996Y897D01*
X18990Y896D01*
X18985Y895D01*
X18984Y895D01*
X18979Y892D01*
X18974Y890D01*
X18973Y889D01*
X18972Y889D01*
X18968Y885D01*
X18964Y882D01*
X18964Y881D01*
X18963Y881D01*
X18956Y871D01*
X18955Y868D01*
X18954Y867D01*
X18899Y733D01*
X18767Y601D01*
X18594Y529D01*
X18406Y529D01*
X18233Y601D01*
X18101Y733D01*
X18045Y867D01*
X18043Y872D01*
X18040Y877D01*
X18039Y878D01*
X18035Y882D01*
X18032Y886D01*
X18031Y886D01*
X18031Y887D01*
X18026Y890D01*
X18021Y893D01*
X18020Y893D01*
X18015Y895D01*
X18009Y897D01*
X18008Y897D01*
X18003Y897D01*
X17997Y897D01*
X17996Y897D01*
X17990Y896D01*
X17985Y895D01*
X17984Y895D01*
X17979Y892D01*
X17974Y890D01*
X17973Y889D01*
X17972Y889D01*
X17968Y885D01*
X17964Y882D01*
X17964Y881D01*
X17963Y881D01*
X17956Y871D01*
X17955Y868D01*
X17954Y867D01*
X17899Y733D01*
X17767Y601D01*
X17594Y529D01*
X17406Y529D01*
X17233Y601D01*
X17101Y733D01*
X17045Y867D01*
X17043Y872D01*
X17040Y877D01*
X17039Y878D01*
X17035Y882D01*
X17032Y886D01*
X17031Y886D01*
X17031Y887D01*
X17026Y890D01*
X17021Y893D01*
X17020Y893D01*
X17015Y895D01*
X17009Y897D01*
X17008Y897D01*
X17003Y897D01*
X16997Y897D01*
X16996Y897D01*
X16990Y896D01*
X16985Y895D01*
X16984Y895D01*
X16979Y892D01*
X16974Y890D01*
X16973Y889D01*
X16972Y889D01*
X16968Y885D01*
X16964Y882D01*
X16964Y881D01*
X16963Y881D01*
X16956Y871D01*
X16955Y868D01*
X16954Y867D01*
X16899Y733D01*
X16767Y601D01*
X16594Y529D01*
X16406Y529D01*
X16233Y601D01*
X16101Y733D01*
X16045Y867D01*
X16043Y872D01*
X16040Y877D01*
X16039Y878D01*
X16035Y882D01*
X16032Y886D01*
X16031Y886D01*
X16031Y887D01*
X16026Y890D01*
X16021Y893D01*
X16020Y893D01*
X16015Y895D01*
X16009Y897D01*
X16008Y897D01*
X16003Y897D01*
X15997Y897D01*
X15996Y897D01*
X15990Y896D01*
X15985Y895D01*
X15984Y895D01*
X15979Y892D01*
X15974Y890D01*
X15973Y889D01*
X15972Y889D01*
X15968Y885D01*
X15964Y882D01*
X15964Y881D01*
X15963Y881D01*
X15956Y871D01*
X15955Y868D01*
X15954Y867D01*
X15899Y733D01*
X15767Y601D01*
X15594Y529D01*
X15406Y529D01*
X15233Y601D01*
X15101Y733D01*
X15045Y867D01*
X15043Y872D01*
X15040Y877D01*
X15039Y878D01*
X15035Y882D01*
X15032Y886D01*
X15031Y886D01*
X15031Y887D01*
X15026Y890D01*
X15021Y893D01*
X15020Y893D01*
X15015Y895D01*
X15009Y897D01*
X15008Y897D01*
X15003Y897D01*
X14997Y897D01*
X14996Y897D01*
X14990Y896D01*
X14985Y895D01*
X14984Y895D01*
X14979Y892D01*
X14974Y890D01*
X14973Y889D01*
X14972Y889D01*
X14968Y885D01*
X14964Y882D01*
X14964Y881D01*
X14963Y881D01*
X14956Y871D01*
X14955Y868D01*
X14954Y867D01*
X14899Y733D01*
X14767Y601D01*
X14594Y529D01*
X14406Y529D01*
X14233Y601D01*
X14101Y733D01*
X14045Y867D01*
X14043Y872D01*
X14040Y877D01*
X14039Y878D01*
X14035Y882D01*
X14032Y886D01*
X14031Y886D01*
X14031Y887D01*
X14026Y890D01*
X14021Y893D01*
X14020Y893D01*
X14015Y895D01*
X14009Y897D01*
X14008Y897D01*
X14003Y897D01*
X13997Y897D01*
X13996Y897D01*
X13990Y896D01*
X13985Y895D01*
X13984Y895D01*
X13979Y892D01*
X13974Y890D01*
X13973Y889D01*
X13972Y889D01*
X13968Y885D01*
X13964Y882D01*
X13964Y881D01*
X13963Y881D01*
X13956Y871D01*
X13955Y868D01*
X13954Y867D01*
X13899Y733D01*
X13767Y601D01*
X13594Y529D01*
X13406Y529D01*
X13233Y601D01*
X13101Y733D01*
X13045Y867D01*
X13043Y872D01*
X13040Y877D01*
X13039Y878D01*
X13035Y882D01*
X13032Y886D01*
X13031Y886D01*
X13031Y887D01*
X13026Y890D01*
X13021Y893D01*
X13020Y893D01*
X13015Y895D01*
X13009Y897D01*
X13008Y897D01*
X13003Y897D01*
X12997Y897D01*
X12996Y897D01*
X12990Y896D01*
X12985Y895D01*
X12984Y895D01*
X12979Y892D01*
X12974Y890D01*
X12973Y889D01*
X12972Y889D01*
X12968Y885D01*
X12964Y882D01*
X12964Y881D01*
X12963Y881D01*
X12956Y871D01*
X12955Y868D01*
X12954Y867D01*
X12899Y733D01*
X12767Y601D01*
X12594Y529D01*
X12406Y529D01*
X12233Y601D01*
X12101Y733D01*
X12045Y867D01*
X12043Y872D01*
X12040Y877D01*
X12039Y878D01*
X12035Y882D01*
X12032Y886D01*
X12031Y886D01*
X12031Y887D01*
X12026Y890D01*
X12021Y893D01*
X12020Y893D01*
X12015Y895D01*
X12009Y897D01*
X12008Y897D01*
X12003Y897D01*
X11997Y897D01*
X11996Y897D01*
X11990Y896D01*
X11985Y895D01*
X11984Y895D01*
X11979Y892D01*
X11974Y890D01*
X11973Y889D01*
X11972Y889D01*
X11968Y885D01*
X11964Y882D01*
X11964Y881D01*
X11963Y881D01*
X11956Y871D01*
X11955Y868D01*
X11954Y867D01*
X11899Y733D01*
X11767Y601D01*
X11594Y529D01*
X11406Y529D01*
G37*
%LPD*%
%LPC*%
G36*
X11499Y2499D02*
X11499Y2499D01*
X11499Y2550D01*
X11499Y2555D01*
X11498Y2560D01*
X11498Y2561D01*
X11498Y2562D01*
X11496Y2567D01*
X11494Y2572D01*
X11494Y2573D01*
X11493Y2574D01*
X11490Y2578D01*
X11487Y2582D01*
X11486Y2583D01*
X11486Y2584D01*
X11482Y2587D01*
X11478Y2590D01*
X11477Y2591D01*
X11476Y2592D01*
X11472Y2594D01*
X11467Y2596D01*
X11466Y2596D01*
X11465Y2597D01*
X11453Y2599D01*
X11451Y2599D01*
X11450Y2599D01*
X11039Y2599D01*
X11041Y2610D01*
X11064Y2681D01*
X11097Y2747D01*
X11141Y2807D01*
X11193Y2859D01*
X11253Y2903D01*
X11319Y2936D01*
X11338Y2942D01*
X11339Y2943D01*
X11340Y2943D01*
X11344Y2945D01*
X11349Y2948D01*
X11350Y2948D01*
X11351Y2949D01*
X11355Y2952D01*
X11358Y2955D01*
X11359Y2957D01*
X11360Y2957D01*
X11363Y2962D01*
X11366Y2966D01*
X11366Y2967D01*
X11367Y2968D01*
X11368Y2973D01*
X11370Y2977D01*
X11370Y2978D01*
X11371Y2980D01*
X11371Y2985D01*
X11372Y2989D01*
X11371Y2991D01*
X11372Y2992D01*
X11371Y2997D01*
X11370Y3002D01*
X11370Y3003D01*
X11369Y3004D01*
X11367Y3009D01*
X11365Y3013D01*
X11365Y3014D01*
X11364Y3016D01*
X11361Y3019D01*
X11358Y3023D01*
X11357Y3024D01*
X11356Y3025D01*
X11354Y3026D01*
X11348Y3031D01*
X11343Y3033D01*
X11341Y3035D01*
X11222Y3084D01*
X11084Y3222D01*
X11009Y3402D01*
X11009Y3598D01*
X11084Y3778D01*
X11222Y3916D01*
X11315Y3954D01*
X11320Y3957D01*
X11325Y3960D01*
X11326Y3961D01*
X11330Y3965D01*
X11334Y3968D01*
X11334Y3969D01*
X11335Y3969D01*
X11337Y3974D01*
X11340Y3979D01*
X11341Y3979D01*
X11341Y3980D01*
X11343Y3985D01*
X11344Y3991D01*
X11345Y3992D01*
X11345Y3997D01*
X11345Y4003D01*
X11345Y4004D01*
X11344Y4010D01*
X11343Y4015D01*
X11343Y4016D01*
X11342Y4016D01*
X11340Y4021D01*
X11338Y4026D01*
X11337Y4027D01*
X11337Y4028D01*
X11333Y4032D01*
X11330Y4036D01*
X11329Y4036D01*
X11329Y4037D01*
X11318Y4044D01*
X11316Y4045D01*
X11315Y4045D01*
X11222Y4084D01*
X11084Y4222D01*
X11009Y4402D01*
X11009Y4606D01*
X11009Y4612D01*
X11008Y4618D01*
X11008Y4619D01*
X11006Y4624D01*
X11004Y4629D01*
X11003Y4630D01*
X11000Y4635D01*
X10997Y4639D01*
X10996Y4640D01*
X10991Y4644D01*
X10987Y4648D01*
X10986Y4648D01*
X10981Y4651D01*
X10976Y4653D01*
X10975Y4653D01*
X10969Y4654D01*
X10964Y4656D01*
X10963Y4656D01*
X10957Y4655D01*
X10951Y4655D01*
X10950Y4655D01*
X10945Y4653D01*
X10940Y4651D01*
X10939Y4651D01*
X10938Y4651D01*
X10928Y4644D01*
X10926Y4642D01*
X10925Y4641D01*
X10755Y4471D01*
X10754Y4470D01*
X10753Y4469D01*
X10750Y4465D01*
X10748Y4462D01*
X10747Y4461D01*
X10747Y4460D01*
X10746Y4459D01*
X10744Y4454D01*
X10743Y4451D01*
X10743Y4450D01*
X10742Y4450D01*
X10742Y4448D01*
X10742Y4447D01*
X10741Y4442D01*
X10741Y4439D01*
X10741Y4438D01*
X10740Y4437D01*
X10741Y4436D01*
X10740Y4434D01*
X10741Y4432D01*
X10741Y4430D01*
X10741Y4426D01*
X10742Y4426D01*
X10742Y4425D01*
X10744Y4420D01*
X10744Y4417D01*
X10790Y4308D01*
X10790Y4192D01*
X10746Y4086D01*
X10664Y4004D01*
X10558Y3960D01*
X10442Y3960D01*
X10336Y4004D01*
X10254Y4086D01*
X10210Y4192D01*
X10210Y4308D01*
X10254Y4414D01*
X10285Y4444D01*
X10287Y4448D01*
X10290Y4451D01*
X10291Y4453D01*
X10292Y4454D01*
X10294Y4458D01*
X10296Y4462D01*
X10296Y4463D01*
X10297Y4466D01*
X10299Y4478D01*
X10299Y4479D01*
X10299Y4540D01*
X10330Y4614D01*
X11018Y5302D01*
X11019Y5303D01*
X11020Y5304D01*
X11023Y5308D01*
X11026Y5312D01*
X11026Y5313D01*
X11027Y5314D01*
X11029Y5319D01*
X11030Y5323D01*
X11031Y5325D01*
X11031Y5326D01*
X11032Y5331D01*
X11032Y5335D01*
X11032Y5337D01*
X11032Y5338D01*
X11032Y5341D01*
X11031Y5348D01*
X11029Y5353D01*
X11029Y5356D01*
X11009Y5402D01*
X11009Y5598D01*
X11084Y5778D01*
X11222Y5916D01*
X11402Y5991D01*
X11598Y5991D01*
X11778Y5916D01*
X11916Y5778D01*
X11991Y5598D01*
X11991Y5402D01*
X11916Y5222D01*
X11778Y5084D01*
X11685Y5045D01*
X11680Y5043D01*
X11675Y5040D01*
X11674Y5039D01*
X11670Y5035D01*
X11666Y5032D01*
X11666Y5031D01*
X11665Y5031D01*
X11663Y5026D01*
X11660Y5021D01*
X11659Y5021D01*
X11659Y5020D01*
X11657Y5015D01*
X11656Y5009D01*
X11655Y5008D01*
X11655Y5003D01*
X11655Y4997D01*
X11655Y4996D01*
X11656Y4990D01*
X11657Y4985D01*
X11657Y4984D01*
X11658Y4984D01*
X11660Y4979D01*
X11662Y4974D01*
X11663Y4973D01*
X11663Y4972D01*
X11667Y4968D01*
X11670Y4964D01*
X11671Y4964D01*
X11671Y4963D01*
X11682Y4956D01*
X11684Y4955D01*
X11685Y4954D01*
X11778Y4916D01*
X11916Y4778D01*
X11991Y4598D01*
X11991Y4402D01*
X11916Y4222D01*
X11778Y4084D01*
X11685Y4045D01*
X11680Y4043D01*
X11675Y4040D01*
X11674Y4039D01*
X11670Y4035D01*
X11666Y4032D01*
X11666Y4031D01*
X11665Y4031D01*
X11663Y4026D01*
X11660Y4021D01*
X11659Y4021D01*
X11659Y4020D01*
X11657Y4015D01*
X11656Y4009D01*
X11655Y4008D01*
X11655Y4003D01*
X11655Y3997D01*
X11655Y3996D01*
X11656Y3990D01*
X11657Y3985D01*
X11657Y3984D01*
X11658Y3984D01*
X11660Y3979D01*
X11662Y3974D01*
X11663Y3973D01*
X11663Y3972D01*
X11667Y3968D01*
X11670Y3964D01*
X11671Y3964D01*
X11671Y3963D01*
X11682Y3956D01*
X11684Y3955D01*
X11685Y3954D01*
X11778Y3916D01*
X11916Y3778D01*
X11991Y3598D01*
X11991Y3402D01*
X11916Y3222D01*
X11778Y3084D01*
X11659Y3035D01*
X11658Y3034D01*
X11656Y3034D01*
X11652Y3031D01*
X11648Y3028D01*
X11647Y3027D01*
X11646Y3027D01*
X11643Y3023D01*
X11639Y3020D01*
X11638Y3019D01*
X11637Y3018D01*
X11635Y3013D01*
X11633Y3009D01*
X11632Y3008D01*
X11632Y3007D01*
X11630Y3002D01*
X11629Y2997D01*
X11629Y2996D01*
X11629Y2995D01*
X11629Y2990D01*
X11629Y2985D01*
X11629Y2984D01*
X11629Y2982D01*
X11630Y2977D01*
X11631Y2973D01*
X11632Y2971D01*
X11632Y2970D01*
X11635Y2966D01*
X11637Y2962D01*
X11638Y2961D01*
X11638Y2959D01*
X11642Y2956D01*
X11645Y2952D01*
X11646Y2951D01*
X11647Y2951D01*
X11649Y2949D01*
X11655Y2945D01*
X11660Y2943D01*
X11662Y2942D01*
X11681Y2936D01*
X11747Y2903D01*
X11807Y2859D01*
X11859Y2807D01*
X11903Y2747D01*
X11936Y2681D01*
X11959Y2610D01*
X11961Y2599D01*
X11550Y2599D01*
X11545Y2599D01*
X11540Y2598D01*
X11539Y2598D01*
X11538Y2598D01*
X11533Y2596D01*
X11528Y2594D01*
X11527Y2594D01*
X11526Y2593D01*
X11522Y2590D01*
X11518Y2587D01*
X11517Y2586D01*
X11516Y2586D01*
X11513Y2582D01*
X11510Y2578D01*
X11509Y2577D01*
X11508Y2576D01*
X11506Y2572D01*
X11504Y2567D01*
X11504Y2566D01*
X11503Y2565D01*
X11501Y2553D01*
X11501Y2551D01*
X11501Y2550D01*
X11501Y2499D01*
X11499Y2499D01*
G37*
%LPD*%
%LPC*%
G36*
X23406Y529D02*
X23406Y529D01*
X23233Y601D01*
X23101Y733D01*
X23032Y899D01*
X23032Y900D01*
X23031Y901D01*
X23029Y906D01*
X23026Y910D01*
X23025Y911D01*
X23025Y912D01*
X23021Y915D01*
X23017Y919D01*
X23016Y919D01*
X23015Y920D01*
X23011Y923D01*
X23007Y925D01*
X23006Y926D01*
X23004Y926D01*
X23000Y927D01*
X22995Y929D01*
X22994Y929D01*
X22992Y929D01*
X22987Y929D01*
X22983Y929D01*
X22981Y929D01*
X22980Y929D01*
X22975Y928D01*
X22970Y927D01*
X22969Y926D01*
X22968Y926D01*
X22964Y923D01*
X22959Y921D01*
X22958Y920D01*
X22957Y920D01*
X22954Y916D01*
X22950Y913D01*
X22949Y912D01*
X22948Y911D01*
X22947Y909D01*
X22943Y903D01*
X22941Y898D01*
X22940Y895D01*
X22918Y827D01*
X22886Y764D01*
X22844Y706D01*
X22794Y656D01*
X22736Y614D01*
X22673Y582D01*
X22606Y560D01*
X22598Y559D01*
X22598Y952D01*
X22597Y956D01*
X22597Y961D01*
X22596Y963D01*
X22596Y964D01*
X22594Y968D01*
X22593Y973D01*
X22592Y974D01*
X22592Y975D01*
X22589Y979D01*
X22586Y984D01*
X22585Y984D01*
X22584Y985D01*
X22580Y989D01*
X22577Y992D01*
X22576Y993D01*
X22575Y993D01*
X22570Y995D01*
X22566Y998D01*
X22565Y998D01*
X22563Y999D01*
X22555Y1000D01*
X22558Y1000D01*
X22559Y1001D01*
X22561Y1001D01*
X22565Y1003D01*
X22570Y1004D01*
X22571Y1005D01*
X22572Y1005D01*
X22576Y1008D01*
X22580Y1011D01*
X22581Y1012D01*
X22582Y1013D01*
X22585Y1017D01*
X22589Y1020D01*
X22589Y1021D01*
X22590Y1022D01*
X22592Y1027D01*
X22595Y1031D01*
X22595Y1032D01*
X22595Y1034D01*
X22598Y1046D01*
X22597Y1047D01*
X22598Y1048D01*
X22598Y1441D01*
X22606Y1440D01*
X22673Y1418D01*
X22736Y1386D01*
X22794Y1344D01*
X22844Y1294D01*
X22886Y1236D01*
X22918Y1173D01*
X22940Y1105D01*
X22941Y1103D01*
X22941Y1102D01*
X22943Y1098D01*
X22945Y1093D01*
X22946Y1092D01*
X22947Y1091D01*
X22950Y1088D01*
X22953Y1084D01*
X22954Y1083D01*
X22955Y1082D01*
X22959Y1079D01*
X22963Y1077D01*
X22964Y1076D01*
X22966Y1075D01*
X22970Y1074D01*
X22975Y1072D01*
X22976Y1072D01*
X22977Y1071D01*
X22982Y1071D01*
X22987Y1071D01*
X22989Y1071D01*
X22990Y1071D01*
X22995Y1072D01*
X23000Y1072D01*
X23001Y1073D01*
X23002Y1073D01*
X23006Y1075D01*
X23011Y1077D01*
X23012Y1078D01*
X23013Y1078D01*
X23017Y1081D01*
X23021Y1084D01*
X23022Y1085D01*
X23023Y1086D01*
X23024Y1088D01*
X23029Y1094D01*
X23031Y1099D01*
X23032Y1101D01*
X23101Y1267D01*
X23233Y1399D01*
X23406Y1471D01*
X23594Y1471D01*
X23767Y1399D01*
X23899Y1267D01*
X23954Y1133D01*
X23957Y1128D01*
X23960Y1123D01*
X23961Y1122D01*
X23965Y1118D01*
X23968Y1114D01*
X23969Y1114D01*
X23969Y1113D01*
X23974Y1110D01*
X23979Y1107D01*
X23980Y1107D01*
X23985Y1105D01*
X23991Y1103D01*
X23992Y1103D01*
X23997Y1103D01*
X24003Y1103D01*
X24004Y1103D01*
X24010Y1104D01*
X24015Y1105D01*
X24016Y1105D01*
X24021Y1108D01*
X24026Y1110D01*
X24027Y1111D01*
X24028Y1111D01*
X24032Y1115D01*
X24036Y1118D01*
X24036Y1119D01*
X24037Y1119D01*
X24044Y1129D01*
X24045Y1132D01*
X24045Y1133D01*
X24101Y1267D01*
X24233Y1399D01*
X24406Y1471D01*
X24594Y1471D01*
X24767Y1399D01*
X24899Y1267D01*
X24954Y1133D01*
X24957Y1128D01*
X24960Y1123D01*
X24961Y1122D01*
X24965Y1118D01*
X24968Y1114D01*
X24969Y1114D01*
X24969Y1113D01*
X24974Y1110D01*
X24979Y1107D01*
X24980Y1107D01*
X24985Y1105D01*
X24991Y1103D01*
X24992Y1103D01*
X24997Y1103D01*
X25003Y1103D01*
X25004Y1103D01*
X25010Y1104D01*
X25015Y1105D01*
X25016Y1105D01*
X25021Y1108D01*
X25026Y1110D01*
X25027Y1111D01*
X25028Y1111D01*
X25032Y1115D01*
X25036Y1118D01*
X25036Y1119D01*
X25037Y1119D01*
X25044Y1129D01*
X25045Y1132D01*
X25045Y1133D01*
X25101Y1267D01*
X25233Y1399D01*
X25406Y1471D01*
X25594Y1471D01*
X25767Y1399D01*
X25899Y1267D01*
X25971Y1094D01*
X25971Y906D01*
X25899Y733D01*
X25767Y601D01*
X25594Y529D01*
X25406Y529D01*
X25233Y601D01*
X25101Y733D01*
X25045Y867D01*
X25043Y872D01*
X25040Y877D01*
X25039Y878D01*
X25035Y882D01*
X25032Y886D01*
X25031Y886D01*
X25031Y887D01*
X25026Y890D01*
X25021Y893D01*
X25020Y893D01*
X25015Y895D01*
X25009Y897D01*
X25008Y897D01*
X25003Y897D01*
X24997Y897D01*
X24996Y897D01*
X24990Y896D01*
X24985Y895D01*
X24984Y895D01*
X24979Y892D01*
X24974Y890D01*
X24973Y889D01*
X24972Y889D01*
X24968Y885D01*
X24964Y882D01*
X24964Y881D01*
X24963Y881D01*
X24956Y871D01*
X24955Y868D01*
X24954Y867D01*
X24899Y733D01*
X24767Y601D01*
X24594Y529D01*
X24406Y529D01*
X24233Y601D01*
X24101Y733D01*
X24045Y867D01*
X24043Y872D01*
X24040Y877D01*
X24039Y878D01*
X24035Y882D01*
X24032Y886D01*
X24031Y886D01*
X24031Y887D01*
X24026Y890D01*
X24021Y893D01*
X24020Y893D01*
X24015Y895D01*
X24009Y897D01*
X24008Y897D01*
X24003Y897D01*
X23997Y897D01*
X23996Y897D01*
X23990Y896D01*
X23985Y895D01*
X23984Y895D01*
X23979Y892D01*
X23974Y890D01*
X23973Y889D01*
X23972Y889D01*
X23968Y885D01*
X23964Y882D01*
X23964Y881D01*
X23963Y881D01*
X23956Y871D01*
X23955Y868D01*
X23954Y867D01*
X23899Y733D01*
X23767Y601D01*
X23594Y529D01*
X23406Y529D01*
G37*
%LPD*%
%LPC*%
G36*
X30849Y5239D02*
X30849Y5239D01*
X30569Y5355D01*
X30355Y5569D01*
X30239Y5849D01*
X30239Y6151D01*
X30355Y6431D01*
X30569Y6645D01*
X30849Y6761D01*
X31151Y6761D01*
X31431Y6645D01*
X31645Y6431D01*
X31761Y6151D01*
X31761Y5849D01*
X31645Y5569D01*
X31431Y5355D01*
X31151Y5239D01*
X30849Y5239D01*
G37*
%LPD*%
%LPC*%
G36*
X30849Y1239D02*
X30849Y1239D01*
X30569Y1355D01*
X30355Y1569D01*
X30239Y1849D01*
X30239Y2151D01*
X30355Y2431D01*
X30569Y2645D01*
X30849Y2761D01*
X31151Y2761D01*
X31431Y2645D01*
X31645Y2431D01*
X31761Y2151D01*
X31761Y1849D01*
X31645Y1569D01*
X31431Y1355D01*
X31151Y1239D01*
X30849Y1239D01*
G37*
%LPD*%
%LPC*%
G36*
X3249Y2999D02*
X3249Y2999D01*
X3249Y3050D01*
X3249Y3055D01*
X3248Y3060D01*
X3248Y3061D01*
X3248Y3062D01*
X3246Y3067D01*
X3244Y3072D01*
X3244Y3073D01*
X3243Y3074D01*
X3240Y3078D01*
X3237Y3082D01*
X3236Y3083D01*
X3236Y3084D01*
X3232Y3087D01*
X3228Y3090D01*
X3227Y3091D01*
X3226Y3092D01*
X3222Y3094D01*
X3217Y3096D01*
X3216Y3096D01*
X3215Y3097D01*
X3203Y3099D01*
X3201Y3099D01*
X3200Y3099D01*
X2789Y3099D01*
X2791Y3110D01*
X2814Y3181D01*
X2847Y3247D01*
X2891Y3307D01*
X2943Y3359D01*
X3003Y3403D01*
X3069Y3436D01*
X3088Y3442D01*
X3089Y3443D01*
X3090Y3443D01*
X3094Y3445D01*
X3099Y3448D01*
X3100Y3448D01*
X3101Y3449D01*
X3105Y3452D01*
X3108Y3455D01*
X3109Y3457D01*
X3110Y3457D01*
X3113Y3462D01*
X3116Y3466D01*
X3116Y3467D01*
X3117Y3468D01*
X3118Y3473D01*
X3120Y3477D01*
X3120Y3478D01*
X3121Y3480D01*
X3121Y3485D01*
X3122Y3489D01*
X3121Y3491D01*
X3122Y3492D01*
X3121Y3497D01*
X3120Y3502D01*
X3120Y3503D01*
X3119Y3504D01*
X3117Y3509D01*
X3115Y3513D01*
X3115Y3514D01*
X3114Y3516D01*
X3111Y3519D01*
X3108Y3523D01*
X3107Y3524D01*
X3106Y3525D01*
X3104Y3526D01*
X3098Y3531D01*
X3093Y3533D01*
X3091Y3535D01*
X2972Y3584D01*
X2834Y3722D01*
X2759Y3902D01*
X2759Y4098D01*
X2834Y4278D01*
X2972Y4416D01*
X3065Y4454D01*
X3070Y4457D01*
X3075Y4460D01*
X3076Y4461D01*
X3080Y4465D01*
X3084Y4468D01*
X3084Y4469D01*
X3085Y4469D01*
X3087Y4474D01*
X3090Y4479D01*
X3091Y4479D01*
X3091Y4480D01*
X3093Y4485D01*
X3094Y4491D01*
X3095Y4492D01*
X3095Y4497D01*
X3095Y4503D01*
X3095Y4504D01*
X3094Y4510D01*
X3093Y4515D01*
X3093Y4516D01*
X3092Y4516D01*
X3090Y4521D01*
X3088Y4526D01*
X3087Y4527D01*
X3087Y4528D01*
X3083Y4532D01*
X3080Y4536D01*
X3079Y4536D01*
X3079Y4537D01*
X3068Y4544D01*
X3066Y4545D01*
X3065Y4545D01*
X2972Y4584D01*
X2834Y4722D01*
X2759Y4902D01*
X2759Y5098D01*
X2834Y5278D01*
X2972Y5416D01*
X3152Y5491D01*
X3348Y5491D01*
X3528Y5416D01*
X3666Y5278D01*
X3741Y5098D01*
X3741Y4902D01*
X3666Y4722D01*
X3528Y4584D01*
X3435Y4545D01*
X3430Y4543D01*
X3425Y4540D01*
X3424Y4539D01*
X3420Y4535D01*
X3416Y4532D01*
X3416Y4531D01*
X3415Y4531D01*
X3413Y4526D01*
X3410Y4521D01*
X3409Y4521D01*
X3409Y4520D01*
X3407Y4515D01*
X3406Y4509D01*
X3405Y4508D01*
X3405Y4503D01*
X3405Y4497D01*
X3405Y4496D01*
X3406Y4490D01*
X3407Y4485D01*
X3407Y4484D01*
X3408Y4484D01*
X3410Y4479D01*
X3412Y4474D01*
X3413Y4473D01*
X3413Y4472D01*
X3417Y4468D01*
X3420Y4464D01*
X3421Y4464D01*
X3421Y4463D01*
X3432Y4456D01*
X3434Y4455D01*
X3435Y4454D01*
X3528Y4416D01*
X3666Y4278D01*
X3741Y4098D01*
X3741Y3902D01*
X3666Y3722D01*
X3528Y3584D01*
X3409Y3535D01*
X3408Y3534D01*
X3406Y3534D01*
X3402Y3531D01*
X3398Y3528D01*
X3397Y3527D01*
X3396Y3527D01*
X3393Y3523D01*
X3389Y3520D01*
X3388Y3519D01*
X3387Y3518D01*
X3385Y3513D01*
X3383Y3509D01*
X3382Y3508D01*
X3382Y3507D01*
X3380Y3502D01*
X3379Y3497D01*
X3379Y3496D01*
X3379Y3495D01*
X3379Y3490D01*
X3379Y3485D01*
X3379Y3484D01*
X3379Y3482D01*
X3380Y3477D01*
X3381Y3473D01*
X3382Y3471D01*
X3382Y3470D01*
X3385Y3466D01*
X3387Y3462D01*
X3388Y3461D01*
X3388Y3459D01*
X3392Y3456D01*
X3395Y3452D01*
X3396Y3451D01*
X3397Y3451D01*
X3399Y3449D01*
X3405Y3445D01*
X3410Y3443D01*
X3412Y3442D01*
X3431Y3436D01*
X3497Y3403D01*
X3557Y3359D01*
X3609Y3307D01*
X3653Y3247D01*
X3686Y3181D01*
X3709Y3110D01*
X3711Y3099D01*
X3300Y3099D01*
X3295Y3099D01*
X3290Y3098D01*
X3289Y3098D01*
X3288Y3098D01*
X3283Y3096D01*
X3278Y3094D01*
X3277Y3094D01*
X3276Y3093D01*
X3272Y3090D01*
X3268Y3087D01*
X3267Y3086D01*
X3266Y3086D01*
X3263Y3082D01*
X3260Y3078D01*
X3259Y3077D01*
X3258Y3076D01*
X3256Y3072D01*
X3254Y3067D01*
X3254Y3066D01*
X3253Y3065D01*
X3251Y3053D01*
X3251Y3051D01*
X3251Y3050D01*
X3251Y2999D01*
X3249Y2999D01*
G37*
%LPD*%
%LPC*%
G36*
X13317Y2210D02*
X13317Y2210D01*
X13211Y2254D01*
X13129Y2336D01*
X13085Y2442D01*
X13085Y2558D01*
X13129Y2664D01*
X13190Y2724D01*
X13192Y2728D01*
X13195Y2731D01*
X13196Y2733D01*
X13197Y2734D01*
X13199Y2738D01*
X13201Y2742D01*
X13201Y2743D01*
X13202Y2746D01*
X13204Y2758D01*
X13204Y2759D01*
X13204Y5324D01*
X13205Y5326D01*
X13207Y5330D01*
X13207Y5331D01*
X13208Y5334D01*
X13210Y5346D01*
X13210Y5347D01*
X13210Y5433D01*
X13254Y5539D01*
X13336Y5621D01*
X13442Y5665D01*
X13558Y5665D01*
X13664Y5621D01*
X13746Y5539D01*
X13790Y5433D01*
X13790Y5317D01*
X13746Y5211D01*
X13664Y5129D01*
X13576Y5093D01*
X13575Y5092D01*
X13573Y5092D01*
X13569Y5089D01*
X13565Y5087D01*
X13564Y5086D01*
X13563Y5085D01*
X13560Y5081D01*
X13556Y5078D01*
X13556Y5077D01*
X13555Y5076D01*
X13552Y5072D01*
X13550Y5068D01*
X13550Y5066D01*
X13549Y5065D01*
X13548Y5062D01*
X13546Y5056D01*
X13546Y5050D01*
X13546Y5048D01*
X13546Y2759D01*
X13546Y2755D01*
X13546Y2751D01*
X13547Y2749D01*
X13547Y2747D01*
X13549Y2743D01*
X13550Y2739D01*
X13551Y2738D01*
X13552Y2735D01*
X13559Y2725D01*
X13560Y2725D01*
X13560Y2724D01*
X13621Y2664D01*
X13665Y2558D01*
X13665Y2442D01*
X13621Y2336D01*
X13539Y2254D01*
X13433Y2210D01*
X13317Y2210D01*
G37*
%LPD*%
%LPC*%
G36*
X4442Y3210D02*
X4442Y3210D01*
X4336Y3254D01*
X4254Y3336D01*
X4210Y3442D01*
X4210Y3558D01*
X4254Y3664D01*
X4315Y3724D01*
X4317Y3728D01*
X4320Y3731D01*
X4321Y3733D01*
X4322Y3734D01*
X4324Y3738D01*
X4326Y3742D01*
X4326Y3743D01*
X4327Y3746D01*
X4329Y3758D01*
X4329Y3759D01*
X4329Y4116D01*
X4329Y4120D01*
X4329Y4124D01*
X4328Y4126D01*
X4328Y4128D01*
X4326Y4132D01*
X4325Y4136D01*
X4324Y4137D01*
X4323Y4140D01*
X4316Y4150D01*
X4315Y4150D01*
X4315Y4151D01*
X4254Y4211D01*
X4210Y4317D01*
X4210Y4433D01*
X4254Y4539D01*
X4336Y4621D01*
X4442Y4665D01*
X4558Y4665D01*
X4664Y4621D01*
X4746Y4539D01*
X4790Y4433D01*
X4790Y4317D01*
X4746Y4211D01*
X4685Y4151D01*
X4683Y4147D01*
X4680Y4144D01*
X4679Y4142D01*
X4678Y4141D01*
X4676Y4137D01*
X4674Y4133D01*
X4674Y4132D01*
X4673Y4129D01*
X4671Y4117D01*
X4671Y4116D01*
X4671Y3759D01*
X4671Y3755D01*
X4671Y3751D01*
X4672Y3749D01*
X4672Y3747D01*
X4674Y3743D01*
X4675Y3739D01*
X4676Y3738D01*
X4677Y3735D01*
X4684Y3725D01*
X4685Y3725D01*
X4685Y3724D01*
X4746Y3664D01*
X4790Y3558D01*
X4790Y3442D01*
X4746Y3336D01*
X4664Y3254D01*
X4558Y3210D01*
X4442Y3210D01*
G37*
%LPD*%
%LPC*%
G36*
X1348Y5348D02*
X1348Y5348D01*
X1348Y5548D01*
X2248Y5548D01*
X2273Y5541D01*
X2296Y5527D01*
X2315Y5509D01*
X2328Y5486D01*
X2335Y5460D01*
X2335Y5348D01*
X1348Y5348D01*
G37*
%LPD*%
%LPC*%
G36*
X1348Y2848D02*
X1348Y2848D01*
X1348Y3048D01*
X2248Y3048D01*
X2273Y3041D01*
X2296Y3027D01*
X2315Y3009D01*
X2328Y2986D01*
X2335Y2960D01*
X2335Y2848D01*
X1348Y2848D01*
G37*
%LPD*%
%LPC*%
G36*
X1348Y4952D02*
X1348Y4952D01*
X1348Y5152D01*
X2335Y5152D01*
X2335Y5040D01*
X2328Y5014D01*
X2315Y4991D01*
X2296Y4973D01*
X2273Y4959D01*
X2248Y4952D01*
X1348Y4952D01*
G37*
%LPD*%
%LPC*%
G36*
X1348Y2452D02*
X1348Y2452D01*
X1348Y2652D01*
X2335Y2652D01*
X2335Y2540D01*
X2328Y2514D01*
X2315Y2491D01*
X2296Y2473D01*
X2273Y2459D01*
X2248Y2452D01*
X1348Y2452D01*
G37*
%LPD*%
%LPC*%
G36*
X28599Y3349D02*
X28599Y3349D01*
X28599Y3730D01*
X28600Y3729D01*
X28601Y3726D01*
X28603Y3723D01*
X28605Y3720D01*
X28607Y3718D01*
X28608Y3716D01*
X28611Y3714D01*
X28613Y3711D01*
X28615Y3710D01*
X28618Y3708D01*
X28627Y3704D01*
X28629Y3703D01*
X28681Y3686D01*
X28747Y3653D01*
X28807Y3609D01*
X28859Y3557D01*
X28903Y3497D01*
X28936Y3431D01*
X28959Y3360D01*
X28961Y3349D01*
X28599Y3349D01*
G37*
%LPD*%
%LPC*%
G36*
X28400Y3771D02*
X28400Y3771D01*
X28399Y3774D01*
X28397Y3777D01*
X28395Y3780D01*
X28393Y3782D01*
X28392Y3784D01*
X28389Y3786D01*
X28387Y3789D01*
X28385Y3790D01*
X28382Y3792D01*
X28373Y3796D01*
X28371Y3797D01*
X28319Y3814D01*
X28253Y3847D01*
X28193Y3891D01*
X28141Y3943D01*
X28097Y4003D01*
X28064Y4069D01*
X28041Y4140D01*
X28039Y4151D01*
X28401Y4151D01*
X28401Y3770D01*
X28400Y3771D01*
G37*
%LPD*%
%LPC*%
G36*
X28039Y3349D02*
X28039Y3349D01*
X28041Y3360D01*
X28064Y3431D01*
X28097Y3497D01*
X28141Y3557D01*
X28193Y3609D01*
X28253Y3653D01*
X28319Y3686D01*
X28371Y3703D01*
X28374Y3705D01*
X28377Y3706D01*
X28380Y3707D01*
X28383Y3708D01*
X28385Y3711D01*
X28388Y3712D01*
X28390Y3714D01*
X28392Y3716D01*
X28394Y3719D01*
X28396Y3721D01*
X28398Y3724D01*
X28399Y3726D01*
X28401Y3730D01*
X28401Y3349D01*
X28039Y3349D01*
G37*
%LPD*%
%LPC*%
G36*
X28599Y4151D02*
X28599Y4151D01*
X28961Y4151D01*
X28959Y4140D01*
X28936Y4069D01*
X28903Y4003D01*
X28859Y3943D01*
X28807Y3891D01*
X28747Y3847D01*
X28681Y3814D01*
X28629Y3797D01*
X28626Y3795D01*
X28623Y3794D01*
X28620Y3793D01*
X28617Y3792D01*
X28615Y3789D01*
X28612Y3788D01*
X28610Y3786D01*
X28608Y3784D01*
X28606Y3781D01*
X28604Y3779D01*
X28602Y3776D01*
X28601Y3774D01*
X28599Y3770D01*
X28599Y4151D01*
G37*
%LPD*%
%LPC*%
G36*
X28390Y2791D02*
X28390Y2791D01*
X28319Y2814D01*
X28253Y2847D01*
X28193Y2891D01*
X28141Y2943D01*
X28097Y3003D01*
X28064Y3069D01*
X28041Y3140D01*
X28039Y3151D01*
X28401Y3151D01*
X28401Y2789D01*
X28390Y2791D01*
G37*
%LPD*%
%LPC*%
G36*
X3140Y2541D02*
X3140Y2541D01*
X3069Y2564D01*
X3003Y2597D01*
X2943Y2641D01*
X2891Y2693D01*
X2847Y2753D01*
X2814Y2819D01*
X2791Y2890D01*
X2789Y2901D01*
X3151Y2901D01*
X3151Y2539D01*
X3140Y2541D01*
G37*
%LPD*%
%LPC*%
G36*
X11390Y2041D02*
X11390Y2041D01*
X11319Y2064D01*
X11253Y2097D01*
X11193Y2141D01*
X11141Y2193D01*
X11097Y2253D01*
X11064Y2319D01*
X11041Y2390D01*
X11039Y2401D01*
X11401Y2401D01*
X11401Y2039D01*
X11390Y2041D01*
G37*
%LPD*%
%LPC*%
G36*
X28599Y3151D02*
X28599Y3151D01*
X28961Y3151D01*
X28959Y3140D01*
X28936Y3069D01*
X28903Y3003D01*
X28859Y2943D01*
X28807Y2891D01*
X28747Y2847D01*
X28681Y2814D01*
X28610Y2791D01*
X28599Y2789D01*
X28599Y3151D01*
G37*
%LPD*%
%LPC*%
G36*
X3349Y2901D02*
X3349Y2901D01*
X3711Y2901D01*
X3709Y2890D01*
X3686Y2819D01*
X3653Y2753D01*
X3609Y2693D01*
X3557Y2641D01*
X3497Y2597D01*
X3431Y2564D01*
X3360Y2541D01*
X3349Y2539D01*
X3349Y2901D01*
G37*
%LPD*%
%LPC*%
G36*
X11599Y2401D02*
X11599Y2401D01*
X11961Y2401D01*
X11959Y2390D01*
X11936Y2319D01*
X11903Y2253D01*
X11859Y2193D01*
X11807Y2141D01*
X11747Y2097D01*
X11681Y2064D01*
X11610Y2041D01*
X11599Y2039D01*
X11599Y2401D01*
G37*
%LPD*%
%LPC*%
G36*
X28499Y3249D02*
X28499Y3249D01*
X28499Y3251D01*
X28501Y3251D01*
X28501Y3249D01*
X28499Y3249D01*
G37*
%LPD*%
D10*
X11500Y1000D03*
X12500Y1000D03*
X13500Y1000D03*
X14500Y1000D03*
X15500Y1000D03*
X16500Y1000D03*
X17500Y1000D03*
X18500Y1000D03*
X19500Y1000D03*
X20500Y1000D03*
X21500Y1000D03*
X22500Y1000D03*
X23500Y1000D03*
X24500Y1000D03*
X25500Y1000D03*
X11500Y7000D03*
X12500Y7000D03*
X13500Y7000D03*
X14500Y7000D03*
X15500Y7000D03*
X16500Y7000D03*
X17500Y7000D03*
X18500Y7000D03*
X19500Y7000D03*
X20500Y7000D03*
X21500Y7000D03*
X22500Y7000D03*
X23500Y7000D03*
X24500Y7000D03*
X25500Y7000D03*
D11*
X3250Y3000D03*
X3250Y4000D03*
X3250Y5000D03*
X25500Y3000D03*
X25500Y4000D03*
X25500Y5000D03*
X11500Y2500D03*
X11500Y3500D03*
X11500Y4500D03*
X11500Y5500D03*
X27500Y2750D03*
X28500Y3250D03*
X27500Y3750D03*
X28500Y4250D03*
X27500Y4750D03*
X28500Y5250D03*
D12*
X1250Y5250D03*
X1250Y2750D03*
D13*
X22500Y4500D03*
D14*
X22500Y3000D01*
D13*
X22500Y3000D03*
D15*
X3313Y2938D02*
X3250Y3000D01*
X3313Y2938D02*
X3750Y2500D01*
X7250Y2500D01*
D16*
X7250Y2500D03*
D15*
X11500Y2500D01*
D16*
X3875Y5750D03*
D15*
X3875Y3500D01*
X3313Y2938D01*
D17*
X22500Y1600D02*
X22500Y1000D01*
X22500Y1600D02*
X22500Y3000D01*
D16*
X16875Y2750D03*
X17375Y5000D03*
D15*
X17375Y3250D01*
X16875Y2750D01*
D17*
X12400Y1600D02*
X11500Y2500D01*
X12400Y1600D02*
X16750Y1600D01*
X22500Y1600D01*
X16875Y1725D02*
X16750Y1600D01*
X16875Y1725D02*
X16875Y2750D01*
D13*
X21750Y2000D03*
D14*
X3000Y2750D02*
X1250Y2750D01*
X3000Y2750D02*
X3250Y3000D01*
X1250Y2750D02*
X1250Y5250D01*
D13*
X1000Y4000D03*
D17*
X10500Y4500D02*
X11500Y5500D01*
X10500Y4500D02*
X10500Y4250D01*
D16*
X10500Y4250D03*
X4500Y3500D03*
D15*
X4500Y4375D01*
D16*
X4500Y4375D03*
X13375Y2500D03*
D15*
X13375Y5250D02*
X13500Y5375D01*
D16*
X13500Y5375D03*
D15*
X13375Y5250D02*
X13375Y2500D01*
D16*
X17900Y4450D03*
D15*
X19500Y4450D01*
D16*
X19500Y4450D03*
D15*
X20050Y6450D02*
X19500Y7000D01*
X20050Y6450D02*
X26200Y6450D01*
X26750Y5900D01*
X26750Y5875D01*
D16*
X26750Y5875D03*
D17*
X26375Y2750D02*
X27500Y2750D01*
X26375Y2750D02*
X26125Y3000D01*
X26125Y5750D01*
X26000Y5875D01*
D16*
X26000Y5875D03*
D15*
X25375Y5125D02*
X25500Y5000D01*
X25375Y5125D02*
X25375Y5625D01*
X24800Y6200D01*
X18300Y6200D02*
X17500Y7000D01*
X18300Y6200D02*
X24800Y6200D01*
X15375Y6125D02*
X14500Y7000D01*
X15375Y6125D02*
X16625Y6125D01*
X16875Y5875D01*
X16875Y3431D01*
D16*
X16875Y3431D03*
X21125Y3375D03*
X17125Y6375D03*
D15*
X18750Y5750D02*
X21125Y3375D01*
X18750Y5750D02*
X17750Y5750D01*
X17125Y6375D01*
D16*
X21000Y4250D03*
D15*
X21250Y4500D01*
X21500Y4500D01*
X22000Y4000D01*
X22000Y3000D01*
X21000Y2000D01*
D16*
X21000Y2000D03*
X21375Y4000D03*
D15*
X21625Y3750D01*
X21625Y3250D01*
X20375Y2000D01*
D16*
X20375Y2000D03*
X26750Y3250D03*
D15*
X26750Y5000D01*
X27250Y5500D01*
X28250Y5500D02*
X28500Y5250D01*
X28250Y5500D02*
X27250Y5500D01*
M02*
