M48
;GenerationSoftware,Autodesk,EAGLE,9.0.1*%
;CreationDate,2018-06-06T05:53:37Z*%
FMAT,2
ICI,OFF
INCH,TZ,00.0000
T5C0.0118
T4C0.0138
T3C0.0394
T2C0.0400
T1C0.1280
%
G90
M72
T1
X31000Y2000
X31000Y6000
T2
X25500Y5000
X25500Y4000
X25500Y3000
X3250Y5000
X3250Y4000
X3250Y3000
X11500Y2500
X28500Y5250
X27500Y4750
X28500Y4250
X27500Y3750
X28500Y3250
X27500Y2750
X11500Y5500
X11500Y4500
X11500Y3500
T3
X17500Y7000
X18500Y7000
X19500Y7000
X20500Y7000
X21500Y7000
X22500Y7000
X24500Y7000
X25500Y7000
X23500Y7000
X11500Y1000
X12500Y1000
X13500Y1000
X14500Y1000
X15500Y1000
X16500Y1000
X17500Y1000
X18500Y1000
X19500Y1000
X20500Y1000
X21500Y1000
X22500Y1000
X23500Y1000
X24500Y1000
X25500Y1000
X11500Y7000
X12500Y7000
X13500Y7000
X14500Y7000
X15500Y7000
X16500Y7000
T4
X4500Y3500
X7250Y2500
X3875Y5750
X16875Y2750
X17375Y5000
X10500Y4250
X20375Y2000
X21375Y4000
X21000Y2000
X21000Y4250
X17125Y6375
X21125Y3375
X16875Y3431
X26000Y5875
X26750Y5875
X19500Y4450
X17900Y4450
X13500Y5375
X13375Y2500
X4500Y4375
X26750Y3250
T5
X22500Y3000
X21750Y2000
X1000Y4000
X22500Y4500
M30