G04 EAGLE Gerber X2 export*
G75*
%MOIN*%
%FSLAX24Y24*%
%LPD*%
%AMOC8*
5,1,8,0,0,1.08239X$1,22.5*%
G01*
%ADD10R,0.055244X0.039496*%
%ADD11R,0.094614X0.031622*%
%ADD12R,0.039496X0.055244*%
%ADD13R,0.055244X0.029654*%
%ADD14C,0.078000*%
%ADD15C,0.082000*%
%ADD16R,0.064000X0.019000*%
%ADD17C,0.136000*%
%ADD18R,0.204850X0.047370*%


D10*
X21000Y4896D03*
X21000Y5604D03*
X22000Y4104D03*
X22000Y3396D03*
X24000Y4896D03*
X24000Y5604D03*
X24000Y4104D03*
X24000Y3396D03*
D11*
X7726Y4250D03*
X9774Y4250D03*
X7726Y4750D03*
X7726Y3750D03*
X7726Y3250D03*
X9774Y4750D03*
X9774Y3750D03*
X9774Y3250D03*
D10*
X6500Y5146D03*
X6500Y5854D03*
D12*
X8896Y5750D03*
X9604Y5750D03*
D13*
X23012Y4876D03*
X23012Y5250D03*
X23012Y5624D03*
X21988Y5624D03*
X21988Y4876D03*
D14*
X11500Y1000D03*
X12500Y1000D03*
X13500Y1000D03*
X14500Y1000D03*
X15500Y1000D03*
X16500Y1000D03*
X17500Y1000D03*
X18500Y1000D03*
X19500Y1000D03*
X20500Y1000D03*
X21500Y1000D03*
X22500Y1000D03*
X23500Y1000D03*
X24500Y1000D03*
X25500Y1000D03*
X11500Y7000D03*
X12500Y7000D03*
X13500Y7000D03*
X14500Y7000D03*
X15500Y7000D03*
X16500Y7000D03*
X17500Y7000D03*
X18500Y7000D03*
X19500Y7000D03*
X20500Y7000D03*
X21500Y7000D03*
X22500Y7000D03*
X23500Y7000D03*
X24500Y7000D03*
X25500Y7000D03*
D10*
X23000Y4104D03*
X23000Y3396D03*
D12*
X9104Y2250D03*
X8396Y2250D03*
D10*
X6500Y3646D03*
X6500Y4354D03*
X4500Y2854D03*
X4500Y2146D03*
X6500Y2146D03*
X6500Y2854D03*
D15*
X3250Y3000D03*
X3250Y4000D03*
X3250Y5000D03*
D12*
X7396Y5750D03*
X8104Y5750D03*
D15*
X25500Y3000D03*
X25500Y4000D03*
X25500Y5000D03*
D12*
X23396Y2500D03*
X24104Y2500D03*
D16*
X17890Y4140D03*
X17890Y3950D03*
X17890Y3750D03*
X17890Y3550D03*
X17890Y3360D03*
X19610Y3360D03*
X19610Y3550D03*
X19610Y3750D03*
X19610Y3950D03*
X19610Y4140D03*
D15*
X11500Y2500D03*
X11500Y3500D03*
X11500Y4500D03*
X11500Y5500D03*
D10*
X5500Y5146D03*
X5500Y5854D03*
X5500Y2854D03*
X5500Y2146D03*
X5500Y4354D03*
X5500Y3646D03*
D12*
X18396Y2500D03*
X19104Y2500D03*
X14854Y3250D03*
X14146Y3250D03*
X14854Y2250D03*
X14146Y2250D03*
X16354Y2250D03*
X15646Y2250D03*
X15646Y3250D03*
X16354Y3250D03*
X14854Y4500D03*
X14146Y4500D03*
X14854Y5500D03*
X14146Y5500D03*
X16354Y5500D03*
X15646Y5500D03*
X15646Y4500D03*
X16354Y4500D03*
X13354Y4500D03*
X12646Y4500D03*
X13354Y3250D03*
X12646Y3250D03*
D10*
X19250Y4896D03*
X19250Y5604D03*
X18250Y4896D03*
X18250Y5604D03*
D15*
X27500Y2750D03*
X28500Y3250D03*
X27500Y3750D03*
X28500Y4250D03*
X27500Y4750D03*
X28500Y5250D03*
D17*
X31000Y2000D03*
X31000Y6000D03*
D10*
X4500Y5146D03*
X4500Y5854D03*
D18*
X1250Y5250D03*
X1250Y2750D03*
M02*
