G04 EAGLE Gerber X2 export*
G75*
%MOIN*%
%FSLAX24Y24*%
%LPD*%
%AMOC8*
5,1,8,0,0,1.08239X$1,22.5*%
G01*
%ADD10C,0.007000*%
%ADD11C,0.010000*%
%ADD12C,0.008000*%
%ADD13C,0.006000*%
%ADD14C,0.005000*%
%ADD15C,0.017677*%
%ADD16C,0.003000*%
%ADD17C,0.004000*%


D10*
X2735Y5860D02*
X2790Y5915D01*
X2900Y5915D01*
X2955Y5860D01*
X2955Y5805D01*
X2900Y5750D01*
X2845Y5750D01*
X2900Y5750D02*
X2955Y5695D01*
X2955Y5640D01*
X2900Y5585D01*
X2790Y5585D01*
X2735Y5640D01*
X3103Y5695D02*
X3103Y5915D01*
X3103Y5695D02*
X3213Y5585D01*
X3324Y5695D01*
X3324Y5915D01*
X3472Y5860D02*
X3527Y5915D01*
X3637Y5915D01*
X3692Y5860D01*
X3692Y5805D01*
X3637Y5750D01*
X3582Y5750D01*
X3637Y5750D02*
X3692Y5695D01*
X3692Y5640D01*
X3637Y5585D01*
X3527Y5585D01*
X3472Y5640D01*
X2850Y2365D02*
X2905Y2310D01*
X2850Y2365D02*
X2740Y2365D01*
X2685Y2310D01*
X2685Y2090D01*
X2740Y2035D01*
X2850Y2035D01*
X2905Y2090D01*
X2905Y2200D01*
X2795Y2200D01*
X3053Y2035D02*
X3053Y2365D01*
X3274Y2035D01*
X3274Y2365D01*
X3422Y2365D02*
X3422Y2035D01*
X3587Y2035D01*
X3642Y2090D01*
X3642Y2310D01*
X3587Y2365D01*
X3422Y2365D01*
D11*
X8338Y4700D02*
X8340Y4721D01*
X8346Y4740D01*
X8355Y4759D01*
X8367Y4775D01*
X8383Y4789D01*
X8400Y4800D01*
X8419Y4808D01*
X8440Y4812D01*
X8460Y4812D01*
X8481Y4808D01*
X8500Y4800D01*
X8517Y4789D01*
X8533Y4775D01*
X8545Y4759D01*
X8554Y4740D01*
X8560Y4721D01*
X8562Y4700D01*
X8560Y4679D01*
X8554Y4660D01*
X8545Y4641D01*
X8533Y4625D01*
X8517Y4611D01*
X8500Y4600D01*
X8481Y4592D01*
X8460Y4588D01*
X8440Y4588D01*
X8419Y4592D01*
X8400Y4600D01*
X8383Y4611D01*
X8367Y4625D01*
X8355Y4641D01*
X8346Y4660D01*
X8340Y4679D01*
X8338Y4700D01*
D12*
X26265Y2558D02*
X26585Y2558D01*
X26479Y2665D01*
X26585Y2771D01*
X26265Y2771D01*
X26265Y2926D02*
X26265Y3033D01*
X26265Y2980D02*
X26585Y2980D01*
X26585Y3033D02*
X26585Y2926D01*
X26585Y3332D02*
X26532Y3385D01*
X26585Y3332D02*
X26585Y3225D01*
X26532Y3172D01*
X26318Y3172D01*
X26265Y3225D01*
X26265Y3332D01*
X26318Y3385D01*
X26265Y4435D02*
X26585Y4435D01*
X26265Y4435D02*
X26265Y4595D01*
X26318Y4649D01*
X26532Y4649D01*
X26585Y4595D01*
X26585Y4435D01*
X26479Y4803D02*
X26265Y4803D01*
X26479Y4803D02*
X26585Y4910D01*
X26479Y5017D01*
X26265Y5017D01*
X26425Y5017D02*
X26425Y4803D01*
X26585Y5332D02*
X26532Y5385D01*
X26585Y5332D02*
X26585Y5225D01*
X26532Y5172D01*
X26318Y5172D01*
X26265Y5225D01*
X26265Y5332D01*
X26318Y5385D01*
D13*
X280Y4720D02*
X280Y4493D01*
X393Y4380D01*
X507Y4493D01*
X507Y4720D01*
X648Y4720D02*
X648Y4380D01*
X818Y4380D01*
X875Y4437D01*
X875Y4664D01*
X818Y4720D01*
X648Y4720D01*
X1017Y4720D02*
X1017Y4380D01*
X1187Y4380D01*
X1243Y4437D01*
X1243Y4664D01*
X1187Y4720D01*
X1017Y4720D01*
X450Y3620D02*
X507Y3564D01*
X450Y3620D02*
X337Y3620D01*
X280Y3564D01*
X280Y3507D01*
X337Y3450D01*
X450Y3450D01*
X507Y3393D01*
X507Y3337D01*
X450Y3280D01*
X337Y3280D01*
X280Y3337D01*
X648Y3280D02*
X762Y3280D01*
X705Y3280D02*
X705Y3620D01*
X648Y3620D02*
X762Y3620D01*
X1064Y3620D02*
X1121Y3564D01*
X1064Y3620D02*
X951Y3620D01*
X894Y3564D01*
X894Y3337D01*
X951Y3280D01*
X1064Y3280D01*
X1121Y3337D01*
X1121Y3450D01*
X1007Y3450D01*
D14*
X20410Y4774D02*
X20442Y4806D01*
X20410Y4774D02*
X20410Y4711D01*
X20442Y4679D01*
X20568Y4679D01*
X20600Y4711D01*
X20600Y4774D01*
X20568Y4806D01*
X20473Y4900D02*
X20410Y4963D01*
X20600Y4963D01*
X20600Y4900D02*
X20600Y5027D01*
X20568Y5242D02*
X20442Y5242D01*
X20410Y5274D01*
X20410Y5337D01*
X20442Y5369D01*
X20568Y5369D01*
X20600Y5337D01*
X20600Y5274D01*
X20568Y5242D01*
X20442Y5369D01*
X20568Y5463D02*
X20600Y5463D01*
X20568Y5463D02*
X20568Y5495D01*
X20600Y5495D01*
X20600Y5463D01*
X20568Y5574D02*
X20442Y5574D01*
X20410Y5605D01*
X20410Y5669D01*
X20442Y5701D01*
X20568Y5701D01*
X20600Y5669D01*
X20600Y5605D01*
X20568Y5574D01*
X20442Y5701D01*
X20473Y5795D02*
X20410Y5858D01*
X20600Y5858D01*
X20600Y5795D02*
X20600Y5922D01*
X20568Y6047D02*
X20505Y6047D01*
X20568Y6047D02*
X20600Y6079D01*
X20600Y6111D01*
X20568Y6143D01*
X20505Y6143D01*
X20568Y6047D02*
X20632Y6047D01*
X20663Y6016D01*
X20600Y6237D02*
X20410Y6237D01*
X20410Y6364D01*
X20505Y6300D02*
X20505Y6237D01*
X21442Y3306D02*
X21410Y3274D01*
X21410Y3211D01*
X21442Y3179D01*
X21568Y3179D01*
X21600Y3211D01*
X21600Y3274D01*
X21568Y3306D01*
X21600Y3400D02*
X21600Y3527D01*
X21600Y3400D02*
X21473Y3527D01*
X21442Y3527D01*
X21410Y3495D01*
X21410Y3432D01*
X21442Y3400D01*
X21473Y3733D02*
X21410Y3796D01*
X21600Y3796D01*
X21600Y3733D02*
X21600Y3860D01*
X21568Y3954D02*
X21442Y3954D01*
X21410Y3986D01*
X21410Y4049D01*
X21442Y4081D01*
X21568Y4081D01*
X21600Y4049D01*
X21600Y3986D01*
X21568Y3954D01*
X21442Y4081D01*
X21505Y4207D02*
X21568Y4207D01*
X21600Y4238D01*
X21600Y4270D01*
X21568Y4302D01*
X21505Y4302D01*
X21568Y4207D02*
X21632Y4207D01*
X21663Y4175D01*
X21600Y4396D02*
X21410Y4396D01*
X21410Y4523D01*
X21505Y4459D02*
X21505Y4396D01*
X23410Y4774D02*
X23442Y4806D01*
X23410Y4774D02*
X23410Y4711D01*
X23442Y4679D01*
X23568Y4679D01*
X23600Y4711D01*
X23600Y4774D01*
X23568Y4806D01*
X23442Y4900D02*
X23410Y4932D01*
X23410Y4995D01*
X23442Y5027D01*
X23473Y5027D01*
X23505Y4995D01*
X23505Y4963D01*
X23505Y4995D02*
X23537Y5027D01*
X23568Y5027D01*
X23600Y4995D01*
X23600Y4932D01*
X23568Y4900D01*
X23473Y5319D02*
X23410Y5382D01*
X23600Y5382D01*
X23600Y5319D02*
X23600Y5445D01*
X23568Y5571D02*
X23505Y5571D01*
X23568Y5571D02*
X23600Y5603D01*
X23600Y5635D01*
X23568Y5666D01*
X23505Y5666D01*
X23568Y5571D02*
X23632Y5571D01*
X23663Y5540D01*
X23600Y5760D02*
X23410Y5760D01*
X23410Y5887D01*
X23505Y5824D02*
X23505Y5760D01*
X23442Y3281D02*
X23410Y3249D01*
X23410Y3186D01*
X23442Y3154D01*
X23568Y3154D01*
X23600Y3186D01*
X23600Y3249D01*
X23568Y3281D01*
X23600Y3470D02*
X23410Y3470D01*
X23505Y3375D01*
X23505Y3502D01*
X23473Y3794D02*
X23410Y3857D01*
X23600Y3857D01*
X23600Y3794D02*
X23600Y3920D01*
X23568Y4046D02*
X23505Y4046D01*
X23568Y4046D02*
X23600Y4078D01*
X23600Y4110D01*
X23568Y4141D01*
X23505Y4141D01*
X23568Y4046D02*
X23632Y4046D01*
X23663Y4015D01*
X23600Y4235D02*
X23410Y4235D01*
X23410Y4362D01*
X23505Y4299D02*
X23505Y4235D01*
X8975Y3175D02*
X8795Y3175D01*
X8705Y3265D01*
X8795Y3355D01*
X8975Y3355D01*
X8840Y3355D02*
X8840Y3175D01*
X8705Y3470D02*
X8975Y3470D01*
X8975Y3605D01*
X8930Y3650D01*
X8750Y3650D01*
X8705Y3605D01*
X8705Y3470D01*
X8750Y3764D02*
X8705Y3809D01*
X8705Y3899D01*
X8750Y3944D01*
X8795Y3944D01*
X8840Y3899D01*
X8885Y3944D01*
X8930Y3944D01*
X8975Y3899D01*
X8975Y3809D01*
X8930Y3764D01*
X8885Y3764D01*
X8840Y3809D01*
X8795Y3764D01*
X8750Y3764D01*
X8840Y3809D02*
X8840Y3899D01*
X8750Y4149D02*
X8705Y4239D01*
X8750Y4149D02*
X8840Y4059D01*
X8930Y4059D01*
X8975Y4104D01*
X8975Y4194D01*
X8930Y4239D01*
X8885Y4239D01*
X8840Y4194D01*
X8840Y4059D01*
X8705Y4354D02*
X8705Y4534D01*
X8705Y4354D02*
X8840Y4354D01*
X8795Y4444D01*
X8795Y4489D01*
X8840Y4534D01*
X8930Y4534D01*
X8975Y4489D01*
X8975Y4399D01*
X8930Y4354D01*
X8705Y4648D02*
X8705Y4828D01*
X8705Y4648D02*
X8840Y4648D01*
X8795Y4738D01*
X8795Y4783D01*
X8840Y4828D01*
X8930Y4828D01*
X8975Y4783D01*
X8975Y4693D01*
X8930Y4648D01*
X6100Y4929D02*
X5910Y4929D01*
X5910Y5024D01*
X5942Y5056D01*
X6005Y5056D01*
X6037Y5024D01*
X6037Y4929D01*
X6037Y4992D02*
X6100Y5056D01*
X5973Y5150D02*
X5910Y5213D01*
X6100Y5213D01*
X6100Y5150D02*
X6100Y5277D01*
X5973Y5587D02*
X5910Y5650D01*
X6100Y5650D01*
X6100Y5587D02*
X6100Y5714D01*
X6068Y5808D02*
X5942Y5808D01*
X5910Y5840D01*
X5910Y5903D01*
X5942Y5935D01*
X6068Y5935D01*
X6100Y5903D01*
X6100Y5840D01*
X6068Y5808D01*
X5942Y5935D01*
X5910Y6029D02*
X6100Y6029D01*
X6037Y6029D02*
X6100Y6124D01*
X6037Y6029D02*
X5973Y6124D01*
X8679Y6150D02*
X8679Y6340D01*
X8774Y6340D01*
X8806Y6308D01*
X8806Y6245D01*
X8774Y6213D01*
X8679Y6213D01*
X8742Y6213D02*
X8806Y6150D01*
X8900Y6150D02*
X9027Y6150D01*
X8900Y6150D02*
X9027Y6277D01*
X9027Y6308D01*
X8995Y6340D01*
X8932Y6340D01*
X8900Y6308D01*
X9432Y6340D02*
X9432Y6150D01*
X9337Y6245D02*
X9432Y6340D01*
X9464Y6245D02*
X9337Y6245D01*
X9558Y6340D02*
X9685Y6340D01*
X9685Y6308D01*
X9558Y6182D01*
X9558Y6150D01*
X9779Y6150D02*
X9779Y6340D01*
X9779Y6213D02*
X9874Y6150D01*
X9779Y6213D02*
X9874Y6277D01*
D10*
X22181Y5830D02*
X22819Y5830D01*
X22819Y4670D02*
X22181Y4670D01*
X22181Y5084D02*
X22181Y5416D01*
D15*
X22605Y4875D03*
D13*
X21655Y6030D02*
X21655Y6290D01*
X21655Y6030D02*
X21828Y6030D01*
X22036Y6030D02*
X22036Y6290D01*
X21950Y6290D02*
X22123Y6290D01*
X22244Y6203D02*
X22331Y6290D01*
X22331Y6030D01*
X22244Y6030D02*
X22418Y6030D01*
X22539Y6290D02*
X22712Y6290D01*
X22712Y6247D01*
X22539Y6073D01*
X22539Y6030D01*
X22920Y6247D02*
X23007Y6290D01*
X22920Y6247D02*
X22834Y6160D01*
X22834Y6073D01*
X22877Y6030D01*
X22964Y6030D01*
X23007Y6073D01*
X23007Y6117D01*
X22964Y6160D01*
X22834Y6160D01*
X23128Y6203D02*
X23215Y6290D01*
X23215Y6030D01*
X23128Y6030D02*
X23302Y6030D01*
D14*
X22442Y3281D02*
X22410Y3249D01*
X22410Y3186D01*
X22442Y3154D01*
X22568Y3154D01*
X22600Y3186D01*
X22600Y3249D01*
X22568Y3281D01*
X22410Y3375D02*
X22410Y3502D01*
X22410Y3375D02*
X22505Y3375D01*
X22473Y3438D01*
X22473Y3470D01*
X22505Y3502D01*
X22568Y3502D01*
X22600Y3470D01*
X22600Y3407D01*
X22568Y3375D01*
X22568Y3678D02*
X22442Y3678D01*
X22410Y3709D01*
X22410Y3773D01*
X22442Y3805D01*
X22568Y3805D01*
X22600Y3773D01*
X22600Y3709D01*
X22568Y3678D01*
X22442Y3805D01*
X22568Y3899D02*
X22600Y3899D01*
X22568Y3899D02*
X22568Y3930D01*
X22600Y3930D01*
X22600Y3899D01*
X22473Y4009D02*
X22410Y4073D01*
X22600Y4073D01*
X22600Y4136D02*
X22600Y4009D01*
X22568Y4262D02*
X22505Y4262D01*
X22568Y4262D02*
X22600Y4294D01*
X22600Y4325D01*
X22568Y4357D01*
X22505Y4357D01*
X22568Y4262D02*
X22632Y4262D01*
X22663Y4230D01*
X22600Y4451D02*
X22410Y4451D01*
X22410Y4578D01*
X22505Y4515D02*
X22505Y4451D01*
X8306Y2808D02*
X8274Y2840D01*
X8211Y2840D01*
X8179Y2808D01*
X8179Y2682D01*
X8211Y2650D01*
X8274Y2650D01*
X8306Y2682D01*
X8463Y2808D02*
X8527Y2840D01*
X8463Y2808D02*
X8400Y2745D01*
X8400Y2682D01*
X8432Y2650D01*
X8495Y2650D01*
X8527Y2682D01*
X8527Y2713D01*
X8495Y2745D01*
X8400Y2745D01*
X8778Y2682D02*
X8778Y2808D01*
X8809Y2840D01*
X8873Y2840D01*
X8905Y2808D01*
X8905Y2682D01*
X8873Y2650D01*
X8809Y2650D01*
X8778Y2682D01*
X8905Y2808D01*
X8999Y2682D02*
X8999Y2650D01*
X8999Y2682D02*
X9030Y2682D01*
X9030Y2650D01*
X8999Y2650D01*
X9109Y2777D02*
X9173Y2840D01*
X9173Y2650D01*
X9236Y2650D02*
X9109Y2650D01*
X9362Y2682D02*
X9362Y2745D01*
X9362Y2682D02*
X9394Y2650D01*
X9425Y2650D01*
X9457Y2682D01*
X9457Y2745D01*
X9362Y2682D02*
X9362Y2618D01*
X9330Y2587D01*
X9551Y2650D02*
X9551Y2840D01*
X9678Y2840D01*
X9615Y2745D02*
X9551Y2745D01*
X6100Y3429D02*
X5910Y3429D01*
X5910Y3524D01*
X5942Y3556D01*
X6005Y3556D01*
X6037Y3524D01*
X6037Y3429D01*
X6037Y3492D02*
X6100Y3556D01*
X6100Y3745D02*
X5910Y3745D01*
X6005Y3650D01*
X6005Y3777D01*
X6100Y4182D02*
X5910Y4182D01*
X6005Y4087D01*
X6005Y4214D01*
X5910Y4308D02*
X5910Y4435D01*
X5942Y4435D01*
X6068Y4308D01*
X6100Y4308D01*
X6100Y4529D02*
X5910Y4529D01*
X6037Y4529D02*
X6100Y4624D01*
X6037Y4529D02*
X5973Y4624D01*
X4100Y1929D02*
X3910Y1929D01*
X3910Y2024D01*
X3942Y2056D01*
X4005Y2056D01*
X4037Y2024D01*
X4037Y1929D01*
X4037Y1992D02*
X4100Y2056D01*
X3910Y2150D02*
X3910Y2277D01*
X3910Y2150D02*
X4005Y2150D01*
X3973Y2213D01*
X3973Y2245D01*
X4005Y2277D01*
X4068Y2277D01*
X4100Y2245D01*
X4100Y2182D01*
X4068Y2150D01*
X4125Y2657D02*
X3935Y2657D01*
X4030Y2562D01*
X4030Y2689D01*
X3935Y2783D02*
X3935Y2910D01*
X3967Y2910D01*
X4093Y2783D01*
X4125Y2783D01*
X4125Y3004D02*
X3935Y3004D01*
X4062Y3004D02*
X4125Y3099D01*
X4062Y3004D02*
X3998Y3099D01*
X5910Y1929D02*
X6100Y1929D01*
X5910Y1929D02*
X5910Y2024D01*
X5942Y2056D01*
X6005Y2056D01*
X6037Y2024D01*
X6037Y1929D01*
X6037Y1992D02*
X6100Y2056D01*
X5942Y2213D02*
X5910Y2277D01*
X5942Y2213D02*
X6005Y2150D01*
X6068Y2150D01*
X6100Y2182D01*
X6100Y2245D01*
X6068Y2277D01*
X6037Y2277D01*
X6005Y2245D01*
X6005Y2150D01*
X6100Y2682D02*
X5910Y2682D01*
X6005Y2587D01*
X6005Y2714D01*
X5910Y2808D02*
X5910Y2935D01*
X5942Y2935D01*
X6068Y2808D01*
X6100Y2808D01*
X6100Y3029D02*
X5910Y3029D01*
X6037Y3029D02*
X6100Y3124D01*
X6037Y3029D02*
X5973Y3124D01*
D12*
X3000Y4500D02*
X2750Y4750D01*
X2750Y5250D01*
X3000Y5500D01*
X3500Y5500D02*
X3750Y5250D01*
X3750Y4750D01*
X3500Y4500D01*
X2750Y3250D02*
X2750Y2750D01*
X2750Y3250D02*
X3000Y3500D01*
X3500Y3500D02*
X3750Y3250D01*
X3000Y3500D02*
X2750Y3750D01*
X2750Y4250D01*
X3000Y4500D01*
X3500Y4500D02*
X3750Y4250D01*
X3750Y3750D01*
X3500Y3500D01*
X3500Y2500D02*
X3000Y2500D01*
X2750Y2750D01*
X3500Y2500D02*
X3750Y2750D01*
X3750Y3250D01*
X3500Y5500D02*
X3000Y5500D01*
D10*
X2465Y3585D02*
X2135Y3585D01*
X2245Y3695D01*
X2135Y3805D01*
X2465Y3805D01*
X2465Y3953D02*
X2465Y4063D01*
X2465Y4008D02*
X2135Y4008D01*
X2135Y3953D02*
X2135Y4063D01*
X2135Y4364D02*
X2190Y4419D01*
X2135Y4364D02*
X2135Y4254D01*
X2190Y4199D01*
X2410Y4199D01*
X2465Y4254D01*
X2465Y4364D01*
X2410Y4419D01*
D14*
X6814Y6340D02*
X6845Y6308D01*
X6814Y6340D02*
X6750Y6340D01*
X6719Y6308D01*
X6719Y6182D01*
X6750Y6150D01*
X6814Y6150D01*
X6845Y6182D01*
X6940Y6277D02*
X7003Y6340D01*
X7003Y6150D01*
X6940Y6150D02*
X7066Y6150D01*
X7160Y6308D02*
X7192Y6340D01*
X7256Y6340D01*
X7287Y6308D01*
X7287Y6277D01*
X7256Y6245D01*
X7287Y6213D01*
X7287Y6182D01*
X7256Y6150D01*
X7192Y6150D01*
X7160Y6182D01*
X7160Y6213D01*
X7192Y6245D01*
X7160Y6277D01*
X7160Y6308D01*
X7192Y6245D02*
X7256Y6245D01*
X7583Y6277D02*
X7646Y6340D01*
X7646Y6150D01*
X7583Y6150D02*
X7710Y6150D01*
X7804Y6182D02*
X7804Y6308D01*
X7836Y6340D01*
X7899Y6340D01*
X7931Y6308D01*
X7931Y6182D01*
X7899Y6150D01*
X7836Y6150D01*
X7804Y6182D01*
X7931Y6308D01*
X8025Y6277D02*
X8025Y6087D01*
X8025Y6277D02*
X8120Y6277D01*
X8152Y6245D01*
X8152Y6182D01*
X8120Y6150D01*
X8025Y6150D01*
X8246Y6150D02*
X8246Y6340D01*
X8373Y6340D01*
X8309Y6245D02*
X8246Y6245D01*
D12*
X25000Y4750D02*
X25250Y4500D01*
X25000Y4750D02*
X25000Y5250D01*
X25250Y5500D01*
X25750Y5500D02*
X26000Y5250D01*
X26000Y4750D01*
X25750Y4500D01*
X25000Y3250D02*
X25000Y2750D01*
X25000Y3250D02*
X25250Y3500D01*
X25750Y3500D02*
X26000Y3250D01*
X25250Y3500D02*
X25000Y3750D01*
X25000Y4250D01*
X25250Y4500D01*
X25750Y4500D02*
X26000Y4250D01*
X26000Y3750D01*
X25750Y3500D01*
X25750Y2500D02*
X25250Y2500D01*
X25000Y2750D01*
X25750Y2500D02*
X26000Y2750D01*
X26000Y3250D01*
X25750Y5500D02*
X25250Y5500D01*
D14*
X23194Y3065D02*
X23194Y2875D01*
X23194Y3065D02*
X23289Y3065D01*
X23320Y3033D01*
X23320Y2970D01*
X23289Y2938D01*
X23194Y2938D01*
X23257Y2938D02*
X23320Y2875D01*
X23415Y3002D02*
X23478Y3065D01*
X23478Y2875D01*
X23415Y2875D02*
X23541Y2875D01*
X23635Y3033D02*
X23667Y3065D01*
X23731Y3065D01*
X23762Y3033D01*
X23762Y3002D01*
X23731Y2970D01*
X23699Y2970D01*
X23731Y2970D02*
X23762Y2938D01*
X23762Y2907D01*
X23731Y2875D01*
X23667Y2875D01*
X23635Y2907D01*
X24072Y3002D02*
X24136Y3065D01*
X24136Y2875D01*
X24199Y2875D02*
X24072Y2875D01*
X24293Y2875D02*
X24293Y3065D01*
X24293Y2938D02*
X24388Y2875D01*
X24293Y2938D02*
X24388Y3002D01*
D13*
X20400Y4150D02*
X20010Y4150D01*
X19360Y3140D02*
X18140Y3140D01*
X18870Y4360D02*
X19360Y4360D01*
X18870Y4360D02*
X18630Y4360D01*
X18140Y4360D01*
X18630Y4360D02*
X18632Y4339D01*
X18637Y4319D01*
X18646Y4300D01*
X18658Y4283D01*
X18673Y4268D01*
X18690Y4256D01*
X18709Y4247D01*
X18729Y4242D01*
X18750Y4240D01*
X18771Y4242D01*
X18791Y4247D01*
X18810Y4256D01*
X18827Y4268D01*
X18842Y4283D01*
X18854Y4300D01*
X18863Y4319D01*
X18868Y4339D01*
X18870Y4360D01*
D16*
X17899Y4293D02*
X17585Y4607D01*
X17585Y4293D02*
X17899Y4607D01*
X17899Y4450D02*
X17585Y4450D01*
X17742Y4293D02*
X17742Y4607D01*
D17*
X18226Y3402D02*
X18368Y3261D01*
X18226Y3402D02*
X18297Y3473D01*
X18344Y3473D01*
X18392Y3426D01*
X18392Y3379D01*
X18321Y3308D01*
X18453Y3629D02*
X18501Y3629D01*
X18453Y3629D02*
X18406Y3582D01*
X18406Y3535D01*
X18501Y3441D01*
X18548Y3441D01*
X18595Y3488D01*
X18595Y3535D01*
X18548Y3582D01*
X18501Y3535D01*
X18586Y3668D02*
X18680Y3573D01*
X18586Y3668D02*
X18586Y3762D01*
X18680Y3762D01*
X18775Y3668D01*
X18704Y3739D02*
X18610Y3644D01*
X18742Y3824D02*
X18742Y3918D01*
X18884Y3777D01*
X18837Y3730D02*
X18931Y3824D01*
X18899Y3980D02*
X18899Y4075D01*
X19040Y3933D01*
X18993Y3886D02*
X19087Y3980D01*
X19149Y4042D02*
X19244Y4137D01*
X19149Y4231D02*
X19149Y4042D01*
X19149Y4231D02*
X19126Y4254D01*
X19078Y4254D01*
X19031Y4207D01*
X19031Y4160D01*
D12*
X11000Y5250D02*
X11000Y5750D01*
X11250Y6000D01*
X11750Y6000D02*
X12000Y5750D01*
X11000Y4250D02*
X11250Y4000D01*
X11000Y4250D02*
X11000Y4750D01*
X11250Y5000D01*
X11750Y5000D02*
X12000Y4750D01*
X12000Y4250D01*
X11750Y4000D01*
X11250Y5000D02*
X11000Y5250D01*
X11750Y5000D02*
X12000Y5250D01*
X12000Y5750D01*
X11000Y2750D02*
X11000Y2250D01*
X11000Y2750D02*
X11250Y3000D01*
X11750Y3000D02*
X12000Y2750D01*
X11250Y3000D02*
X11000Y3250D01*
X11000Y3750D01*
X11250Y4000D01*
X11750Y4000D02*
X12000Y3750D01*
X12000Y3250D01*
X11750Y3000D01*
X11750Y2000D02*
X11250Y2000D01*
X11000Y2250D01*
X11750Y2000D02*
X12000Y2250D01*
X12000Y2750D01*
X11750Y6000D02*
X11250Y6000D01*
D14*
X4967Y5081D02*
X4935Y5049D01*
X4935Y4986D01*
X4967Y4954D01*
X5093Y4954D01*
X5125Y4986D01*
X5125Y5049D01*
X5093Y5081D01*
X4967Y5175D02*
X4935Y5207D01*
X4935Y5270D01*
X4967Y5302D01*
X4998Y5302D01*
X5030Y5270D01*
X5062Y5302D01*
X5093Y5302D01*
X5125Y5270D01*
X5125Y5207D01*
X5093Y5175D01*
X5062Y5175D01*
X5030Y5207D01*
X4998Y5175D01*
X4967Y5175D01*
X5030Y5207D02*
X5030Y5270D01*
X4967Y5483D02*
X4935Y5515D01*
X4935Y5578D01*
X4967Y5610D01*
X4998Y5610D01*
X5030Y5578D01*
X5030Y5546D01*
X5030Y5578D02*
X5062Y5610D01*
X5093Y5610D01*
X5125Y5578D01*
X5125Y5515D01*
X5093Y5483D01*
X4967Y5704D02*
X4935Y5736D01*
X4935Y5799D01*
X4967Y5831D01*
X4998Y5831D01*
X5030Y5799D01*
X5030Y5767D01*
X5030Y5799D02*
X5062Y5831D01*
X5093Y5831D01*
X5125Y5799D01*
X5125Y5736D01*
X5093Y5704D01*
X5125Y5925D02*
X4998Y5925D01*
X4998Y6020D01*
X5030Y6052D01*
X5125Y6052D01*
X5125Y6146D02*
X4935Y6146D01*
X4935Y6273D01*
X5030Y6209D02*
X5030Y6146D01*
X4967Y2031D02*
X4935Y1999D01*
X4935Y1936D01*
X4967Y1904D01*
X5093Y1904D01*
X5125Y1936D01*
X5125Y1999D01*
X5093Y2031D01*
X5093Y2125D02*
X5125Y2157D01*
X5125Y2220D01*
X5093Y2252D01*
X4967Y2252D01*
X4935Y2220D01*
X4935Y2157D01*
X4967Y2125D01*
X4998Y2125D01*
X5030Y2157D01*
X5030Y2252D01*
X5093Y2378D02*
X4967Y2378D01*
X4935Y2409D01*
X4935Y2473D01*
X4967Y2505D01*
X5093Y2505D01*
X5125Y2473D01*
X5125Y2409D01*
X5093Y2378D01*
X4967Y2505D01*
X5093Y2599D02*
X5125Y2599D01*
X5093Y2599D02*
X5093Y2630D01*
X5125Y2630D01*
X5125Y2599D01*
X4998Y2709D02*
X4935Y2773D01*
X5125Y2773D01*
X5125Y2836D02*
X5125Y2709D01*
X5093Y2962D02*
X5030Y2962D01*
X5093Y2962D02*
X5125Y2994D01*
X5125Y3025D01*
X5093Y3057D01*
X5030Y3057D01*
X5093Y2962D02*
X5157Y2962D01*
X5188Y2930D01*
X5125Y3151D02*
X4935Y3151D01*
X4935Y3278D01*
X5030Y3215D02*
X5030Y3151D01*
X4935Y3539D02*
X4967Y3570D01*
X4935Y3539D02*
X4935Y3475D01*
X4967Y3444D01*
X5093Y3444D01*
X5125Y3475D01*
X5125Y3539D01*
X5093Y3570D01*
X4998Y3665D02*
X4935Y3728D01*
X5125Y3728D01*
X5125Y3665D02*
X5125Y3791D01*
X5093Y3885D02*
X4967Y3885D01*
X4935Y3917D01*
X4935Y3981D01*
X4967Y4012D01*
X5093Y4012D01*
X5125Y3981D01*
X5125Y3917D01*
X5093Y3885D01*
X4967Y4012D01*
X4998Y4183D02*
X4935Y4246D01*
X5125Y4246D01*
X5125Y4183D02*
X5125Y4310D01*
X5093Y4404D02*
X4967Y4404D01*
X4935Y4436D01*
X4935Y4499D01*
X4967Y4531D01*
X5093Y4531D01*
X5125Y4499D01*
X5125Y4436D01*
X5093Y4404D01*
X4967Y4531D01*
X4998Y4625D02*
X5125Y4625D01*
X4998Y4625D02*
X4998Y4720D01*
X5030Y4752D01*
X5125Y4752D01*
X5125Y4846D02*
X4935Y4846D01*
X4935Y4973D01*
X5030Y4909D02*
X5030Y4846D01*
X18249Y3065D02*
X18281Y3033D01*
X18249Y3065D02*
X18186Y3065D01*
X18154Y3033D01*
X18154Y2907D01*
X18186Y2875D01*
X18249Y2875D01*
X18281Y2907D01*
X18375Y3065D02*
X18502Y3065D01*
X18502Y3033D01*
X18375Y2907D01*
X18375Y2875D01*
X18683Y3033D02*
X18715Y3065D01*
X18778Y3065D01*
X18810Y3033D01*
X18810Y3002D01*
X18778Y2970D01*
X18746Y2970D01*
X18778Y2970D02*
X18810Y2938D01*
X18810Y2907D01*
X18778Y2875D01*
X18715Y2875D01*
X18683Y2907D01*
X18904Y3033D02*
X18936Y3065D01*
X18999Y3065D01*
X19031Y3033D01*
X19031Y3002D01*
X18999Y2970D01*
X18967Y2970D01*
X18999Y2970D02*
X19031Y2938D01*
X19031Y2907D01*
X18999Y2875D01*
X18936Y2875D01*
X18904Y2907D01*
X19125Y2875D02*
X19125Y3002D01*
X19220Y3002D01*
X19252Y2970D01*
X19252Y2875D01*
X19346Y2875D02*
X19346Y3065D01*
X19473Y3065D01*
X19409Y2970D02*
X19346Y2970D01*
X13954Y3625D02*
X13954Y3815D01*
X14049Y3815D01*
X14081Y3783D01*
X14081Y3720D01*
X14049Y3688D01*
X13954Y3688D01*
X14017Y3688D02*
X14081Y3625D01*
X14175Y3783D02*
X14207Y3815D01*
X14270Y3815D01*
X14302Y3783D01*
X14302Y3752D01*
X14270Y3720D01*
X14238Y3720D01*
X14270Y3720D02*
X14302Y3688D01*
X14302Y3657D01*
X14270Y3625D01*
X14207Y3625D01*
X14175Y3657D01*
X14612Y3752D02*
X14675Y3815D01*
X14675Y3625D01*
X14612Y3625D02*
X14739Y3625D01*
X14833Y3657D02*
X14833Y3783D01*
X14865Y3815D01*
X14928Y3815D01*
X14960Y3783D01*
X14960Y3657D01*
X14928Y3625D01*
X14865Y3625D01*
X14833Y3657D01*
X14960Y3783D01*
X15054Y3815D02*
X15054Y3625D01*
X15054Y3688D02*
X15149Y3625D01*
X15054Y3688D02*
X15149Y3752D01*
X13954Y2815D02*
X13954Y2625D01*
X13954Y2815D02*
X14049Y2815D01*
X14081Y2783D01*
X14081Y2720D01*
X14049Y2688D01*
X13954Y2688D01*
X14017Y2688D02*
X14081Y2625D01*
X14175Y2815D02*
X14302Y2815D01*
X14302Y2783D01*
X14175Y2657D01*
X14175Y2625D01*
X14612Y2752D02*
X14675Y2815D01*
X14675Y2625D01*
X14612Y2625D02*
X14739Y2625D01*
X14833Y2657D02*
X14833Y2783D01*
X14865Y2815D01*
X14928Y2815D01*
X14960Y2783D01*
X14960Y2657D01*
X14928Y2625D01*
X14865Y2625D01*
X14833Y2657D01*
X14960Y2783D01*
X15054Y2815D02*
X15054Y2625D01*
X15054Y2688D02*
X15149Y2625D01*
X15054Y2688D02*
X15149Y2752D01*
X15454Y2815D02*
X15454Y2625D01*
X15454Y2815D02*
X15549Y2815D01*
X15581Y2783D01*
X15581Y2720D01*
X15549Y2688D01*
X15454Y2688D01*
X15517Y2688D02*
X15581Y2625D01*
X15675Y2783D02*
X15707Y2815D01*
X15770Y2815D01*
X15802Y2783D01*
X15802Y2752D01*
X15770Y2720D01*
X15802Y2688D01*
X15802Y2657D01*
X15770Y2625D01*
X15707Y2625D01*
X15675Y2657D01*
X15675Y2688D01*
X15707Y2720D01*
X15675Y2752D01*
X15675Y2783D01*
X15707Y2720D02*
X15770Y2720D01*
X16112Y2752D02*
X16175Y2815D01*
X16175Y2625D01*
X16112Y2625D02*
X16239Y2625D01*
X16333Y2657D02*
X16333Y2783D01*
X16365Y2815D01*
X16428Y2815D01*
X16460Y2783D01*
X16460Y2657D01*
X16428Y2625D01*
X16365Y2625D01*
X16333Y2657D01*
X16460Y2783D01*
X16554Y2815D02*
X16554Y2625D01*
X16554Y2688D02*
X16649Y2625D01*
X16554Y2688D02*
X16649Y2752D01*
X15570Y3783D02*
X15539Y3815D01*
X15475Y3815D01*
X15444Y3783D01*
X15444Y3657D01*
X15475Y3625D01*
X15539Y3625D01*
X15570Y3657D01*
X15665Y3752D02*
X15728Y3815D01*
X15728Y3625D01*
X15665Y3625D02*
X15791Y3625D01*
X15885Y3752D02*
X15949Y3815D01*
X15949Y3625D01*
X16012Y3625D02*
X15885Y3625D01*
X16178Y3657D02*
X16178Y3783D01*
X16209Y3815D01*
X16273Y3815D01*
X16305Y3783D01*
X16305Y3657D01*
X16273Y3625D01*
X16209Y3625D01*
X16178Y3657D01*
X16305Y3783D01*
X16399Y3657D02*
X16399Y3625D01*
X16399Y3657D02*
X16430Y3657D01*
X16430Y3625D01*
X16399Y3625D01*
X16509Y3752D02*
X16573Y3815D01*
X16573Y3625D01*
X16636Y3625D02*
X16509Y3625D01*
X16762Y3657D02*
X16762Y3720D01*
X16762Y3657D02*
X16794Y3625D01*
X16825Y3625D01*
X16857Y3657D01*
X16857Y3720D01*
X16762Y3657D02*
X16762Y3593D01*
X16730Y3562D01*
X16951Y3625D02*
X16951Y3815D01*
X17078Y3815D01*
X17015Y3720D02*
X16951Y3720D01*
X13954Y4875D02*
X13954Y5065D01*
X14049Y5065D01*
X14081Y5033D01*
X14081Y4970D01*
X14049Y4938D01*
X13954Y4938D01*
X14017Y4938D02*
X14081Y4875D01*
X14175Y4907D02*
X14207Y4875D01*
X14270Y4875D01*
X14302Y4907D01*
X14302Y5033D01*
X14270Y5065D01*
X14207Y5065D01*
X14175Y5033D01*
X14175Y5002D01*
X14207Y4970D01*
X14302Y4970D01*
X14612Y5002D02*
X14675Y5065D01*
X14675Y4875D01*
X14612Y4875D02*
X14739Y4875D01*
X14833Y4907D02*
X14833Y5033D01*
X14865Y5065D01*
X14928Y5065D01*
X14960Y5033D01*
X14960Y4907D01*
X14928Y4875D01*
X14865Y4875D01*
X14833Y4907D01*
X14960Y5033D01*
X15054Y5065D02*
X15054Y4875D01*
X15054Y4938D02*
X15149Y4875D01*
X15054Y4938D02*
X15149Y5002D01*
X13944Y5875D02*
X13944Y6065D01*
X14039Y6065D01*
X14070Y6033D01*
X14070Y5970D01*
X14039Y5938D01*
X13944Y5938D01*
X14007Y5938D02*
X14070Y5875D01*
X14165Y6002D02*
X14228Y6065D01*
X14228Y5875D01*
X14165Y5875D02*
X14291Y5875D01*
X14385Y5907D02*
X14385Y6033D01*
X14417Y6065D01*
X14481Y6065D01*
X14512Y6033D01*
X14512Y5907D01*
X14481Y5875D01*
X14417Y5875D01*
X14385Y5907D01*
X14512Y6033D01*
X14662Y6002D02*
X14725Y6065D01*
X14725Y5875D01*
X14662Y5875D02*
X14789Y5875D01*
X14883Y5907D02*
X14883Y6033D01*
X14915Y6065D01*
X14978Y6065D01*
X15010Y6033D01*
X15010Y5907D01*
X14978Y5875D01*
X14915Y5875D01*
X14883Y5907D01*
X15010Y6033D01*
X15104Y6065D02*
X15104Y5875D01*
X15104Y5938D02*
X15199Y5875D01*
X15104Y5938D02*
X15199Y6002D01*
X15394Y6065D02*
X15394Y5875D01*
X15394Y6065D02*
X15489Y6065D01*
X15520Y6033D01*
X15520Y5970D01*
X15489Y5938D01*
X15394Y5938D01*
X15457Y5938D02*
X15520Y5875D01*
X15615Y6002D02*
X15678Y6065D01*
X15678Y5875D01*
X15615Y5875D02*
X15741Y5875D01*
X15835Y6002D02*
X15899Y6065D01*
X15899Y5875D01*
X15962Y5875D02*
X15835Y5875D01*
X16112Y6002D02*
X16175Y6065D01*
X16175Y5875D01*
X16112Y5875D02*
X16239Y5875D01*
X16333Y5907D02*
X16333Y6033D01*
X16365Y6065D01*
X16428Y6065D01*
X16460Y6033D01*
X16460Y5907D01*
X16428Y5875D01*
X16365Y5875D01*
X16333Y5907D01*
X16460Y6033D01*
X16554Y6065D02*
X16554Y5875D01*
X16554Y5938D02*
X16649Y5875D01*
X16554Y5938D02*
X16649Y6002D01*
X15520Y5033D02*
X15489Y5065D01*
X15425Y5065D01*
X15394Y5033D01*
X15394Y4907D01*
X15425Y4875D01*
X15489Y4875D01*
X15520Y4907D01*
X15615Y5002D02*
X15678Y5065D01*
X15678Y4875D01*
X15615Y4875D02*
X15741Y4875D01*
X15835Y4875D02*
X15962Y4875D01*
X15835Y4875D02*
X15962Y5002D01*
X15962Y5033D01*
X15931Y5065D01*
X15867Y5065D01*
X15835Y5033D01*
X16128Y5033D02*
X16128Y4907D01*
X16128Y5033D02*
X16159Y5065D01*
X16223Y5065D01*
X16255Y5033D01*
X16255Y4907D01*
X16223Y4875D01*
X16159Y4875D01*
X16128Y4907D01*
X16255Y5033D01*
X16349Y4907D02*
X16349Y4875D01*
X16349Y4907D02*
X16380Y4907D01*
X16380Y4875D01*
X16349Y4875D01*
X16459Y5002D02*
X16523Y5065D01*
X16523Y4875D01*
X16586Y4875D02*
X16459Y4875D01*
X16712Y4907D02*
X16712Y4970D01*
X16712Y4907D02*
X16744Y4875D01*
X16775Y4875D01*
X16807Y4907D01*
X16807Y4970D01*
X16712Y4907D02*
X16712Y4843D01*
X16680Y4812D01*
X16901Y4875D02*
X16901Y5065D01*
X17028Y5065D01*
X16965Y4970D02*
X16901Y4970D01*
X12170Y5033D02*
X12139Y5065D01*
X12075Y5065D01*
X12044Y5033D01*
X12044Y4907D01*
X12075Y4875D01*
X12139Y4875D01*
X12170Y4907D01*
X12265Y5002D02*
X12328Y5065D01*
X12328Y4875D01*
X12265Y4875D02*
X12391Y4875D01*
X12485Y5033D02*
X12517Y5065D01*
X12581Y5065D01*
X12612Y5033D01*
X12612Y5002D01*
X12581Y4970D01*
X12549Y4970D01*
X12581Y4970D02*
X12612Y4938D01*
X12612Y4907D01*
X12581Y4875D01*
X12517Y4875D01*
X12485Y4907D01*
X12833Y5002D02*
X12896Y5065D01*
X12896Y4875D01*
X12833Y4875D02*
X12960Y4875D01*
X13054Y4907D02*
X13054Y5033D01*
X13086Y5065D01*
X13149Y5065D01*
X13181Y5033D01*
X13181Y4907D01*
X13149Y4875D01*
X13086Y4875D01*
X13054Y4907D01*
X13181Y5033D01*
X13275Y5002D02*
X13275Y4875D01*
X13275Y5002D02*
X13370Y5002D01*
X13402Y4970D01*
X13402Y4875D01*
X13496Y4875D02*
X13496Y5065D01*
X13623Y5065D01*
X13559Y4970D02*
X13496Y4970D01*
X12170Y3783D02*
X12139Y3815D01*
X12075Y3815D01*
X12044Y3783D01*
X12044Y3657D01*
X12075Y3625D01*
X12139Y3625D01*
X12170Y3657D01*
X12265Y3752D02*
X12328Y3815D01*
X12328Y3625D01*
X12265Y3625D02*
X12391Y3625D01*
X12581Y3625D02*
X12581Y3815D01*
X12485Y3720D01*
X12612Y3720D01*
X12833Y3752D02*
X12896Y3815D01*
X12896Y3625D01*
X12833Y3625D02*
X12960Y3625D01*
X13054Y3657D02*
X13054Y3783D01*
X13086Y3815D01*
X13149Y3815D01*
X13181Y3783D01*
X13181Y3657D01*
X13149Y3625D01*
X13086Y3625D01*
X13054Y3657D01*
X13181Y3783D01*
X13275Y3752D02*
X13275Y3625D01*
X13275Y3752D02*
X13370Y3752D01*
X13402Y3720D01*
X13402Y3625D01*
X13496Y3625D02*
X13496Y3815D01*
X13623Y3815D01*
X13559Y3720D02*
X13496Y3720D01*
X18685Y4789D02*
X18717Y4820D01*
X18685Y4789D02*
X18685Y4725D01*
X18717Y4694D01*
X18843Y4694D01*
X18875Y4725D01*
X18875Y4789D01*
X18843Y4820D01*
X18748Y4915D02*
X18685Y4978D01*
X18875Y4978D01*
X18875Y4915D02*
X18875Y5041D01*
X18685Y5135D02*
X18685Y5262D01*
X18685Y5135D02*
X18780Y5135D01*
X18748Y5199D01*
X18748Y5231D01*
X18780Y5262D01*
X18843Y5262D01*
X18875Y5231D01*
X18875Y5167D01*
X18843Y5135D01*
X18843Y5478D02*
X18717Y5478D01*
X18685Y5509D01*
X18685Y5573D01*
X18717Y5605D01*
X18843Y5605D01*
X18875Y5573D01*
X18875Y5509D01*
X18843Y5478D01*
X18717Y5605D01*
X18843Y5699D02*
X18875Y5699D01*
X18843Y5699D02*
X18843Y5730D01*
X18875Y5730D01*
X18875Y5699D01*
X18748Y5809D02*
X18685Y5873D01*
X18875Y5873D01*
X18875Y5936D02*
X18875Y5809D01*
X18843Y6062D02*
X18780Y6062D01*
X18843Y6062D02*
X18875Y6094D01*
X18875Y6125D01*
X18843Y6157D01*
X18780Y6157D01*
X18843Y6062D02*
X18907Y6062D01*
X18938Y6030D01*
X18875Y6251D02*
X18685Y6251D01*
X18685Y6378D01*
X18780Y6315D02*
X18780Y6251D01*
X17717Y4820D02*
X17685Y4789D01*
X17685Y4725D01*
X17717Y4694D01*
X17843Y4694D01*
X17875Y4725D01*
X17875Y4789D01*
X17843Y4820D01*
X17748Y4915D02*
X17685Y4978D01*
X17875Y4978D01*
X17875Y4915D02*
X17875Y5041D01*
X17717Y5199D02*
X17685Y5262D01*
X17717Y5199D02*
X17780Y5135D01*
X17843Y5135D01*
X17875Y5167D01*
X17875Y5231D01*
X17843Y5262D01*
X17812Y5262D01*
X17780Y5231D01*
X17780Y5135D01*
X17843Y5478D02*
X17717Y5478D01*
X17685Y5509D01*
X17685Y5573D01*
X17717Y5605D01*
X17843Y5605D01*
X17875Y5573D01*
X17875Y5509D01*
X17843Y5478D01*
X17717Y5605D01*
X17843Y5699D02*
X17875Y5699D01*
X17843Y5699D02*
X17843Y5730D01*
X17875Y5730D01*
X17875Y5699D01*
X17748Y5809D02*
X17685Y5873D01*
X17875Y5873D01*
X17875Y5936D02*
X17875Y5809D01*
X17843Y6062D02*
X17780Y6062D01*
X17843Y6062D02*
X17875Y6094D01*
X17875Y6125D01*
X17843Y6157D01*
X17780Y6157D01*
X17843Y6062D02*
X17907Y6062D01*
X17938Y6030D01*
X17875Y6251D02*
X17685Y6251D01*
X17685Y6378D01*
X17780Y6315D02*
X17780Y6251D01*
D12*
X26900Y6700D02*
X33050Y6700D01*
X26900Y6700D02*
X26900Y1300D01*
X33050Y1300D01*
X33050Y6700D01*
D11*
X31150Y3200D02*
X30750Y3200D01*
X30750Y3400D01*
X30816Y3467D01*
X30950Y3467D01*
X31017Y3400D01*
X31017Y3200D01*
X31017Y3333D02*
X31150Y3467D01*
X31083Y3660D02*
X31150Y3727D01*
X31150Y3794D01*
X31083Y3861D01*
X30750Y3861D01*
X30750Y3927D02*
X30750Y3794D01*
X31150Y4121D02*
X31150Y4388D01*
X31150Y4121D02*
X30883Y4388D01*
X30816Y4388D01*
X30750Y4321D01*
X30750Y4188D01*
X30816Y4121D01*
X30750Y4581D02*
X30750Y4848D01*
X30750Y4581D02*
X30950Y4581D01*
X30883Y4715D01*
X30883Y4781D01*
X30950Y4848D01*
X31083Y4848D01*
X31150Y4781D01*
X31150Y4648D01*
X31083Y4581D01*
D14*
X3967Y5070D02*
X3935Y5039D01*
X3935Y4975D01*
X3967Y4944D01*
X4093Y4944D01*
X4125Y4975D01*
X4125Y5039D01*
X4093Y5070D01*
X3998Y5165D02*
X3935Y5228D01*
X4125Y5228D01*
X4125Y5165D02*
X4125Y5291D01*
X3935Y5385D02*
X3935Y5512D01*
X3967Y5512D01*
X4093Y5385D01*
X4125Y5385D01*
X3998Y5694D02*
X3935Y5757D01*
X4125Y5757D01*
X4125Y5694D02*
X4125Y5820D01*
X4093Y5946D02*
X4030Y5946D01*
X4093Y5946D02*
X4125Y5978D01*
X4125Y6010D01*
X4093Y6041D01*
X4030Y6041D01*
X4093Y5946D02*
X4157Y5946D01*
X4188Y5915D01*
X4125Y6135D02*
X3935Y6135D01*
X3935Y6262D01*
X4030Y6199D02*
X4030Y6135D01*
X2500Y2375D02*
X250Y2375D01*
X2500Y2375D02*
X2500Y3125D01*
X250Y3125D01*
X250Y4875D02*
X2500Y4875D01*
X2500Y5625D01*
X250Y5625D01*
M02*
