G04 EAGLE Gerber X2 export*
G75*
%MOIN*%
%FSLAX24Y24*%
%LPD*%
%AMOC8*
5,1,8,0,0,1.08239X$1,22.5*%
G01*
%ADD10C,0.010000*%


D10*
X0Y2000D02*
X2500Y2000D01*
X3250Y1250D01*
X9250Y1250D01*
X10500Y0D01*
X33000Y0D01*
X33000Y8000D01*
X10500Y8000D01*
X9250Y6750D01*
X3250Y6750D01*
X2500Y6000D01*
X0Y6000D01*
X0Y2000D01*
X31021Y2640D02*
X31063Y2637D01*
X31104Y2632D01*
X31145Y2624D01*
X31186Y2613D01*
X31226Y2599D01*
X31264Y2583D01*
X31302Y2565D01*
X31338Y2544D01*
X31373Y2521D01*
X31406Y2495D01*
X31438Y2467D01*
X31467Y2438D01*
X31495Y2406D01*
X31521Y2373D01*
X31544Y2338D01*
X31565Y2302D01*
X31583Y2264D01*
X31599Y2226D01*
X31613Y2186D01*
X31624Y2145D01*
X31632Y2104D01*
X31637Y2063D01*
X31640Y2021D01*
X31640Y1979D01*
X31637Y1937D01*
X31632Y1896D01*
X31624Y1855D01*
X31613Y1814D01*
X31599Y1774D01*
X31583Y1736D01*
X31565Y1698D01*
X31544Y1662D01*
X31521Y1627D01*
X31495Y1594D01*
X31467Y1562D01*
X31438Y1533D01*
X31406Y1505D01*
X31373Y1479D01*
X31338Y1456D01*
X31302Y1435D01*
X31264Y1417D01*
X31226Y1401D01*
X31186Y1387D01*
X31145Y1376D01*
X31104Y1368D01*
X31063Y1363D01*
X31021Y1360D01*
X30979Y1360D01*
X30937Y1363D01*
X30896Y1368D01*
X30855Y1376D01*
X30814Y1387D01*
X30774Y1401D01*
X30736Y1417D01*
X30698Y1435D01*
X30662Y1456D01*
X30627Y1479D01*
X30594Y1505D01*
X30562Y1533D01*
X30533Y1562D01*
X30505Y1594D01*
X30479Y1627D01*
X30456Y1662D01*
X30435Y1698D01*
X30417Y1736D01*
X30401Y1774D01*
X30387Y1814D01*
X30376Y1855D01*
X30368Y1896D01*
X30363Y1937D01*
X30360Y1979D01*
X30360Y2021D01*
X30363Y2063D01*
X30368Y2104D01*
X30376Y2145D01*
X30387Y2186D01*
X30401Y2226D01*
X30417Y2264D01*
X30435Y2302D01*
X30456Y2338D01*
X30479Y2373D01*
X30505Y2406D01*
X30533Y2438D01*
X30562Y2467D01*
X30594Y2495D01*
X30627Y2521D01*
X30662Y2544D01*
X30698Y2565D01*
X30736Y2583D01*
X30774Y2599D01*
X30814Y2613D01*
X30855Y2624D01*
X30896Y2632D01*
X30937Y2637D01*
X30979Y2640D01*
X31021Y2640D01*
X31021Y6640D02*
X31063Y6637D01*
X31104Y6632D01*
X31145Y6624D01*
X31186Y6613D01*
X31226Y6599D01*
X31264Y6583D01*
X31302Y6565D01*
X31338Y6544D01*
X31373Y6521D01*
X31406Y6495D01*
X31438Y6467D01*
X31467Y6438D01*
X31495Y6406D01*
X31521Y6373D01*
X31544Y6338D01*
X31565Y6302D01*
X31583Y6264D01*
X31599Y6226D01*
X31613Y6186D01*
X31624Y6145D01*
X31632Y6104D01*
X31637Y6063D01*
X31640Y6021D01*
X31640Y5979D01*
X31637Y5937D01*
X31632Y5896D01*
X31624Y5855D01*
X31613Y5814D01*
X31599Y5774D01*
X31583Y5736D01*
X31565Y5698D01*
X31544Y5662D01*
X31521Y5627D01*
X31495Y5594D01*
X31467Y5562D01*
X31438Y5533D01*
X31406Y5505D01*
X31373Y5479D01*
X31338Y5456D01*
X31302Y5435D01*
X31264Y5417D01*
X31226Y5401D01*
X31186Y5387D01*
X31145Y5376D01*
X31104Y5368D01*
X31063Y5363D01*
X31021Y5360D01*
X30979Y5360D01*
X30937Y5363D01*
X30896Y5368D01*
X30855Y5376D01*
X30814Y5387D01*
X30774Y5401D01*
X30736Y5417D01*
X30698Y5435D01*
X30662Y5456D01*
X30627Y5479D01*
X30594Y5505D01*
X30562Y5533D01*
X30533Y5562D01*
X30505Y5594D01*
X30479Y5627D01*
X30456Y5662D01*
X30435Y5698D01*
X30417Y5736D01*
X30401Y5774D01*
X30387Y5814D01*
X30376Y5855D01*
X30368Y5896D01*
X30363Y5937D01*
X30360Y5979D01*
X30360Y6021D01*
X30363Y6063D01*
X30368Y6104D01*
X30376Y6145D01*
X30387Y6186D01*
X30401Y6226D01*
X30417Y6264D01*
X30435Y6302D01*
X30456Y6338D01*
X30479Y6373D01*
X30505Y6406D01*
X30533Y6438D01*
X30562Y6467D01*
X30594Y6495D01*
X30627Y6521D01*
X30662Y6544D01*
X30698Y6565D01*
X30736Y6583D01*
X30774Y6599D01*
X30814Y6613D01*
X30855Y6624D01*
X30896Y6632D01*
X30937Y6637D01*
X30979Y6640D01*
X31021Y6640D01*
M02*
