G75*
%MOIN*%
%OFA0B0*%
%FSLAX25Y25*%
%IPPOS*%
%LPD*%
%AMOC8*
5,1,8,0,0,1.08239X$1,22.5*
%
%ADD10C,0.01000*%
%ADD11C,0.00800*%
%ADD12C,0.00500*%
%ADD13C,0.00600*%
D10*
X0054300Y0021500D02*
X0060800Y0021500D01*
X0060800Y0036500D01*
X0054300Y0036500D01*
X0060800Y0036500D02*
X0060800Y0051500D01*
X0054300Y0051500D01*
X0054300Y0044500D02*
X0054300Y0043500D01*
X0059300Y0043500D01*
X0059300Y0044500D01*
X0054300Y0044500D01*
X0076093Y0045500D02*
X0076095Y0045553D01*
X0076101Y0045605D01*
X0076111Y0045657D01*
X0076124Y0045708D01*
X0076142Y0045758D01*
X0076163Y0045807D01*
X0076188Y0045854D01*
X0076216Y0045898D01*
X0076247Y0045941D01*
X0076282Y0045981D01*
X0076319Y0046018D01*
X0076359Y0046053D01*
X0076402Y0046084D01*
X0076447Y0046112D01*
X0076493Y0046137D01*
X0076542Y0046158D01*
X0076592Y0046176D01*
X0076643Y0046189D01*
X0076695Y0046199D01*
X0076747Y0046205D01*
X0076800Y0046207D01*
X0076853Y0046205D01*
X0076905Y0046199D01*
X0076957Y0046189D01*
X0077008Y0046176D01*
X0077058Y0046158D01*
X0077107Y0046137D01*
X0077154Y0046112D01*
X0077198Y0046084D01*
X0077241Y0046053D01*
X0077281Y0046018D01*
X0077318Y0045981D01*
X0077353Y0045941D01*
X0077384Y0045898D01*
X0077412Y0045853D01*
X0077437Y0045807D01*
X0077458Y0045758D01*
X0077476Y0045708D01*
X0077489Y0045657D01*
X0077499Y0045605D01*
X0077505Y0045553D01*
X0077507Y0045500D01*
X0077505Y0045447D01*
X0077499Y0045395D01*
X0077489Y0045343D01*
X0077476Y0045292D01*
X0077458Y0045242D01*
X0077437Y0045193D01*
X0077412Y0045146D01*
X0077384Y0045102D01*
X0077353Y0045059D01*
X0077318Y0045019D01*
X0077281Y0044982D01*
X0077241Y0044947D01*
X0077198Y0044916D01*
X0077153Y0044888D01*
X0077107Y0044863D01*
X0077058Y0044842D01*
X0077008Y0044824D01*
X0076957Y0044811D01*
X0076905Y0044801D01*
X0076853Y0044795D01*
X0076800Y0044793D01*
X0076747Y0044795D01*
X0076695Y0044801D01*
X0076643Y0044811D01*
X0076592Y0044824D01*
X0076542Y0044842D01*
X0076493Y0044863D01*
X0076446Y0044888D01*
X0076402Y0044916D01*
X0076359Y0044947D01*
X0076319Y0044982D01*
X0076282Y0045019D01*
X0076247Y0045059D01*
X0076216Y0045102D01*
X0076188Y0045147D01*
X0076163Y0045193D01*
X0076142Y0045242D01*
X0076124Y0045292D01*
X0076111Y0045343D01*
X0076101Y0045395D01*
X0076095Y0045447D01*
X0076093Y0045500D01*
X0074679Y0045500D02*
X0074681Y0045592D01*
X0074687Y0045684D01*
X0074697Y0045775D01*
X0074711Y0045866D01*
X0074729Y0045956D01*
X0074750Y0046045D01*
X0074776Y0046134D01*
X0074805Y0046221D01*
X0074838Y0046306D01*
X0074875Y0046391D01*
X0074915Y0046473D01*
X0074959Y0046554D01*
X0075007Y0046633D01*
X0075057Y0046709D01*
X0075111Y0046784D01*
X0075169Y0046856D01*
X0075229Y0046925D01*
X0075292Y0046992D01*
X0075358Y0047056D01*
X0075427Y0047117D01*
X0075498Y0047175D01*
X0075572Y0047229D01*
X0075648Y0047281D01*
X0075726Y0047329D01*
X0075807Y0047374D01*
X0075889Y0047415D01*
X0075972Y0047453D01*
X0076058Y0047487D01*
X0076145Y0047517D01*
X0076233Y0047544D01*
X0076322Y0047566D01*
X0076412Y0047585D01*
X0076502Y0047600D01*
X0076594Y0047611D01*
X0076685Y0047618D01*
X0076777Y0047621D01*
X0076869Y0047620D01*
X0076961Y0047615D01*
X0077052Y0047606D01*
X0077143Y0047593D01*
X0077233Y0047576D01*
X0077323Y0047556D01*
X0077412Y0047531D01*
X0077499Y0047503D01*
X0077585Y0047470D01*
X0077670Y0047435D01*
X0077753Y0047395D01*
X0077834Y0047352D01*
X0077913Y0047305D01*
X0077990Y0047256D01*
X0078065Y0047202D01*
X0078138Y0047146D01*
X0078208Y0047086D01*
X0078275Y0047024D01*
X0078340Y0046959D01*
X0078402Y0046891D01*
X0078460Y0046820D01*
X0078516Y0046747D01*
X0078568Y0046671D01*
X0078617Y0046593D01*
X0078663Y0046514D01*
X0078705Y0046432D01*
X0078744Y0046349D01*
X0078779Y0046264D01*
X0078810Y0046177D01*
X0078837Y0046090D01*
X0078861Y0046001D01*
X0078881Y0045911D01*
X0078897Y0045820D01*
X0078909Y0045729D01*
X0078917Y0045638D01*
X0078921Y0045546D01*
X0078921Y0045454D01*
X0078917Y0045362D01*
X0078909Y0045271D01*
X0078897Y0045180D01*
X0078881Y0045089D01*
X0078861Y0044999D01*
X0078837Y0044910D01*
X0078810Y0044823D01*
X0078779Y0044736D01*
X0078744Y0044651D01*
X0078705Y0044568D01*
X0078663Y0044486D01*
X0078617Y0044407D01*
X0078568Y0044329D01*
X0078516Y0044253D01*
X0078460Y0044180D01*
X0078402Y0044109D01*
X0078340Y0044041D01*
X0078275Y0043976D01*
X0078208Y0043914D01*
X0078138Y0043854D01*
X0078065Y0043798D01*
X0077990Y0043744D01*
X0077913Y0043695D01*
X0077834Y0043648D01*
X0077753Y0043605D01*
X0077670Y0043565D01*
X0077585Y0043530D01*
X0077499Y0043497D01*
X0077412Y0043469D01*
X0077323Y0043444D01*
X0077233Y0043424D01*
X0077143Y0043407D01*
X0077052Y0043394D01*
X0076961Y0043385D01*
X0076869Y0043380D01*
X0076777Y0043379D01*
X0076685Y0043382D01*
X0076594Y0043389D01*
X0076502Y0043400D01*
X0076412Y0043415D01*
X0076322Y0043434D01*
X0076233Y0043456D01*
X0076145Y0043483D01*
X0076058Y0043513D01*
X0075972Y0043547D01*
X0075889Y0043585D01*
X0075807Y0043626D01*
X0075726Y0043671D01*
X0075648Y0043719D01*
X0075572Y0043771D01*
X0075498Y0043825D01*
X0075427Y0043883D01*
X0075358Y0043944D01*
X0075292Y0044008D01*
X0075229Y0044075D01*
X0075169Y0044144D01*
X0075111Y0044216D01*
X0075057Y0044291D01*
X0075007Y0044367D01*
X0074959Y0044446D01*
X0074915Y0044527D01*
X0074875Y0044609D01*
X0074838Y0044694D01*
X0074805Y0044779D01*
X0074776Y0044866D01*
X0074750Y0044955D01*
X0074729Y0045044D01*
X0074711Y0045134D01*
X0074697Y0045225D01*
X0074687Y0045316D01*
X0074681Y0045408D01*
X0074679Y0045500D01*
X0059300Y0029500D02*
X0054300Y0029500D01*
X0054300Y0028500D01*
X0059300Y0028500D01*
X0059300Y0029500D01*
D11*
X0010089Y0004400D02*
X0009200Y0004400D01*
X0010089Y0004400D02*
X0010147Y0004402D01*
X0010205Y0004408D01*
X0010262Y0004417D01*
X0010319Y0004430D01*
X0010375Y0004447D01*
X0010429Y0004468D01*
X0010482Y0004492D01*
X0010534Y0004519D01*
X0010583Y0004550D01*
X0010630Y0004584D01*
X0010675Y0004621D01*
X0010718Y0004660D01*
X0010757Y0004703D01*
X0010794Y0004748D01*
X0010828Y0004795D01*
X0010859Y0004845D01*
X0010886Y0004896D01*
X0010910Y0004949D01*
X0010931Y0005003D01*
X0010948Y0005059D01*
X0010961Y0005116D01*
X0010970Y0005173D01*
X0010976Y0005231D01*
X0010978Y0005289D01*
X0010976Y0005347D01*
X0010970Y0005405D01*
X0010961Y0005462D01*
X0010948Y0005519D01*
X0010931Y0005575D01*
X0010910Y0005629D01*
X0010886Y0005682D01*
X0010859Y0005734D01*
X0010828Y0005783D01*
X0010794Y0005830D01*
X0010757Y0005875D01*
X0010718Y0005918D01*
X0010675Y0005957D01*
X0010630Y0005994D01*
X0010583Y0006028D01*
X0010533Y0006059D01*
X0010482Y0006086D01*
X0010429Y0006110D01*
X0010375Y0006131D01*
X0010319Y0006148D01*
X0010262Y0006161D01*
X0010205Y0006170D01*
X0010147Y0006176D01*
X0010089Y0006178D01*
X0010267Y0006178D02*
X0009556Y0006178D01*
X0010267Y0006178D02*
X0010319Y0006180D01*
X0010371Y0006186D01*
X0010422Y0006195D01*
X0010472Y0006208D01*
X0010521Y0006225D01*
X0010569Y0006245D01*
X0010615Y0006269D01*
X0010659Y0006296D01*
X0010702Y0006326D01*
X0010741Y0006359D01*
X0010779Y0006396D01*
X0010814Y0006434D01*
X0010845Y0006475D01*
X0010874Y0006519D01*
X0010899Y0006564D01*
X0010921Y0006611D01*
X0010940Y0006659D01*
X0010955Y0006709D01*
X0010966Y0006760D01*
X0010974Y0006811D01*
X0010978Y0006863D01*
X0010978Y0006915D01*
X0010974Y0006967D01*
X0010966Y0007018D01*
X0010955Y0007069D01*
X0010940Y0007119D01*
X0010921Y0007167D01*
X0010899Y0007214D01*
X0010874Y0007259D01*
X0010845Y0007303D01*
X0010814Y0007344D01*
X0010779Y0007382D01*
X0010741Y0007419D01*
X0010702Y0007452D01*
X0010659Y0007482D01*
X0010615Y0007509D01*
X0010569Y0007533D01*
X0010521Y0007553D01*
X0010472Y0007570D01*
X0010422Y0007583D01*
X0010371Y0007592D01*
X0010319Y0007598D01*
X0010267Y0007600D01*
X0009200Y0007600D01*
X0009300Y0009000D02*
X0014300Y0009000D01*
X0016800Y0011500D01*
X0016800Y0016500D01*
X0014300Y0019000D01*
X0016800Y0021500D01*
X0016800Y0026500D01*
X0014300Y0029000D01*
X0016800Y0031500D01*
X0016800Y0036500D01*
X0014300Y0039000D01*
X0016800Y0041500D01*
X0016800Y0046500D01*
X0014300Y0049000D01*
X0009300Y0049000D01*
X0006800Y0046500D01*
X0006800Y0041500D01*
X0009300Y0039000D01*
X0006800Y0036500D01*
X0006800Y0031500D01*
X0009300Y0029000D01*
X0006800Y0026500D01*
X0006800Y0021500D01*
X0009300Y0019000D01*
X0006800Y0016500D01*
X0006800Y0011500D01*
X0009300Y0009000D01*
X0012622Y0007600D02*
X0013689Y0004400D01*
X0014756Y0007600D01*
X0016400Y0007600D02*
X0017467Y0007600D01*
X0017519Y0007598D01*
X0017571Y0007592D01*
X0017622Y0007583D01*
X0017672Y0007570D01*
X0017721Y0007553D01*
X0017769Y0007533D01*
X0017815Y0007509D01*
X0017859Y0007482D01*
X0017902Y0007452D01*
X0017941Y0007419D01*
X0017979Y0007382D01*
X0018014Y0007344D01*
X0018045Y0007303D01*
X0018074Y0007259D01*
X0018099Y0007214D01*
X0018121Y0007167D01*
X0018140Y0007119D01*
X0018155Y0007069D01*
X0018166Y0007018D01*
X0018174Y0006967D01*
X0018178Y0006915D01*
X0018178Y0006863D01*
X0018174Y0006811D01*
X0018166Y0006760D01*
X0018155Y0006709D01*
X0018140Y0006659D01*
X0018121Y0006611D01*
X0018099Y0006564D01*
X0018074Y0006519D01*
X0018045Y0006475D01*
X0018014Y0006434D01*
X0017979Y0006396D01*
X0017941Y0006359D01*
X0017902Y0006326D01*
X0017859Y0006296D01*
X0017815Y0006269D01*
X0017769Y0006245D01*
X0017721Y0006225D01*
X0017672Y0006208D01*
X0017622Y0006195D01*
X0017571Y0006186D01*
X0017519Y0006180D01*
X0017467Y0006178D01*
X0016756Y0006178D01*
X0017289Y0006178D02*
X0017347Y0006176D01*
X0017405Y0006170D01*
X0017462Y0006161D01*
X0017519Y0006148D01*
X0017575Y0006131D01*
X0017629Y0006110D01*
X0017682Y0006086D01*
X0017733Y0006059D01*
X0017783Y0006028D01*
X0017830Y0005994D01*
X0017875Y0005957D01*
X0017918Y0005918D01*
X0017957Y0005875D01*
X0017994Y0005830D01*
X0018028Y0005783D01*
X0018059Y0005734D01*
X0018086Y0005682D01*
X0018110Y0005629D01*
X0018131Y0005575D01*
X0018148Y0005519D01*
X0018161Y0005462D01*
X0018170Y0005405D01*
X0018176Y0005347D01*
X0018178Y0005289D01*
X0018176Y0005231D01*
X0018170Y0005173D01*
X0018161Y0005116D01*
X0018148Y0005059D01*
X0018131Y0005003D01*
X0018110Y0004949D01*
X0018086Y0004896D01*
X0018059Y0004845D01*
X0018028Y0004795D01*
X0017994Y0004748D01*
X0017957Y0004703D01*
X0017918Y0004660D01*
X0017875Y0004621D01*
X0017830Y0004584D01*
X0017783Y0004550D01*
X0017734Y0004519D01*
X0017682Y0004492D01*
X0017629Y0004468D01*
X0017575Y0004447D01*
X0017519Y0004430D01*
X0017462Y0004417D01*
X0017405Y0004408D01*
X0017347Y0004402D01*
X0017289Y0004400D01*
X0016400Y0004400D01*
X0006400Y0021900D02*
X0006400Y0022611D01*
X0006400Y0022256D02*
X0003200Y0022256D01*
X0003200Y0022611D02*
X0003200Y0021900D01*
X0003200Y0024367D02*
X0006400Y0026144D01*
X0003200Y0026144D01*
X0003200Y0024367D02*
X0006400Y0024367D01*
X0005511Y0029400D02*
X0004089Y0029400D01*
X0004031Y0029402D01*
X0003973Y0029408D01*
X0003916Y0029417D01*
X0003859Y0029430D01*
X0003803Y0029447D01*
X0003749Y0029468D01*
X0003696Y0029492D01*
X0003644Y0029519D01*
X0003595Y0029550D01*
X0003548Y0029584D01*
X0003503Y0029621D01*
X0003460Y0029660D01*
X0003421Y0029703D01*
X0003384Y0029748D01*
X0003350Y0029795D01*
X0003319Y0029845D01*
X0003292Y0029896D01*
X0003268Y0029949D01*
X0003247Y0030003D01*
X0003230Y0030059D01*
X0003217Y0030116D01*
X0003208Y0030173D01*
X0003202Y0030231D01*
X0003200Y0030289D01*
X0003202Y0030347D01*
X0003208Y0030405D01*
X0003217Y0030462D01*
X0003230Y0030519D01*
X0003247Y0030575D01*
X0003268Y0030629D01*
X0003292Y0030682D01*
X0003319Y0030734D01*
X0003350Y0030783D01*
X0003384Y0030830D01*
X0003421Y0030875D01*
X0003460Y0030918D01*
X0003503Y0030957D01*
X0003548Y0030994D01*
X0003595Y0031028D01*
X0003645Y0031059D01*
X0003696Y0031086D01*
X0003749Y0031110D01*
X0003803Y0031131D01*
X0003859Y0031148D01*
X0003916Y0031161D01*
X0003973Y0031170D01*
X0004031Y0031176D01*
X0004089Y0031178D01*
X0005511Y0031178D01*
X0005569Y0031176D01*
X0005627Y0031170D01*
X0005684Y0031161D01*
X0005741Y0031148D01*
X0005797Y0031131D01*
X0005851Y0031110D01*
X0005904Y0031086D01*
X0005955Y0031059D01*
X0006005Y0031028D01*
X0006052Y0030994D01*
X0006097Y0030957D01*
X0006140Y0030918D01*
X0006179Y0030875D01*
X0006216Y0030830D01*
X0006250Y0030783D01*
X0006281Y0030734D01*
X0006308Y0030682D01*
X0006332Y0030629D01*
X0006353Y0030575D01*
X0006370Y0030519D01*
X0006383Y0030462D01*
X0006392Y0030405D01*
X0006398Y0030347D01*
X0006400Y0030289D01*
X0006398Y0030231D01*
X0006392Y0030173D01*
X0006383Y0030116D01*
X0006370Y0030059D01*
X0006353Y0030003D01*
X0006332Y0029949D01*
X0006308Y0029896D01*
X0006281Y0029845D01*
X0006250Y0029795D01*
X0006216Y0029748D01*
X0006179Y0029703D01*
X0006140Y0029660D01*
X0006097Y0029621D01*
X0006052Y0029584D01*
X0006005Y0029550D01*
X0005956Y0029519D01*
X0005904Y0029492D01*
X0005851Y0029468D01*
X0005797Y0029447D01*
X0005741Y0029430D01*
X0005684Y0029417D01*
X0005627Y0029408D01*
X0005569Y0029402D01*
X0005511Y0029400D01*
X0005511Y0033120D02*
X0003200Y0033120D01*
X0005511Y0033120D02*
X0005569Y0033122D01*
X0005627Y0033128D01*
X0005684Y0033137D01*
X0005741Y0033150D01*
X0005797Y0033167D01*
X0005851Y0033188D01*
X0005904Y0033212D01*
X0005956Y0033239D01*
X0006005Y0033270D01*
X0006052Y0033304D01*
X0006097Y0033341D01*
X0006140Y0033380D01*
X0006179Y0033423D01*
X0006216Y0033468D01*
X0006250Y0033515D01*
X0006281Y0033565D01*
X0006308Y0033616D01*
X0006332Y0033669D01*
X0006353Y0033723D01*
X0006370Y0033779D01*
X0006383Y0033836D01*
X0006392Y0033893D01*
X0006398Y0033951D01*
X0006400Y0034009D01*
X0006398Y0034067D01*
X0006392Y0034125D01*
X0006383Y0034182D01*
X0006370Y0034239D01*
X0006353Y0034295D01*
X0006332Y0034349D01*
X0006308Y0034402D01*
X0006281Y0034454D01*
X0006250Y0034503D01*
X0006216Y0034550D01*
X0006179Y0034595D01*
X0006140Y0034638D01*
X0006097Y0034677D01*
X0006052Y0034714D01*
X0006005Y0034748D01*
X0005955Y0034779D01*
X0005904Y0034806D01*
X0005851Y0034830D01*
X0005797Y0034851D01*
X0005741Y0034868D01*
X0005684Y0034881D01*
X0005627Y0034890D01*
X0005569Y0034896D01*
X0005511Y0034898D01*
X0003200Y0034898D01*
X0003200Y0036600D02*
X0003200Y0038378D01*
X0003200Y0037489D02*
X0006400Y0037489D01*
X0009411Y0050400D02*
X0010478Y0050400D01*
X0010478Y0052178D01*
X0009944Y0052178D01*
X0008700Y0051111D02*
X0008702Y0051060D01*
X0008707Y0051010D01*
X0008716Y0050960D01*
X0008729Y0050911D01*
X0008745Y0050863D01*
X0008764Y0050816D01*
X0008787Y0050770D01*
X0008813Y0050727D01*
X0008842Y0050685D01*
X0008874Y0050645D01*
X0008908Y0050608D01*
X0008945Y0050574D01*
X0008985Y0050542D01*
X0009027Y0050513D01*
X0009070Y0050487D01*
X0009116Y0050464D01*
X0009163Y0050445D01*
X0009211Y0050429D01*
X0009260Y0050416D01*
X0009310Y0050407D01*
X0009360Y0050402D01*
X0009411Y0050400D01*
X0008700Y0051111D02*
X0008700Y0052889D01*
X0008702Y0052942D01*
X0008708Y0052995D01*
X0008718Y0053047D01*
X0008732Y0053099D01*
X0008749Y0053149D01*
X0008770Y0053197D01*
X0008795Y0053244D01*
X0008824Y0053290D01*
X0008855Y0053332D01*
X0008890Y0053373D01*
X0008927Y0053410D01*
X0008968Y0053445D01*
X0009010Y0053476D01*
X0009055Y0053505D01*
X0009103Y0053530D01*
X0009151Y0053551D01*
X0009201Y0053568D01*
X0009253Y0053582D01*
X0009305Y0053592D01*
X0009358Y0053598D01*
X0009411Y0053600D01*
X0010478Y0053600D01*
X0012540Y0053600D02*
X0014318Y0050400D01*
X0014318Y0053600D01*
X0012540Y0053600D02*
X0012540Y0050400D01*
X0016380Y0050400D02*
X0017269Y0050400D01*
X0016380Y0050400D02*
X0016380Y0053600D01*
X0017269Y0053600D01*
X0017327Y0053598D01*
X0017385Y0053592D01*
X0017442Y0053583D01*
X0017499Y0053570D01*
X0017555Y0053553D01*
X0017609Y0053532D01*
X0017662Y0053508D01*
X0017714Y0053481D01*
X0017763Y0053450D01*
X0017810Y0053416D01*
X0017855Y0053379D01*
X0017898Y0053340D01*
X0017937Y0053297D01*
X0017974Y0053252D01*
X0018008Y0053205D01*
X0018039Y0053156D01*
X0018066Y0053104D01*
X0018090Y0053051D01*
X0018111Y0052997D01*
X0018128Y0052941D01*
X0018141Y0052884D01*
X0018150Y0052827D01*
X0018156Y0052769D01*
X0018158Y0052711D01*
X0018158Y0051289D01*
X0018156Y0051231D01*
X0018150Y0051173D01*
X0018141Y0051116D01*
X0018128Y0051059D01*
X0018111Y0051003D01*
X0018090Y0050949D01*
X0018066Y0050896D01*
X0018039Y0050845D01*
X0018008Y0050795D01*
X0017974Y0050748D01*
X0017937Y0050703D01*
X0017898Y0050660D01*
X0017855Y0050621D01*
X0017810Y0050584D01*
X0017763Y0050550D01*
X0017714Y0050519D01*
X0017662Y0050492D01*
X0017609Y0050468D01*
X0017555Y0050447D01*
X0017499Y0050430D01*
X0017442Y0050417D01*
X0017385Y0050408D01*
X0017327Y0050402D01*
X0017269Y0050400D01*
D12*
X0021572Y0049596D02*
X0022628Y0048751D01*
X0023050Y0049174D02*
X0023048Y0049211D01*
X0023043Y0049248D01*
X0023034Y0049284D01*
X0023022Y0049320D01*
X0023006Y0049354D01*
X0022988Y0049386D01*
X0022966Y0049416D01*
X0022942Y0049444D01*
X0022914Y0049470D01*
X0022885Y0049493D01*
X0022854Y0049513D01*
X0022820Y0049530D01*
X0022786Y0049544D01*
X0023050Y0049174D02*
X0023048Y0049137D01*
X0023043Y0049100D01*
X0023034Y0049064D01*
X0023022Y0049028D01*
X0023006Y0048994D01*
X0022988Y0048962D01*
X0022966Y0048932D01*
X0022942Y0048904D01*
X0022914Y0048878D01*
X0022885Y0048855D01*
X0022854Y0048835D01*
X0022820Y0048818D01*
X0022786Y0048804D01*
X0021414Y0049544D02*
X0021380Y0049530D01*
X0021346Y0049513D01*
X0021315Y0049493D01*
X0021286Y0049470D01*
X0021259Y0049444D01*
X0021234Y0049416D01*
X0021212Y0049386D01*
X0021194Y0049354D01*
X0021178Y0049320D01*
X0021166Y0049284D01*
X0021157Y0049248D01*
X0021152Y0049211D01*
X0021150Y0049174D01*
X0021152Y0049137D01*
X0021157Y0049100D01*
X0021166Y0049064D01*
X0021178Y0049028D01*
X0021194Y0048994D01*
X0021212Y0048962D01*
X0021234Y0048932D01*
X0021259Y0048904D01*
X0021286Y0048878D01*
X0021315Y0048855D01*
X0021346Y0048835D01*
X0021380Y0048818D01*
X0021414Y0048804D01*
X0021414Y0049544D02*
X0021478Y0049573D01*
X0021544Y0049600D01*
X0021611Y0049624D01*
X0021679Y0049644D01*
X0021748Y0049662D01*
X0021817Y0049676D01*
X0021888Y0049688D01*
X0021958Y0049696D01*
X0022029Y0049700D01*
X0022100Y0049702D01*
X0022100Y0048646D02*
X0022029Y0048648D01*
X0021958Y0048652D01*
X0021888Y0048660D01*
X0021817Y0048672D01*
X0021748Y0048686D01*
X0021679Y0048704D01*
X0021611Y0048724D01*
X0021544Y0048748D01*
X0021478Y0048775D01*
X0021414Y0048804D01*
X0022100Y0049702D02*
X0022171Y0049700D01*
X0022242Y0049696D01*
X0022312Y0049688D01*
X0022383Y0049676D01*
X0022452Y0049662D01*
X0022521Y0049644D01*
X0022589Y0049624D01*
X0022656Y0049600D01*
X0022722Y0049573D01*
X0022786Y0049544D01*
X0022786Y0048804D02*
X0022722Y0048775D01*
X0022656Y0048748D01*
X0022589Y0048724D01*
X0022521Y0048704D01*
X0022452Y0048686D01*
X0022383Y0048672D01*
X0022312Y0048660D01*
X0022242Y0048652D01*
X0022171Y0048648D01*
X0022100Y0048646D01*
X0021994Y0047119D02*
X0021994Y0046697D01*
X0021994Y0047119D02*
X0021992Y0047159D01*
X0021986Y0047199D01*
X0021977Y0047238D01*
X0021964Y0047276D01*
X0021947Y0047312D01*
X0021927Y0047347D01*
X0021904Y0047380D01*
X0021877Y0047410D01*
X0021848Y0047438D01*
X0021817Y0047463D01*
X0021783Y0047484D01*
X0021747Y0047503D01*
X0021710Y0047518D01*
X0021671Y0047529D01*
X0021632Y0047537D01*
X0021592Y0047541D01*
X0021552Y0047541D01*
X0021512Y0047537D01*
X0021473Y0047529D01*
X0021434Y0047518D01*
X0021397Y0047503D01*
X0021361Y0047484D01*
X0021327Y0047463D01*
X0021296Y0047438D01*
X0021267Y0047410D01*
X0021240Y0047380D01*
X0021217Y0047347D01*
X0021197Y0047312D01*
X0021180Y0047276D01*
X0021167Y0047238D01*
X0021158Y0047199D01*
X0021152Y0047159D01*
X0021150Y0047119D01*
X0021150Y0046486D01*
X0021994Y0047014D02*
X0021996Y0047059D01*
X0022002Y0047103D01*
X0022011Y0047147D01*
X0022024Y0047190D01*
X0022041Y0047231D01*
X0022061Y0047272D01*
X0022085Y0047310D01*
X0022111Y0047346D01*
X0022141Y0047379D01*
X0022173Y0047410D01*
X0022208Y0047439D01*
X0022245Y0047464D01*
X0022284Y0047485D01*
X0022325Y0047504D01*
X0022367Y0047519D01*
X0022411Y0047530D01*
X0022455Y0047538D01*
X0022500Y0047542D01*
X0022544Y0047542D01*
X0022589Y0047538D01*
X0022633Y0047530D01*
X0022677Y0047519D01*
X0022719Y0047504D01*
X0022760Y0047485D01*
X0022799Y0047464D01*
X0022836Y0047439D01*
X0022871Y0047410D01*
X0022903Y0047379D01*
X0022933Y0047346D01*
X0022959Y0047310D01*
X0022983Y0047272D01*
X0023003Y0047231D01*
X0023020Y0047190D01*
X0023033Y0047147D01*
X0023042Y0047103D01*
X0023048Y0047059D01*
X0023050Y0047014D01*
X0023050Y0046486D01*
X0023050Y0044854D02*
X0023050Y0044326D01*
X0023050Y0044854D02*
X0023048Y0044899D01*
X0023042Y0044943D01*
X0023033Y0044987D01*
X0023020Y0045030D01*
X0023003Y0045071D01*
X0022983Y0045112D01*
X0022959Y0045150D01*
X0022933Y0045186D01*
X0022903Y0045219D01*
X0022871Y0045250D01*
X0022836Y0045279D01*
X0022799Y0045304D01*
X0022760Y0045325D01*
X0022719Y0045344D01*
X0022677Y0045359D01*
X0022633Y0045370D01*
X0022589Y0045378D01*
X0022544Y0045382D01*
X0022500Y0045382D01*
X0022455Y0045378D01*
X0022411Y0045370D01*
X0022367Y0045359D01*
X0022325Y0045344D01*
X0022284Y0045325D01*
X0022245Y0045304D01*
X0022208Y0045279D01*
X0022173Y0045250D01*
X0022141Y0045219D01*
X0022111Y0045186D01*
X0022085Y0045150D01*
X0022061Y0045112D01*
X0022041Y0045071D01*
X0022024Y0045030D01*
X0022011Y0044987D01*
X0022002Y0044943D01*
X0021996Y0044899D01*
X0021994Y0044854D01*
X0021994Y0044959D02*
X0021994Y0044537D01*
X0021994Y0044959D02*
X0021992Y0044999D01*
X0021986Y0045039D01*
X0021977Y0045078D01*
X0021964Y0045116D01*
X0021947Y0045152D01*
X0021927Y0045187D01*
X0021904Y0045220D01*
X0021877Y0045250D01*
X0021848Y0045278D01*
X0021817Y0045303D01*
X0021783Y0045324D01*
X0021747Y0045343D01*
X0021710Y0045358D01*
X0021671Y0045369D01*
X0021632Y0045377D01*
X0021592Y0045381D01*
X0021552Y0045381D01*
X0021512Y0045377D01*
X0021473Y0045369D01*
X0021434Y0045358D01*
X0021397Y0045343D01*
X0021361Y0045324D01*
X0021327Y0045303D01*
X0021296Y0045278D01*
X0021267Y0045250D01*
X0021240Y0045220D01*
X0021217Y0045187D01*
X0021197Y0045152D01*
X0021180Y0045116D01*
X0021167Y0045078D01*
X0021158Y0045039D01*
X0021152Y0044999D01*
X0021150Y0044959D01*
X0021150Y0044326D01*
X0021150Y0040011D02*
X0021150Y0039378D01*
X0021150Y0040011D02*
X0021152Y0040051D01*
X0021158Y0040091D01*
X0021167Y0040130D01*
X0021180Y0040168D01*
X0021197Y0040204D01*
X0021217Y0040239D01*
X0021240Y0040272D01*
X0021267Y0040302D01*
X0021296Y0040330D01*
X0021327Y0040355D01*
X0021361Y0040376D01*
X0021397Y0040395D01*
X0021434Y0040410D01*
X0021473Y0040421D01*
X0021512Y0040429D01*
X0021552Y0040433D01*
X0021592Y0040433D01*
X0021632Y0040429D01*
X0021671Y0040421D01*
X0021710Y0040410D01*
X0021747Y0040395D01*
X0021783Y0040376D01*
X0021817Y0040355D01*
X0021848Y0040330D01*
X0021877Y0040302D01*
X0021904Y0040272D01*
X0021927Y0040239D01*
X0021947Y0040204D01*
X0021964Y0040168D01*
X0021977Y0040130D01*
X0021986Y0040091D01*
X0021992Y0040051D01*
X0021994Y0040011D01*
X0021994Y0039589D01*
X0021994Y0039906D02*
X0021996Y0039951D01*
X0022002Y0039995D01*
X0022011Y0040039D01*
X0022024Y0040082D01*
X0022041Y0040123D01*
X0022061Y0040164D01*
X0022085Y0040202D01*
X0022111Y0040238D01*
X0022141Y0040271D01*
X0022173Y0040302D01*
X0022208Y0040331D01*
X0022245Y0040356D01*
X0022284Y0040377D01*
X0022325Y0040396D01*
X0022367Y0040411D01*
X0022411Y0040422D01*
X0022455Y0040430D01*
X0022500Y0040434D01*
X0022544Y0040434D01*
X0022589Y0040430D01*
X0022633Y0040422D01*
X0022677Y0040411D01*
X0022719Y0040396D01*
X0022760Y0040377D01*
X0022799Y0040356D01*
X0022836Y0040331D01*
X0022871Y0040302D01*
X0022903Y0040271D01*
X0022933Y0040238D01*
X0022959Y0040202D01*
X0022983Y0040164D01*
X0023003Y0040123D01*
X0023020Y0040082D01*
X0023033Y0040039D01*
X0023042Y0039995D01*
X0023048Y0039951D01*
X0023050Y0039906D01*
X0023050Y0039378D01*
X0023050Y0038411D02*
X0023050Y0037989D01*
X0023048Y0037950D01*
X0023043Y0037911D01*
X0023034Y0037874D01*
X0023022Y0037837D01*
X0023006Y0037801D01*
X0022987Y0037767D01*
X0022965Y0037735D01*
X0022940Y0037705D01*
X0022912Y0037677D01*
X0022882Y0037652D01*
X0022850Y0037630D01*
X0022816Y0037611D01*
X0022780Y0037595D01*
X0022743Y0037583D01*
X0022706Y0037574D01*
X0022667Y0037569D01*
X0022628Y0037567D01*
X0021572Y0037567D01*
X0021533Y0037569D01*
X0021494Y0037574D01*
X0021457Y0037583D01*
X0021420Y0037595D01*
X0021384Y0037611D01*
X0021350Y0037630D01*
X0021318Y0037652D01*
X0021288Y0037677D01*
X0021260Y0037705D01*
X0021235Y0037735D01*
X0021213Y0037767D01*
X0021194Y0037801D01*
X0021179Y0037837D01*
X0021166Y0037873D01*
X0021157Y0037911D01*
X0021152Y0037950D01*
X0021150Y0037989D01*
X0021150Y0038411D01*
X0021783Y0034122D02*
X0022417Y0033278D01*
X0022153Y0033647D02*
X0023050Y0034122D01*
X0023050Y0033278D02*
X0021150Y0033278D01*
X0022100Y0031038D02*
X0022171Y0031040D01*
X0022242Y0031044D01*
X0022312Y0031052D01*
X0022383Y0031064D01*
X0022452Y0031078D01*
X0022521Y0031096D01*
X0022589Y0031116D01*
X0022656Y0031140D01*
X0022722Y0031167D01*
X0022786Y0031196D01*
X0022628Y0031143D02*
X0021572Y0031988D01*
X0021414Y0031936D02*
X0021380Y0031922D01*
X0021346Y0031905D01*
X0021315Y0031885D01*
X0021286Y0031862D01*
X0021259Y0031836D01*
X0021234Y0031808D01*
X0021212Y0031778D01*
X0021194Y0031746D01*
X0021178Y0031712D01*
X0021166Y0031676D01*
X0021157Y0031640D01*
X0021152Y0031603D01*
X0021150Y0031566D01*
X0021152Y0031529D01*
X0021157Y0031492D01*
X0021166Y0031456D01*
X0021178Y0031420D01*
X0021194Y0031386D01*
X0021212Y0031354D01*
X0021234Y0031324D01*
X0021259Y0031296D01*
X0021286Y0031270D01*
X0021315Y0031247D01*
X0021346Y0031227D01*
X0021380Y0031210D01*
X0021414Y0031196D01*
X0021414Y0031936D02*
X0021478Y0031965D01*
X0021544Y0031992D01*
X0021611Y0032016D01*
X0021679Y0032036D01*
X0021748Y0032054D01*
X0021817Y0032068D01*
X0021888Y0032080D01*
X0021958Y0032088D01*
X0022029Y0032092D01*
X0022100Y0032094D01*
X0022100Y0031038D02*
X0022029Y0031040D01*
X0021958Y0031044D01*
X0021888Y0031052D01*
X0021817Y0031064D01*
X0021748Y0031078D01*
X0021679Y0031096D01*
X0021611Y0031116D01*
X0021544Y0031140D01*
X0021478Y0031167D01*
X0021414Y0031196D01*
X0022100Y0032094D02*
X0022171Y0032092D01*
X0022242Y0032088D01*
X0022312Y0032080D01*
X0022383Y0032068D01*
X0022452Y0032054D01*
X0022521Y0032036D01*
X0022589Y0032016D01*
X0022656Y0031992D01*
X0022722Y0031965D01*
X0022786Y0031936D01*
X0022820Y0031922D01*
X0022854Y0031905D01*
X0022885Y0031885D01*
X0022914Y0031862D01*
X0022942Y0031836D01*
X0022966Y0031808D01*
X0022988Y0031778D01*
X0023006Y0031746D01*
X0023022Y0031712D01*
X0023034Y0031676D01*
X0023043Y0031640D01*
X0023048Y0031603D01*
X0023050Y0031566D01*
X0023048Y0031529D01*
X0023043Y0031492D01*
X0023034Y0031456D01*
X0023022Y0031420D01*
X0023006Y0031386D01*
X0022988Y0031354D01*
X0022966Y0031324D01*
X0022942Y0031296D01*
X0022914Y0031270D01*
X0022885Y0031247D01*
X0022854Y0031227D01*
X0022820Y0031210D01*
X0022786Y0031196D01*
X0023050Y0029934D02*
X0023050Y0028878D01*
X0023050Y0029406D02*
X0021150Y0029406D01*
X0021572Y0028878D01*
X0021150Y0025595D02*
X0021150Y0024540D01*
X0021994Y0024540D01*
X0021994Y0025173D01*
X0021995Y0025173D02*
X0021997Y0025212D01*
X0022002Y0025251D01*
X0022011Y0025288D01*
X0022023Y0025325D01*
X0022039Y0025361D01*
X0022058Y0025395D01*
X0022080Y0025427D01*
X0022105Y0025457D01*
X0022133Y0025485D01*
X0022163Y0025510D01*
X0022195Y0025532D01*
X0022229Y0025551D01*
X0022265Y0025567D01*
X0022302Y0025579D01*
X0022339Y0025588D01*
X0022378Y0025593D01*
X0022417Y0025595D01*
X0022628Y0025595D01*
X0022667Y0025593D01*
X0022706Y0025588D01*
X0022743Y0025579D01*
X0022780Y0025567D01*
X0022816Y0025551D01*
X0022850Y0025532D01*
X0022882Y0025510D01*
X0022912Y0025485D01*
X0022940Y0025457D01*
X0022965Y0025427D01*
X0022987Y0025395D01*
X0023006Y0025361D01*
X0023022Y0025325D01*
X0023034Y0025288D01*
X0023043Y0025251D01*
X0023048Y0025212D01*
X0023050Y0025173D01*
X0023050Y0024540D01*
X0023050Y0023460D02*
X0022206Y0023038D01*
X0022206Y0022933D02*
X0022206Y0022405D01*
X0022206Y0022933D02*
X0022204Y0022978D01*
X0022198Y0023022D01*
X0022189Y0023066D01*
X0022176Y0023109D01*
X0022159Y0023150D01*
X0022139Y0023191D01*
X0022115Y0023229D01*
X0022089Y0023265D01*
X0022059Y0023298D01*
X0022027Y0023329D01*
X0021992Y0023358D01*
X0021955Y0023383D01*
X0021916Y0023404D01*
X0021875Y0023423D01*
X0021833Y0023438D01*
X0021789Y0023449D01*
X0021745Y0023457D01*
X0021700Y0023461D01*
X0021656Y0023461D01*
X0021611Y0023457D01*
X0021567Y0023449D01*
X0021523Y0023438D01*
X0021481Y0023423D01*
X0021440Y0023404D01*
X0021401Y0023383D01*
X0021364Y0023358D01*
X0021329Y0023329D01*
X0021297Y0023298D01*
X0021267Y0023265D01*
X0021241Y0023229D01*
X0021217Y0023191D01*
X0021197Y0023150D01*
X0021180Y0023109D01*
X0021167Y0023066D01*
X0021158Y0023022D01*
X0021152Y0022978D01*
X0021150Y0022933D01*
X0021150Y0022405D01*
X0023050Y0022405D01*
X0023050Y0019122D02*
X0022153Y0018647D01*
X0022417Y0018278D02*
X0021783Y0019122D01*
X0021150Y0018278D02*
X0023050Y0018278D01*
X0022786Y0016196D02*
X0022722Y0016167D01*
X0022656Y0016140D01*
X0022589Y0016116D01*
X0022521Y0016096D01*
X0022452Y0016078D01*
X0022383Y0016064D01*
X0022312Y0016052D01*
X0022242Y0016044D01*
X0022171Y0016040D01*
X0022100Y0016038D01*
X0022100Y0017094D02*
X0022029Y0017092D01*
X0021958Y0017088D01*
X0021888Y0017080D01*
X0021817Y0017068D01*
X0021748Y0017054D01*
X0021679Y0017036D01*
X0021611Y0017016D01*
X0021544Y0016992D01*
X0021478Y0016965D01*
X0021414Y0016936D01*
X0021572Y0016988D02*
X0022628Y0016143D01*
X0023050Y0016566D02*
X0023048Y0016603D01*
X0023043Y0016640D01*
X0023034Y0016676D01*
X0023022Y0016712D01*
X0023006Y0016746D01*
X0022988Y0016778D01*
X0022966Y0016808D01*
X0022942Y0016836D01*
X0022914Y0016862D01*
X0022885Y0016885D01*
X0022854Y0016905D01*
X0022820Y0016922D01*
X0022786Y0016936D01*
X0023050Y0016566D02*
X0023048Y0016529D01*
X0023043Y0016492D01*
X0023034Y0016456D01*
X0023022Y0016420D01*
X0023006Y0016386D01*
X0022988Y0016354D01*
X0022966Y0016324D01*
X0022942Y0016296D01*
X0022914Y0016270D01*
X0022885Y0016247D01*
X0022854Y0016227D01*
X0022820Y0016210D01*
X0022786Y0016196D01*
X0022786Y0016936D02*
X0022722Y0016965D01*
X0022656Y0016992D01*
X0022589Y0017016D01*
X0022521Y0017036D01*
X0022452Y0017054D01*
X0022383Y0017068D01*
X0022312Y0017080D01*
X0022242Y0017088D01*
X0022171Y0017092D01*
X0022100Y0017094D01*
X0022100Y0016038D02*
X0022029Y0016040D01*
X0021958Y0016044D01*
X0021888Y0016052D01*
X0021817Y0016064D01*
X0021748Y0016078D01*
X0021679Y0016096D01*
X0021611Y0016116D01*
X0021544Y0016140D01*
X0021478Y0016167D01*
X0021414Y0016196D01*
X0021150Y0016566D02*
X0021152Y0016603D01*
X0021157Y0016640D01*
X0021166Y0016676D01*
X0021178Y0016712D01*
X0021194Y0016746D01*
X0021212Y0016778D01*
X0021234Y0016808D01*
X0021259Y0016836D01*
X0021286Y0016862D01*
X0021315Y0016885D01*
X0021346Y0016905D01*
X0021380Y0016922D01*
X0021414Y0016936D01*
X0021150Y0016566D02*
X0021152Y0016529D01*
X0021157Y0016492D01*
X0021166Y0016456D01*
X0021178Y0016420D01*
X0021194Y0016386D01*
X0021212Y0016354D01*
X0021234Y0016324D01*
X0021259Y0016296D01*
X0021286Y0016270D01*
X0021315Y0016247D01*
X0021346Y0016227D01*
X0021380Y0016210D01*
X0021414Y0016196D01*
X0023050Y0014934D02*
X0023050Y0013878D01*
X0023050Y0014406D02*
X0021150Y0014406D01*
X0021572Y0013878D01*
X0022417Y0010595D02*
X0022522Y0010595D01*
X0022417Y0010595D02*
X0022378Y0010593D01*
X0022339Y0010588D01*
X0022302Y0010579D01*
X0022265Y0010567D01*
X0022229Y0010551D01*
X0022195Y0010532D01*
X0022163Y0010510D01*
X0022133Y0010485D01*
X0022105Y0010457D01*
X0022080Y0010427D01*
X0022058Y0010395D01*
X0022039Y0010361D01*
X0022023Y0010325D01*
X0022011Y0010288D01*
X0022002Y0010251D01*
X0021997Y0010212D01*
X0021995Y0010173D01*
X0021994Y0010173D02*
X0021994Y0009540D01*
X0022522Y0009540D01*
X0022522Y0009539D02*
X0022567Y0009541D01*
X0022611Y0009547D01*
X0022655Y0009556D01*
X0022698Y0009569D01*
X0022739Y0009586D01*
X0022780Y0009606D01*
X0022818Y0009630D01*
X0022854Y0009656D01*
X0022887Y0009686D01*
X0022918Y0009718D01*
X0022947Y0009753D01*
X0022972Y0009790D01*
X0022993Y0009829D01*
X0023012Y0009870D01*
X0023027Y0009912D01*
X0023038Y0009956D01*
X0023046Y0010000D01*
X0023050Y0010045D01*
X0023050Y0010089D01*
X0023046Y0010134D01*
X0023038Y0010178D01*
X0023027Y0010222D01*
X0023012Y0010264D01*
X0022993Y0010305D01*
X0022972Y0010344D01*
X0022947Y0010381D01*
X0022918Y0010416D01*
X0022887Y0010448D01*
X0022854Y0010478D01*
X0022818Y0010504D01*
X0022780Y0010528D01*
X0022739Y0010548D01*
X0022698Y0010565D01*
X0022655Y0010578D01*
X0022611Y0010587D01*
X0022567Y0010593D01*
X0022522Y0010595D01*
X0021994Y0009540D02*
X0021936Y0009542D01*
X0021879Y0009548D01*
X0021822Y0009558D01*
X0021766Y0009571D01*
X0021711Y0009589D01*
X0021658Y0009610D01*
X0021606Y0009635D01*
X0021555Y0009663D01*
X0021507Y0009694D01*
X0021461Y0009729D01*
X0021418Y0009767D01*
X0021377Y0009808D01*
X0021339Y0009851D01*
X0021304Y0009897D01*
X0021273Y0009945D01*
X0021245Y0009996D01*
X0021220Y0010048D01*
X0021199Y0010101D01*
X0021181Y0010156D01*
X0021168Y0010212D01*
X0021158Y0010269D01*
X0021152Y0010326D01*
X0021150Y0010384D01*
X0022206Y0008038D02*
X0023050Y0008460D01*
X0022206Y0007933D02*
X0022206Y0007405D01*
X0022206Y0007933D02*
X0022204Y0007978D01*
X0022198Y0008022D01*
X0022189Y0008066D01*
X0022176Y0008109D01*
X0022159Y0008150D01*
X0022139Y0008191D01*
X0022115Y0008229D01*
X0022089Y0008265D01*
X0022059Y0008298D01*
X0022027Y0008329D01*
X0021992Y0008358D01*
X0021955Y0008383D01*
X0021916Y0008404D01*
X0021875Y0008423D01*
X0021833Y0008438D01*
X0021789Y0008449D01*
X0021745Y0008457D01*
X0021700Y0008461D01*
X0021656Y0008461D01*
X0021611Y0008457D01*
X0021567Y0008449D01*
X0021523Y0008438D01*
X0021481Y0008423D01*
X0021440Y0008404D01*
X0021401Y0008383D01*
X0021364Y0008358D01*
X0021329Y0008329D01*
X0021297Y0008298D01*
X0021267Y0008265D01*
X0021241Y0008229D01*
X0021217Y0008191D01*
X0021197Y0008150D01*
X0021180Y0008109D01*
X0021167Y0008066D01*
X0021158Y0008022D01*
X0021152Y0007978D01*
X0021150Y0007933D01*
X0021150Y0007405D01*
X0023050Y0007405D01*
X0031150Y0007989D02*
X0031150Y0008411D01*
X0031150Y0007989D02*
X0031152Y0007950D01*
X0031157Y0007911D01*
X0031166Y0007873D01*
X0031179Y0007837D01*
X0031194Y0007801D01*
X0031213Y0007767D01*
X0031235Y0007735D01*
X0031260Y0007705D01*
X0031288Y0007677D01*
X0031318Y0007652D01*
X0031350Y0007630D01*
X0031384Y0007611D01*
X0031420Y0007595D01*
X0031457Y0007583D01*
X0031494Y0007574D01*
X0031533Y0007569D01*
X0031572Y0007567D01*
X0032628Y0007567D01*
X0032667Y0007569D01*
X0032706Y0007574D01*
X0032743Y0007583D01*
X0032780Y0007595D01*
X0032816Y0007611D01*
X0032850Y0007630D01*
X0032882Y0007652D01*
X0032912Y0007677D01*
X0032940Y0007705D01*
X0032965Y0007735D01*
X0032987Y0007767D01*
X0033006Y0007801D01*
X0033022Y0007837D01*
X0033034Y0007874D01*
X0033043Y0007911D01*
X0033048Y0007950D01*
X0033050Y0007989D01*
X0033050Y0008411D01*
X0032522Y0009378D02*
X0031994Y0009378D01*
X0031994Y0010011D01*
X0031994Y0009378D02*
X0031936Y0009380D01*
X0031879Y0009386D01*
X0031822Y0009396D01*
X0031766Y0009409D01*
X0031711Y0009427D01*
X0031658Y0009448D01*
X0031606Y0009473D01*
X0031555Y0009501D01*
X0031507Y0009532D01*
X0031461Y0009567D01*
X0031418Y0009605D01*
X0031377Y0009646D01*
X0031339Y0009689D01*
X0031304Y0009735D01*
X0031273Y0009783D01*
X0031245Y0009834D01*
X0031220Y0009886D01*
X0031199Y0009939D01*
X0031181Y0009994D01*
X0031168Y0010050D01*
X0031158Y0010107D01*
X0031152Y0010164D01*
X0031150Y0010222D01*
X0031995Y0010011D02*
X0031997Y0010050D01*
X0032002Y0010089D01*
X0032011Y0010126D01*
X0032023Y0010163D01*
X0032039Y0010199D01*
X0032058Y0010233D01*
X0032080Y0010265D01*
X0032105Y0010295D01*
X0032133Y0010323D01*
X0032163Y0010348D01*
X0032195Y0010370D01*
X0032229Y0010389D01*
X0032265Y0010405D01*
X0032302Y0010417D01*
X0032339Y0010426D01*
X0032378Y0010431D01*
X0032417Y0010433D01*
X0032522Y0010433D01*
X0032522Y0010434D02*
X0032567Y0010432D01*
X0032611Y0010426D01*
X0032655Y0010417D01*
X0032698Y0010404D01*
X0032739Y0010387D01*
X0032780Y0010367D01*
X0032818Y0010343D01*
X0032854Y0010317D01*
X0032887Y0010287D01*
X0032918Y0010255D01*
X0032947Y0010220D01*
X0032972Y0010183D01*
X0032993Y0010144D01*
X0033012Y0010103D01*
X0033027Y0010061D01*
X0033038Y0010017D01*
X0033046Y0009973D01*
X0033050Y0009928D01*
X0033050Y0009884D01*
X0033046Y0009839D01*
X0033038Y0009795D01*
X0033027Y0009751D01*
X0033012Y0009709D01*
X0032993Y0009668D01*
X0032972Y0009629D01*
X0032947Y0009592D01*
X0032918Y0009557D01*
X0032887Y0009525D01*
X0032854Y0009495D01*
X0032818Y0009469D01*
X0032780Y0009445D01*
X0032739Y0009425D01*
X0032698Y0009408D01*
X0032655Y0009395D01*
X0032611Y0009386D01*
X0032567Y0009380D01*
X0032522Y0009378D01*
X0032786Y0013336D02*
X0032722Y0013365D01*
X0032656Y0013392D01*
X0032589Y0013416D01*
X0032521Y0013436D01*
X0032452Y0013454D01*
X0032383Y0013468D01*
X0032312Y0013480D01*
X0032242Y0013488D01*
X0032171Y0013492D01*
X0032100Y0013494D01*
X0032100Y0012438D02*
X0032029Y0012440D01*
X0031958Y0012444D01*
X0031888Y0012452D01*
X0031817Y0012464D01*
X0031748Y0012478D01*
X0031679Y0012496D01*
X0031611Y0012516D01*
X0031544Y0012540D01*
X0031478Y0012567D01*
X0031414Y0012596D01*
X0031150Y0012966D02*
X0031152Y0013003D01*
X0031157Y0013040D01*
X0031166Y0013076D01*
X0031178Y0013112D01*
X0031194Y0013146D01*
X0031212Y0013178D01*
X0031234Y0013208D01*
X0031259Y0013236D01*
X0031286Y0013262D01*
X0031315Y0013285D01*
X0031346Y0013305D01*
X0031380Y0013322D01*
X0031414Y0013336D01*
X0031572Y0013388D02*
X0032628Y0012544D01*
X0033050Y0012966D02*
X0033048Y0013003D01*
X0033043Y0013040D01*
X0033034Y0013076D01*
X0033022Y0013112D01*
X0033006Y0013146D01*
X0032988Y0013178D01*
X0032966Y0013208D01*
X0032942Y0013236D01*
X0032914Y0013262D01*
X0032885Y0013285D01*
X0032854Y0013305D01*
X0032820Y0013322D01*
X0032786Y0013336D01*
X0033050Y0012966D02*
X0033048Y0012929D01*
X0033043Y0012892D01*
X0033034Y0012856D01*
X0033022Y0012820D01*
X0033006Y0012786D01*
X0032988Y0012754D01*
X0032966Y0012724D01*
X0032942Y0012696D01*
X0032914Y0012670D01*
X0032885Y0012647D01*
X0032854Y0012627D01*
X0032820Y0012610D01*
X0032786Y0012596D01*
X0032100Y0013494D02*
X0032029Y0013492D01*
X0031958Y0013488D01*
X0031888Y0013480D01*
X0031817Y0013468D01*
X0031748Y0013454D01*
X0031679Y0013436D01*
X0031611Y0013416D01*
X0031544Y0013392D01*
X0031478Y0013365D01*
X0031414Y0013336D01*
X0031150Y0012966D02*
X0031152Y0012929D01*
X0031157Y0012892D01*
X0031166Y0012856D01*
X0031178Y0012820D01*
X0031194Y0012786D01*
X0031212Y0012754D01*
X0031234Y0012724D01*
X0031259Y0012696D01*
X0031286Y0012670D01*
X0031315Y0012647D01*
X0031346Y0012627D01*
X0031380Y0012610D01*
X0031414Y0012596D01*
X0032100Y0012438D02*
X0032171Y0012440D01*
X0032242Y0012444D01*
X0032312Y0012452D01*
X0032383Y0012464D01*
X0032452Y0012478D01*
X0032521Y0012496D01*
X0032589Y0012516D01*
X0032656Y0012540D01*
X0032722Y0012567D01*
X0032786Y0012596D01*
X0032944Y0014425D02*
X0032944Y0014530D01*
X0033050Y0014530D01*
X0033050Y0014425D01*
X0032944Y0014425D01*
X0033050Y0015462D02*
X0033050Y0016517D01*
X0033050Y0015990D02*
X0031150Y0015990D01*
X0031572Y0015462D01*
X0031783Y0017655D02*
X0032733Y0017655D01*
X0032766Y0017657D01*
X0032799Y0017662D01*
X0032831Y0017671D01*
X0032862Y0017682D01*
X0032892Y0017697D01*
X0032919Y0017716D01*
X0032945Y0017736D01*
X0032969Y0017760D01*
X0032989Y0017786D01*
X0033008Y0017814D01*
X0033023Y0017843D01*
X0033034Y0017874D01*
X0033043Y0017906D01*
X0033048Y0017939D01*
X0033050Y0017972D01*
X0033050Y0018500D01*
X0031783Y0018500D01*
X0031994Y0019718D02*
X0031994Y0020562D01*
X0031150Y0020562D02*
X0031150Y0019718D01*
X0033050Y0019718D01*
X0033050Y0022405D02*
X0031150Y0022405D01*
X0031150Y0022933D01*
X0031152Y0022978D01*
X0031158Y0023022D01*
X0031167Y0023066D01*
X0031180Y0023109D01*
X0031197Y0023150D01*
X0031217Y0023191D01*
X0031241Y0023229D01*
X0031267Y0023265D01*
X0031297Y0023298D01*
X0031329Y0023329D01*
X0031364Y0023358D01*
X0031401Y0023383D01*
X0031440Y0023404D01*
X0031481Y0023423D01*
X0031523Y0023438D01*
X0031567Y0023449D01*
X0031611Y0023457D01*
X0031656Y0023461D01*
X0031700Y0023461D01*
X0031745Y0023457D01*
X0031789Y0023449D01*
X0031833Y0023438D01*
X0031875Y0023423D01*
X0031916Y0023404D01*
X0031955Y0023383D01*
X0031992Y0023358D01*
X0032027Y0023329D01*
X0032059Y0023298D01*
X0032089Y0023265D01*
X0032115Y0023229D01*
X0032139Y0023191D01*
X0032159Y0023150D01*
X0032176Y0023109D01*
X0032189Y0023066D01*
X0032198Y0023022D01*
X0032204Y0022978D01*
X0032206Y0022933D01*
X0032206Y0022405D01*
X0032206Y0023038D02*
X0033050Y0023460D01*
X0032628Y0024540D02*
X0032628Y0025595D01*
X0032206Y0025279D02*
X0033050Y0025279D01*
X0032628Y0024540D02*
X0031150Y0024962D01*
X0031572Y0028878D02*
X0031150Y0029406D01*
X0033050Y0029406D01*
X0033050Y0028878D02*
X0033050Y0029934D01*
X0032786Y0031936D02*
X0032722Y0031965D01*
X0032656Y0031992D01*
X0032589Y0032016D01*
X0032521Y0032036D01*
X0032452Y0032054D01*
X0032383Y0032068D01*
X0032312Y0032080D01*
X0032242Y0032088D01*
X0032171Y0032092D01*
X0032100Y0032094D01*
X0032100Y0031038D02*
X0032029Y0031040D01*
X0031958Y0031044D01*
X0031888Y0031052D01*
X0031817Y0031064D01*
X0031748Y0031078D01*
X0031679Y0031096D01*
X0031611Y0031116D01*
X0031544Y0031140D01*
X0031478Y0031167D01*
X0031414Y0031196D01*
X0031150Y0031566D02*
X0031152Y0031603D01*
X0031157Y0031640D01*
X0031166Y0031676D01*
X0031178Y0031712D01*
X0031194Y0031746D01*
X0031212Y0031778D01*
X0031234Y0031808D01*
X0031259Y0031836D01*
X0031286Y0031862D01*
X0031315Y0031885D01*
X0031346Y0031905D01*
X0031380Y0031922D01*
X0031414Y0031936D01*
X0031572Y0031988D02*
X0032628Y0031143D01*
X0033050Y0031566D02*
X0033048Y0031603D01*
X0033043Y0031640D01*
X0033034Y0031676D01*
X0033022Y0031712D01*
X0033006Y0031746D01*
X0032988Y0031778D01*
X0032966Y0031808D01*
X0032942Y0031836D01*
X0032914Y0031862D01*
X0032885Y0031885D01*
X0032854Y0031905D01*
X0032820Y0031922D01*
X0032786Y0031936D01*
X0033050Y0031566D02*
X0033048Y0031529D01*
X0033043Y0031492D01*
X0033034Y0031456D01*
X0033022Y0031420D01*
X0033006Y0031386D01*
X0032988Y0031354D01*
X0032966Y0031324D01*
X0032942Y0031296D01*
X0032914Y0031270D01*
X0032885Y0031247D01*
X0032854Y0031227D01*
X0032820Y0031210D01*
X0032786Y0031196D01*
X0032100Y0032094D02*
X0032029Y0032092D01*
X0031958Y0032088D01*
X0031888Y0032080D01*
X0031817Y0032068D01*
X0031748Y0032054D01*
X0031679Y0032036D01*
X0031611Y0032016D01*
X0031544Y0031992D01*
X0031478Y0031965D01*
X0031414Y0031936D01*
X0031150Y0031566D02*
X0031152Y0031529D01*
X0031157Y0031492D01*
X0031166Y0031456D01*
X0031178Y0031420D01*
X0031194Y0031386D01*
X0031212Y0031354D01*
X0031234Y0031324D01*
X0031259Y0031296D01*
X0031286Y0031270D01*
X0031315Y0031247D01*
X0031346Y0031227D01*
X0031380Y0031210D01*
X0031414Y0031196D01*
X0032100Y0031038D02*
X0032171Y0031040D01*
X0032242Y0031044D01*
X0032312Y0031052D01*
X0032383Y0031064D01*
X0032452Y0031078D01*
X0032521Y0031096D01*
X0032589Y0031116D01*
X0032656Y0031140D01*
X0032722Y0031167D01*
X0032786Y0031196D01*
X0033050Y0033278D02*
X0031150Y0033278D01*
X0031783Y0034122D02*
X0032417Y0033278D01*
X0032153Y0033647D02*
X0033050Y0034122D01*
X0032628Y0037567D02*
X0031572Y0037567D01*
X0031533Y0037569D01*
X0031494Y0037574D01*
X0031457Y0037583D01*
X0031420Y0037595D01*
X0031384Y0037611D01*
X0031350Y0037630D01*
X0031318Y0037652D01*
X0031288Y0037677D01*
X0031260Y0037705D01*
X0031235Y0037735D01*
X0031213Y0037767D01*
X0031194Y0037801D01*
X0031179Y0037837D01*
X0031166Y0037873D01*
X0031157Y0037911D01*
X0031152Y0037950D01*
X0031150Y0037989D01*
X0031150Y0038411D01*
X0031150Y0039800D02*
X0032628Y0039378D01*
X0032628Y0040433D01*
X0032206Y0040117D02*
X0033050Y0040117D01*
X0033050Y0038411D02*
X0033050Y0037989D01*
X0033048Y0037950D01*
X0033043Y0037911D01*
X0033034Y0037874D01*
X0033022Y0037837D01*
X0033006Y0037801D01*
X0032987Y0037767D01*
X0032965Y0037735D01*
X0032940Y0037705D01*
X0032912Y0037677D01*
X0032882Y0037652D01*
X0032850Y0037630D01*
X0032816Y0037611D01*
X0032780Y0037595D01*
X0032743Y0037583D01*
X0032706Y0037574D01*
X0032667Y0037569D01*
X0032628Y0037567D01*
X0041150Y0037405D02*
X0041150Y0037933D01*
X0041152Y0037978D01*
X0041158Y0038022D01*
X0041167Y0038066D01*
X0041180Y0038109D01*
X0041197Y0038150D01*
X0041217Y0038191D01*
X0041241Y0038229D01*
X0041267Y0038265D01*
X0041297Y0038298D01*
X0041329Y0038329D01*
X0041364Y0038358D01*
X0041401Y0038383D01*
X0041440Y0038404D01*
X0041481Y0038423D01*
X0041523Y0038438D01*
X0041567Y0038449D01*
X0041611Y0038457D01*
X0041656Y0038461D01*
X0041700Y0038461D01*
X0041745Y0038457D01*
X0041789Y0038449D01*
X0041833Y0038438D01*
X0041875Y0038423D01*
X0041916Y0038404D01*
X0041955Y0038383D01*
X0041992Y0038358D01*
X0042027Y0038329D01*
X0042059Y0038298D01*
X0042089Y0038265D01*
X0042115Y0038229D01*
X0042139Y0038191D01*
X0042159Y0038150D01*
X0042176Y0038109D01*
X0042189Y0038066D01*
X0042198Y0038022D01*
X0042204Y0037978D01*
X0042206Y0037933D01*
X0042206Y0037405D01*
X0042206Y0038038D02*
X0043050Y0038460D01*
X0043050Y0037405D02*
X0041150Y0037405D01*
X0041150Y0039540D02*
X0041150Y0040173D01*
X0041152Y0040213D01*
X0041158Y0040253D01*
X0041167Y0040292D01*
X0041180Y0040330D01*
X0041197Y0040366D01*
X0041217Y0040401D01*
X0041240Y0040434D01*
X0041267Y0040464D01*
X0041296Y0040492D01*
X0041327Y0040517D01*
X0041361Y0040538D01*
X0041397Y0040557D01*
X0041434Y0040572D01*
X0041473Y0040583D01*
X0041512Y0040591D01*
X0041552Y0040595D01*
X0041592Y0040595D01*
X0041632Y0040591D01*
X0041671Y0040583D01*
X0041710Y0040572D01*
X0041747Y0040557D01*
X0041783Y0040538D01*
X0041817Y0040517D01*
X0041848Y0040492D01*
X0041877Y0040464D01*
X0041904Y0040434D01*
X0041927Y0040401D01*
X0041947Y0040366D01*
X0041964Y0040330D01*
X0041977Y0040292D01*
X0041986Y0040253D01*
X0041992Y0040213D01*
X0041994Y0040173D01*
X0041994Y0039751D01*
X0041994Y0040067D02*
X0041996Y0040112D01*
X0042002Y0040156D01*
X0042011Y0040200D01*
X0042024Y0040243D01*
X0042041Y0040284D01*
X0042061Y0040325D01*
X0042085Y0040363D01*
X0042111Y0040399D01*
X0042141Y0040432D01*
X0042173Y0040463D01*
X0042208Y0040492D01*
X0042245Y0040517D01*
X0042284Y0040538D01*
X0042325Y0040557D01*
X0042367Y0040572D01*
X0042411Y0040583D01*
X0042455Y0040591D01*
X0042500Y0040595D01*
X0042544Y0040595D01*
X0042589Y0040591D01*
X0042633Y0040583D01*
X0042677Y0040572D01*
X0042719Y0040557D01*
X0042760Y0040538D01*
X0042799Y0040517D01*
X0042836Y0040492D01*
X0042871Y0040463D01*
X0042903Y0040432D01*
X0042933Y0040399D01*
X0042959Y0040363D01*
X0042983Y0040325D01*
X0043003Y0040284D01*
X0043020Y0040243D01*
X0043033Y0040200D01*
X0043042Y0040156D01*
X0043048Y0040112D01*
X0043050Y0040067D01*
X0043050Y0039540D01*
X0043050Y0043878D02*
X0043050Y0044934D01*
X0043050Y0044406D02*
X0041150Y0044406D01*
X0041572Y0043878D01*
X0042100Y0047094D02*
X0042171Y0047092D01*
X0042242Y0047088D01*
X0042312Y0047080D01*
X0042383Y0047068D01*
X0042452Y0047054D01*
X0042521Y0047036D01*
X0042589Y0047016D01*
X0042656Y0046992D01*
X0042722Y0046965D01*
X0042786Y0046936D01*
X0042820Y0046922D01*
X0042854Y0046905D01*
X0042885Y0046885D01*
X0042914Y0046862D01*
X0042942Y0046836D01*
X0042966Y0046808D01*
X0042988Y0046778D01*
X0043006Y0046746D01*
X0043022Y0046712D01*
X0043034Y0046676D01*
X0043043Y0046640D01*
X0043048Y0046603D01*
X0043050Y0046566D01*
X0043048Y0046529D01*
X0043043Y0046492D01*
X0043034Y0046456D01*
X0043022Y0046420D01*
X0043006Y0046386D01*
X0042988Y0046354D01*
X0042966Y0046324D01*
X0042942Y0046296D01*
X0042914Y0046270D01*
X0042885Y0046247D01*
X0042854Y0046227D01*
X0042820Y0046210D01*
X0042786Y0046196D01*
X0042628Y0046143D02*
X0041572Y0046988D01*
X0041414Y0046936D02*
X0041380Y0046922D01*
X0041346Y0046905D01*
X0041315Y0046885D01*
X0041286Y0046862D01*
X0041259Y0046836D01*
X0041234Y0046808D01*
X0041212Y0046778D01*
X0041194Y0046746D01*
X0041178Y0046712D01*
X0041166Y0046676D01*
X0041157Y0046640D01*
X0041152Y0046603D01*
X0041150Y0046566D01*
X0041152Y0046529D01*
X0041157Y0046492D01*
X0041166Y0046456D01*
X0041178Y0046420D01*
X0041194Y0046386D01*
X0041212Y0046354D01*
X0041234Y0046324D01*
X0041259Y0046296D01*
X0041286Y0046270D01*
X0041315Y0046247D01*
X0041346Y0046227D01*
X0041380Y0046210D01*
X0041414Y0046196D01*
X0041414Y0046936D02*
X0041478Y0046965D01*
X0041544Y0046992D01*
X0041611Y0047016D01*
X0041679Y0047036D01*
X0041748Y0047054D01*
X0041817Y0047068D01*
X0041888Y0047080D01*
X0041958Y0047088D01*
X0042029Y0047092D01*
X0042100Y0047094D01*
X0042100Y0046038D02*
X0042029Y0046040D01*
X0041958Y0046044D01*
X0041888Y0046052D01*
X0041817Y0046064D01*
X0041748Y0046078D01*
X0041679Y0046096D01*
X0041611Y0046116D01*
X0041544Y0046140D01*
X0041478Y0046167D01*
X0041414Y0046196D01*
X0042100Y0046038D02*
X0042171Y0046040D01*
X0042242Y0046044D01*
X0042312Y0046052D01*
X0042383Y0046064D01*
X0042452Y0046078D01*
X0042521Y0046096D01*
X0042589Y0046116D01*
X0042656Y0046140D01*
X0042722Y0046167D01*
X0042786Y0046196D01*
X0043050Y0048278D02*
X0041150Y0048278D01*
X0041783Y0049122D02*
X0042417Y0048278D01*
X0042153Y0048647D02*
X0043050Y0049122D01*
X0051150Y0048278D02*
X0053050Y0048278D01*
X0052417Y0048278D02*
X0051783Y0049122D01*
X0052153Y0048647D02*
X0053050Y0049122D01*
X0052786Y0046196D02*
X0052722Y0046167D01*
X0052656Y0046140D01*
X0052589Y0046116D01*
X0052521Y0046096D01*
X0052452Y0046078D01*
X0052383Y0046064D01*
X0052312Y0046052D01*
X0052242Y0046044D01*
X0052171Y0046040D01*
X0052100Y0046038D01*
X0052100Y0047094D02*
X0052029Y0047092D01*
X0051958Y0047088D01*
X0051888Y0047080D01*
X0051817Y0047068D01*
X0051748Y0047054D01*
X0051679Y0047036D01*
X0051611Y0047016D01*
X0051544Y0046992D01*
X0051478Y0046965D01*
X0051414Y0046936D01*
X0051572Y0046988D02*
X0052628Y0046143D01*
X0053050Y0046566D02*
X0053048Y0046603D01*
X0053043Y0046640D01*
X0053034Y0046676D01*
X0053022Y0046712D01*
X0053006Y0046746D01*
X0052988Y0046778D01*
X0052966Y0046808D01*
X0052942Y0046836D01*
X0052914Y0046862D01*
X0052885Y0046885D01*
X0052854Y0046905D01*
X0052820Y0046922D01*
X0052786Y0046936D01*
X0053050Y0046566D02*
X0053048Y0046529D01*
X0053043Y0046492D01*
X0053034Y0046456D01*
X0053022Y0046420D01*
X0053006Y0046386D01*
X0052988Y0046354D01*
X0052966Y0046324D01*
X0052942Y0046296D01*
X0052914Y0046270D01*
X0052885Y0046247D01*
X0052854Y0046227D01*
X0052820Y0046210D01*
X0052786Y0046196D01*
X0052786Y0046936D02*
X0052722Y0046965D01*
X0052656Y0046992D01*
X0052589Y0047016D01*
X0052521Y0047036D01*
X0052452Y0047054D01*
X0052383Y0047068D01*
X0052312Y0047080D01*
X0052242Y0047088D01*
X0052171Y0047092D01*
X0052100Y0047094D01*
X0052100Y0046038D02*
X0052029Y0046040D01*
X0051958Y0046044D01*
X0051888Y0046052D01*
X0051817Y0046064D01*
X0051748Y0046078D01*
X0051679Y0046096D01*
X0051611Y0046116D01*
X0051544Y0046140D01*
X0051478Y0046167D01*
X0051414Y0046196D01*
X0051150Y0046566D02*
X0051152Y0046603D01*
X0051157Y0046640D01*
X0051166Y0046676D01*
X0051178Y0046712D01*
X0051194Y0046746D01*
X0051212Y0046778D01*
X0051234Y0046808D01*
X0051259Y0046836D01*
X0051286Y0046862D01*
X0051315Y0046885D01*
X0051346Y0046905D01*
X0051380Y0046922D01*
X0051414Y0046936D01*
X0051150Y0046566D02*
X0051152Y0046529D01*
X0051157Y0046492D01*
X0051166Y0046456D01*
X0051178Y0046420D01*
X0051194Y0046386D01*
X0051212Y0046354D01*
X0051234Y0046324D01*
X0051259Y0046296D01*
X0051286Y0046270D01*
X0051315Y0046247D01*
X0051346Y0046227D01*
X0051380Y0046210D01*
X0051414Y0046196D01*
X0053050Y0044934D02*
X0053050Y0043878D01*
X0053050Y0044406D02*
X0051150Y0044406D01*
X0051572Y0043878D01*
X0051994Y0040437D02*
X0053050Y0039540D01*
X0053050Y0040595D01*
X0051572Y0039540D02*
X0051527Y0039556D01*
X0051484Y0039576D01*
X0051442Y0039600D01*
X0051402Y0039626D01*
X0051364Y0039656D01*
X0051329Y0039688D01*
X0051296Y0039724D01*
X0051267Y0039761D01*
X0051240Y0039801D01*
X0051217Y0039843D01*
X0051196Y0039886D01*
X0051180Y0039931D01*
X0051167Y0039978D01*
X0051158Y0040025D01*
X0051152Y0040072D01*
X0051150Y0040120D01*
X0051152Y0040161D01*
X0051157Y0040203D01*
X0051166Y0040243D01*
X0051179Y0040282D01*
X0051195Y0040321D01*
X0051214Y0040358D01*
X0051236Y0040392D01*
X0051261Y0040425D01*
X0051289Y0040456D01*
X0051320Y0040484D01*
X0051353Y0040509D01*
X0051388Y0040531D01*
X0051424Y0040550D01*
X0051463Y0040566D01*
X0051502Y0040579D01*
X0051543Y0040588D01*
X0051584Y0040593D01*
X0051625Y0040595D01*
X0051666Y0040593D01*
X0051707Y0040588D01*
X0051748Y0040580D01*
X0051787Y0040568D01*
X0051826Y0040554D01*
X0051863Y0040536D01*
X0051899Y0040515D01*
X0051933Y0040492D01*
X0051965Y0040465D01*
X0051994Y0040437D01*
X0053050Y0038460D02*
X0052206Y0038038D01*
X0052206Y0037933D02*
X0052206Y0037405D01*
X0052206Y0037933D02*
X0052204Y0037978D01*
X0052198Y0038022D01*
X0052189Y0038066D01*
X0052176Y0038109D01*
X0052159Y0038150D01*
X0052139Y0038191D01*
X0052115Y0038229D01*
X0052089Y0038265D01*
X0052059Y0038298D01*
X0052027Y0038329D01*
X0051992Y0038358D01*
X0051955Y0038383D01*
X0051916Y0038404D01*
X0051875Y0038423D01*
X0051833Y0038438D01*
X0051789Y0038449D01*
X0051745Y0038457D01*
X0051700Y0038461D01*
X0051656Y0038461D01*
X0051611Y0038457D01*
X0051567Y0038449D01*
X0051523Y0038438D01*
X0051481Y0038423D01*
X0051440Y0038404D01*
X0051401Y0038383D01*
X0051364Y0038358D01*
X0051329Y0038329D01*
X0051297Y0038298D01*
X0051267Y0038265D01*
X0051241Y0038229D01*
X0051217Y0038191D01*
X0051197Y0038150D01*
X0051180Y0038109D01*
X0051167Y0038066D01*
X0051158Y0038022D01*
X0051152Y0037978D01*
X0051150Y0037933D01*
X0051150Y0037405D01*
X0053050Y0037405D01*
X0053050Y0034122D02*
X0052153Y0033647D01*
X0052417Y0033278D02*
X0051783Y0034122D01*
X0051150Y0033278D02*
X0053050Y0033278D01*
X0052786Y0031196D02*
X0052722Y0031167D01*
X0052656Y0031140D01*
X0052589Y0031116D01*
X0052521Y0031096D01*
X0052452Y0031078D01*
X0052383Y0031064D01*
X0052312Y0031052D01*
X0052242Y0031044D01*
X0052171Y0031040D01*
X0052100Y0031038D01*
X0052100Y0032094D02*
X0052029Y0032092D01*
X0051958Y0032088D01*
X0051888Y0032080D01*
X0051817Y0032068D01*
X0051748Y0032054D01*
X0051679Y0032036D01*
X0051611Y0032016D01*
X0051544Y0031992D01*
X0051478Y0031965D01*
X0051414Y0031936D01*
X0051572Y0031988D02*
X0052628Y0031143D01*
X0053050Y0031566D02*
X0053048Y0031603D01*
X0053043Y0031640D01*
X0053034Y0031676D01*
X0053022Y0031712D01*
X0053006Y0031746D01*
X0052988Y0031778D01*
X0052966Y0031808D01*
X0052942Y0031836D01*
X0052914Y0031862D01*
X0052885Y0031885D01*
X0052854Y0031905D01*
X0052820Y0031922D01*
X0052786Y0031936D01*
X0053050Y0031566D02*
X0053048Y0031529D01*
X0053043Y0031492D01*
X0053034Y0031456D01*
X0053022Y0031420D01*
X0053006Y0031386D01*
X0052988Y0031354D01*
X0052966Y0031324D01*
X0052942Y0031296D01*
X0052914Y0031270D01*
X0052885Y0031247D01*
X0052854Y0031227D01*
X0052820Y0031210D01*
X0052786Y0031196D01*
X0052786Y0031936D02*
X0052722Y0031965D01*
X0052656Y0031992D01*
X0052589Y0032016D01*
X0052521Y0032036D01*
X0052452Y0032054D01*
X0052383Y0032068D01*
X0052312Y0032080D01*
X0052242Y0032088D01*
X0052171Y0032092D01*
X0052100Y0032094D01*
X0052100Y0031038D02*
X0052029Y0031040D01*
X0051958Y0031044D01*
X0051888Y0031052D01*
X0051817Y0031064D01*
X0051748Y0031078D01*
X0051679Y0031096D01*
X0051611Y0031116D01*
X0051544Y0031140D01*
X0051478Y0031167D01*
X0051414Y0031196D01*
X0051150Y0031566D02*
X0051152Y0031603D01*
X0051157Y0031640D01*
X0051166Y0031676D01*
X0051178Y0031712D01*
X0051194Y0031746D01*
X0051212Y0031778D01*
X0051234Y0031808D01*
X0051259Y0031836D01*
X0051286Y0031862D01*
X0051315Y0031885D01*
X0051346Y0031905D01*
X0051380Y0031922D01*
X0051414Y0031936D01*
X0051150Y0031566D02*
X0051152Y0031529D01*
X0051157Y0031492D01*
X0051166Y0031456D01*
X0051178Y0031420D01*
X0051194Y0031386D01*
X0051212Y0031354D01*
X0051234Y0031324D01*
X0051259Y0031296D01*
X0051286Y0031270D01*
X0051315Y0031247D01*
X0051346Y0031227D01*
X0051380Y0031210D01*
X0051414Y0031196D01*
X0053050Y0029934D02*
X0053050Y0028878D01*
X0053050Y0029406D02*
X0051150Y0029406D01*
X0051572Y0028878D01*
X0053050Y0025595D02*
X0053050Y0024540D01*
X0053050Y0025067D02*
X0051150Y0025067D01*
X0051572Y0024540D01*
X0052206Y0023038D02*
X0053050Y0023460D01*
X0052206Y0022933D02*
X0052206Y0022405D01*
X0052206Y0022933D02*
X0052204Y0022978D01*
X0052198Y0023022D01*
X0052189Y0023066D01*
X0052176Y0023109D01*
X0052159Y0023150D01*
X0052139Y0023191D01*
X0052115Y0023229D01*
X0052089Y0023265D01*
X0052059Y0023298D01*
X0052027Y0023329D01*
X0051992Y0023358D01*
X0051955Y0023383D01*
X0051916Y0023404D01*
X0051875Y0023423D01*
X0051833Y0023438D01*
X0051789Y0023449D01*
X0051745Y0023457D01*
X0051700Y0023461D01*
X0051656Y0023461D01*
X0051611Y0023457D01*
X0051567Y0023449D01*
X0051523Y0023438D01*
X0051481Y0023423D01*
X0051440Y0023404D01*
X0051401Y0023383D01*
X0051364Y0023358D01*
X0051329Y0023329D01*
X0051297Y0023298D01*
X0051267Y0023265D01*
X0051241Y0023229D01*
X0051217Y0023191D01*
X0051197Y0023150D01*
X0051180Y0023109D01*
X0051167Y0023066D01*
X0051158Y0023022D01*
X0051152Y0022978D01*
X0051150Y0022933D01*
X0051150Y0022405D01*
X0053050Y0022405D01*
X0051994Y0020130D02*
X0051994Y0019286D01*
X0051150Y0019286D02*
X0051150Y0020130D01*
X0051150Y0019286D02*
X0053050Y0019286D01*
X0053050Y0018068D02*
X0052100Y0018068D01*
X0052064Y0018066D01*
X0052029Y0018060D01*
X0051995Y0018050D01*
X0051962Y0018037D01*
X0051931Y0018019D01*
X0051902Y0017999D01*
X0051876Y0017975D01*
X0051852Y0017949D01*
X0051832Y0017920D01*
X0051814Y0017889D01*
X0051801Y0017856D01*
X0051791Y0017822D01*
X0051785Y0017786D01*
X0051783Y0017751D01*
X0051783Y0017223D01*
X0053050Y0017223D01*
X0051994Y0015663D02*
X0051994Y0015241D01*
X0051994Y0015663D02*
X0051992Y0015703D01*
X0051986Y0015743D01*
X0051977Y0015782D01*
X0051964Y0015820D01*
X0051947Y0015856D01*
X0051927Y0015891D01*
X0051904Y0015924D01*
X0051877Y0015954D01*
X0051848Y0015982D01*
X0051817Y0016007D01*
X0051783Y0016028D01*
X0051747Y0016047D01*
X0051710Y0016062D01*
X0051671Y0016073D01*
X0051632Y0016081D01*
X0051592Y0016085D01*
X0051552Y0016085D01*
X0051512Y0016081D01*
X0051473Y0016073D01*
X0051434Y0016062D01*
X0051397Y0016047D01*
X0051361Y0016028D01*
X0051327Y0016007D01*
X0051296Y0015982D01*
X0051267Y0015954D01*
X0051240Y0015924D01*
X0051217Y0015891D01*
X0051197Y0015856D01*
X0051180Y0015820D01*
X0051167Y0015782D01*
X0051158Y0015743D01*
X0051152Y0015703D01*
X0051150Y0015663D01*
X0051150Y0015030D01*
X0051994Y0015558D02*
X0051996Y0015603D01*
X0052002Y0015647D01*
X0052011Y0015691D01*
X0052024Y0015734D01*
X0052041Y0015775D01*
X0052061Y0015816D01*
X0052085Y0015854D01*
X0052111Y0015890D01*
X0052141Y0015923D01*
X0052173Y0015954D01*
X0052208Y0015983D01*
X0052245Y0016008D01*
X0052284Y0016029D01*
X0052325Y0016048D01*
X0052367Y0016063D01*
X0052411Y0016074D01*
X0052455Y0016082D01*
X0052500Y0016086D01*
X0052544Y0016086D01*
X0052589Y0016082D01*
X0052633Y0016074D01*
X0052677Y0016063D01*
X0052719Y0016048D01*
X0052760Y0016029D01*
X0052799Y0016008D01*
X0052836Y0015983D01*
X0052871Y0015954D01*
X0052903Y0015923D01*
X0052933Y0015890D01*
X0052959Y0015854D01*
X0052983Y0015816D01*
X0053003Y0015775D01*
X0053020Y0015734D01*
X0053033Y0015691D01*
X0053042Y0015647D01*
X0053048Y0015603D01*
X0053050Y0015558D01*
X0053050Y0015030D01*
X0053050Y0013398D02*
X0053050Y0012870D01*
X0053050Y0013398D02*
X0053048Y0013443D01*
X0053042Y0013487D01*
X0053033Y0013531D01*
X0053020Y0013574D01*
X0053003Y0013615D01*
X0052983Y0013656D01*
X0052959Y0013694D01*
X0052933Y0013730D01*
X0052903Y0013763D01*
X0052871Y0013794D01*
X0052836Y0013823D01*
X0052799Y0013848D01*
X0052760Y0013869D01*
X0052719Y0013888D01*
X0052677Y0013903D01*
X0052633Y0013914D01*
X0052589Y0013922D01*
X0052544Y0013926D01*
X0052500Y0013926D01*
X0052455Y0013922D01*
X0052411Y0013914D01*
X0052367Y0013903D01*
X0052325Y0013888D01*
X0052284Y0013869D01*
X0052245Y0013848D01*
X0052208Y0013823D01*
X0052173Y0013794D01*
X0052141Y0013763D01*
X0052111Y0013730D01*
X0052085Y0013694D01*
X0052061Y0013656D01*
X0052041Y0013615D01*
X0052024Y0013574D01*
X0052011Y0013531D01*
X0052002Y0013487D01*
X0051996Y0013443D01*
X0051994Y0013398D01*
X0051994Y0013503D02*
X0051994Y0013081D01*
X0051994Y0013503D02*
X0051992Y0013543D01*
X0051986Y0013583D01*
X0051977Y0013622D01*
X0051964Y0013660D01*
X0051947Y0013696D01*
X0051927Y0013731D01*
X0051904Y0013764D01*
X0051877Y0013794D01*
X0051848Y0013822D01*
X0051817Y0013847D01*
X0051783Y0013868D01*
X0051747Y0013887D01*
X0051710Y0013902D01*
X0051671Y0013913D01*
X0051632Y0013921D01*
X0051592Y0013925D01*
X0051552Y0013925D01*
X0051512Y0013921D01*
X0051473Y0013913D01*
X0051434Y0013902D01*
X0051397Y0013887D01*
X0051361Y0013868D01*
X0051327Y0013847D01*
X0051296Y0013822D01*
X0051267Y0013794D01*
X0051240Y0013764D01*
X0051217Y0013731D01*
X0051197Y0013696D01*
X0051180Y0013660D01*
X0051167Y0013622D01*
X0051158Y0013583D01*
X0051152Y0013543D01*
X0051150Y0013503D01*
X0051150Y0012870D01*
X0051150Y0010433D02*
X0051150Y0009378D01*
X0051994Y0009378D01*
X0051994Y0010011D01*
X0051995Y0010011D02*
X0051997Y0010050D01*
X0052002Y0010089D01*
X0052011Y0010126D01*
X0052023Y0010163D01*
X0052039Y0010199D01*
X0052058Y0010233D01*
X0052080Y0010265D01*
X0052105Y0010295D01*
X0052133Y0010323D01*
X0052163Y0010348D01*
X0052195Y0010370D01*
X0052229Y0010389D01*
X0052265Y0010405D01*
X0052302Y0010417D01*
X0052339Y0010426D01*
X0052378Y0010431D01*
X0052417Y0010433D01*
X0052628Y0010433D01*
X0052667Y0010431D01*
X0052706Y0010426D01*
X0052743Y0010417D01*
X0052780Y0010405D01*
X0052816Y0010389D01*
X0052850Y0010370D01*
X0052882Y0010348D01*
X0052912Y0010323D01*
X0052940Y0010295D01*
X0052965Y0010265D01*
X0052987Y0010233D01*
X0053006Y0010199D01*
X0053022Y0010163D01*
X0053034Y0010126D01*
X0053043Y0010089D01*
X0053048Y0010050D01*
X0053050Y0010011D01*
X0053050Y0009378D01*
X0053050Y0008411D02*
X0053050Y0007989D01*
X0053048Y0007950D01*
X0053043Y0007911D01*
X0053034Y0007874D01*
X0053022Y0007837D01*
X0053006Y0007801D01*
X0052987Y0007767D01*
X0052965Y0007735D01*
X0052940Y0007705D01*
X0052912Y0007677D01*
X0052882Y0007652D01*
X0052850Y0007630D01*
X0052816Y0007611D01*
X0052780Y0007595D01*
X0052743Y0007583D01*
X0052706Y0007574D01*
X0052667Y0007569D01*
X0052628Y0007567D01*
X0051572Y0007567D01*
X0051533Y0007569D01*
X0051494Y0007574D01*
X0051457Y0007583D01*
X0051420Y0007595D01*
X0051384Y0007611D01*
X0051350Y0007630D01*
X0051318Y0007652D01*
X0051288Y0007677D01*
X0051260Y0007705D01*
X0051235Y0007735D01*
X0051213Y0007767D01*
X0051194Y0007801D01*
X0051179Y0007837D01*
X0051166Y0007873D01*
X0051157Y0007911D01*
X0051152Y0007950D01*
X0051150Y0007989D01*
X0051150Y0008411D01*
X0072867Y0015672D02*
X0072867Y0016728D01*
X0072869Y0016767D01*
X0072874Y0016806D01*
X0072883Y0016843D01*
X0072895Y0016880D01*
X0072911Y0016916D01*
X0072930Y0016950D01*
X0072952Y0016982D01*
X0072977Y0017012D01*
X0073005Y0017040D01*
X0073035Y0017065D01*
X0073067Y0017087D01*
X0073101Y0017106D01*
X0073137Y0017121D01*
X0073174Y0017134D01*
X0073211Y0017143D01*
X0073250Y0017148D01*
X0073289Y0017150D01*
X0073711Y0017150D01*
X0074678Y0016728D02*
X0075206Y0017150D01*
X0075206Y0015250D01*
X0075733Y0015250D02*
X0074678Y0015250D01*
X0073711Y0015250D02*
X0073289Y0015250D01*
X0073250Y0015252D01*
X0073211Y0015257D01*
X0073174Y0015266D01*
X0073137Y0015278D01*
X0073101Y0015294D01*
X0073067Y0015313D01*
X0073035Y0015335D01*
X0073005Y0015360D01*
X0072977Y0015388D01*
X0072952Y0015418D01*
X0072930Y0015450D01*
X0072911Y0015484D01*
X0072895Y0015520D01*
X0072883Y0015557D01*
X0072874Y0015594D01*
X0072869Y0015633D01*
X0072867Y0015672D01*
X0077738Y0015250D02*
X0078794Y0015250D01*
X0078266Y0015250D02*
X0078266Y0017150D01*
X0077738Y0016728D01*
X0079725Y0015356D02*
X0079830Y0015356D01*
X0079830Y0015250D01*
X0079725Y0015250D01*
X0079725Y0015356D01*
X0081660Y0015514D02*
X0081689Y0015578D01*
X0081716Y0015644D01*
X0081740Y0015711D01*
X0081760Y0015779D01*
X0081778Y0015848D01*
X0081792Y0015917D01*
X0081804Y0015988D01*
X0081812Y0016058D01*
X0081816Y0016129D01*
X0081818Y0016200D01*
X0080762Y0016200D02*
X0080764Y0016271D01*
X0080768Y0016342D01*
X0080776Y0016412D01*
X0080788Y0016483D01*
X0080802Y0016552D01*
X0080820Y0016621D01*
X0080840Y0016689D01*
X0080864Y0016756D01*
X0080891Y0016822D01*
X0080920Y0016886D01*
X0080934Y0016920D01*
X0080951Y0016954D01*
X0080971Y0016985D01*
X0080994Y0017014D01*
X0081020Y0017041D01*
X0081048Y0017066D01*
X0081078Y0017088D01*
X0081110Y0017106D01*
X0081144Y0017122D01*
X0081180Y0017134D01*
X0081216Y0017143D01*
X0081253Y0017148D01*
X0081290Y0017150D01*
X0081327Y0017148D01*
X0081364Y0017143D01*
X0081400Y0017134D01*
X0081436Y0017122D01*
X0081470Y0017106D01*
X0081502Y0017088D01*
X0081532Y0017066D01*
X0081560Y0017041D01*
X0081586Y0017014D01*
X0081609Y0016985D01*
X0081629Y0016954D01*
X0081646Y0016920D01*
X0081660Y0016886D01*
X0081712Y0016728D02*
X0080867Y0015672D01*
X0081290Y0015250D02*
X0081327Y0015252D01*
X0081364Y0015257D01*
X0081400Y0015266D01*
X0081436Y0015278D01*
X0081470Y0015294D01*
X0081502Y0015312D01*
X0081532Y0015334D01*
X0081560Y0015358D01*
X0081586Y0015386D01*
X0081609Y0015415D01*
X0081629Y0015446D01*
X0081646Y0015480D01*
X0081660Y0015514D01*
X0081290Y0015250D02*
X0081253Y0015252D01*
X0081216Y0015257D01*
X0081180Y0015266D01*
X0081144Y0015278D01*
X0081110Y0015294D01*
X0081078Y0015312D01*
X0081048Y0015334D01*
X0081020Y0015358D01*
X0080994Y0015386D01*
X0080971Y0015415D01*
X0080951Y0015446D01*
X0080934Y0015480D01*
X0080920Y0015514D01*
X0081818Y0016200D02*
X0081816Y0016271D01*
X0081812Y0016342D01*
X0081804Y0016412D01*
X0081792Y0016483D01*
X0081778Y0016552D01*
X0081760Y0016621D01*
X0081740Y0016689D01*
X0081716Y0016756D01*
X0081689Y0016822D01*
X0081660Y0016886D01*
X0082955Y0016517D02*
X0082955Y0015567D01*
X0082957Y0015534D01*
X0082962Y0015501D01*
X0082971Y0015469D01*
X0082982Y0015438D01*
X0082997Y0015409D01*
X0083016Y0015381D01*
X0083036Y0015355D01*
X0083060Y0015331D01*
X0083086Y0015311D01*
X0083114Y0015292D01*
X0083143Y0015277D01*
X0083174Y0015266D01*
X0083206Y0015257D01*
X0083239Y0015252D01*
X0083272Y0015250D01*
X0083800Y0015250D01*
X0083800Y0016517D01*
X0085018Y0016306D02*
X0085862Y0016306D01*
X0085862Y0017150D02*
X0085018Y0017150D01*
X0085018Y0015250D01*
X0080920Y0015514D02*
X0080891Y0015578D01*
X0080864Y0015644D01*
X0080840Y0015711D01*
X0080820Y0015779D01*
X0080802Y0015848D01*
X0080788Y0015917D01*
X0080776Y0015988D01*
X0080768Y0016058D01*
X0080764Y0016129D01*
X0080762Y0016200D01*
X0080762Y0025250D02*
X0081817Y0025250D01*
X0081290Y0025250D02*
X0081290Y0027150D01*
X0080762Y0026728D01*
X0077738Y0026200D02*
X0077740Y0026129D01*
X0077744Y0026058D01*
X0077752Y0025988D01*
X0077764Y0025917D01*
X0077778Y0025848D01*
X0077796Y0025779D01*
X0077816Y0025711D01*
X0077840Y0025644D01*
X0077867Y0025578D01*
X0077896Y0025514D01*
X0077844Y0025672D02*
X0078688Y0026728D01*
X0078636Y0026886D02*
X0078622Y0026920D01*
X0078605Y0026954D01*
X0078585Y0026985D01*
X0078562Y0027014D01*
X0078536Y0027041D01*
X0078508Y0027066D01*
X0078478Y0027088D01*
X0078446Y0027106D01*
X0078412Y0027122D01*
X0078376Y0027134D01*
X0078340Y0027143D01*
X0078303Y0027148D01*
X0078266Y0027150D01*
X0078229Y0027148D01*
X0078192Y0027143D01*
X0078156Y0027134D01*
X0078120Y0027122D01*
X0078086Y0027106D01*
X0078054Y0027088D01*
X0078024Y0027066D01*
X0077996Y0027041D01*
X0077970Y0027014D01*
X0077947Y0026985D01*
X0077927Y0026954D01*
X0077910Y0026920D01*
X0077896Y0026886D01*
X0078636Y0026886D02*
X0078665Y0026822D01*
X0078692Y0026756D01*
X0078716Y0026689D01*
X0078736Y0026621D01*
X0078754Y0026552D01*
X0078768Y0026483D01*
X0078780Y0026412D01*
X0078788Y0026342D01*
X0078792Y0026271D01*
X0078794Y0026200D01*
X0077738Y0026200D02*
X0077740Y0026271D01*
X0077744Y0026342D01*
X0077752Y0026412D01*
X0077764Y0026483D01*
X0077778Y0026552D01*
X0077796Y0026621D01*
X0077816Y0026689D01*
X0077840Y0026756D01*
X0077867Y0026822D01*
X0077896Y0026886D01*
X0078794Y0026200D02*
X0078792Y0026129D01*
X0078788Y0026058D01*
X0078780Y0025988D01*
X0078768Y0025917D01*
X0078754Y0025848D01*
X0078736Y0025779D01*
X0078716Y0025711D01*
X0078692Y0025644D01*
X0078665Y0025578D01*
X0078636Y0025514D01*
X0078622Y0025480D01*
X0078605Y0025446D01*
X0078585Y0025415D01*
X0078562Y0025386D01*
X0078536Y0025358D01*
X0078508Y0025334D01*
X0078478Y0025312D01*
X0078446Y0025294D01*
X0078412Y0025278D01*
X0078376Y0025266D01*
X0078340Y0025257D01*
X0078303Y0025252D01*
X0078266Y0025250D01*
X0078229Y0025252D01*
X0078192Y0025257D01*
X0078156Y0025266D01*
X0078120Y0025278D01*
X0078086Y0025294D01*
X0078054Y0025312D01*
X0078024Y0025334D01*
X0077996Y0025358D01*
X0077970Y0025386D01*
X0077947Y0025415D01*
X0077927Y0025446D01*
X0077910Y0025480D01*
X0077896Y0025514D01*
X0079725Y0025356D02*
X0079830Y0025356D01*
X0079830Y0025250D01*
X0079725Y0025250D01*
X0079725Y0025356D01*
X0082955Y0025567D02*
X0082955Y0026517D01*
X0083800Y0026517D02*
X0083800Y0025250D01*
X0083272Y0025250D01*
X0083239Y0025252D01*
X0083206Y0025257D01*
X0083174Y0025266D01*
X0083143Y0025277D01*
X0083114Y0025292D01*
X0083086Y0025311D01*
X0083060Y0025331D01*
X0083036Y0025355D01*
X0083016Y0025381D01*
X0082997Y0025409D01*
X0082982Y0025438D01*
X0082971Y0025469D01*
X0082962Y0025501D01*
X0082957Y0025534D01*
X0082955Y0025567D01*
X0085018Y0025250D02*
X0085018Y0027150D01*
X0085862Y0027150D01*
X0085862Y0026306D02*
X0085018Y0026306D01*
X0075733Y0025250D02*
X0074678Y0025250D01*
X0075575Y0026306D01*
X0075258Y0027150D02*
X0075210Y0027148D01*
X0075163Y0027142D01*
X0075115Y0027133D01*
X0075069Y0027120D01*
X0075024Y0027103D01*
X0074981Y0027083D01*
X0074939Y0027060D01*
X0074899Y0027033D01*
X0074862Y0027004D01*
X0074826Y0026971D01*
X0074794Y0026936D01*
X0074764Y0026898D01*
X0074738Y0026858D01*
X0074714Y0026816D01*
X0074694Y0026773D01*
X0074678Y0026728D01*
X0075575Y0026306D02*
X0075603Y0026335D01*
X0075630Y0026367D01*
X0075653Y0026401D01*
X0075674Y0026437D01*
X0075692Y0026474D01*
X0075706Y0026513D01*
X0075718Y0026552D01*
X0075726Y0026593D01*
X0075731Y0026634D01*
X0075733Y0026675D01*
X0075731Y0026716D01*
X0075726Y0026757D01*
X0075717Y0026798D01*
X0075704Y0026837D01*
X0075688Y0026876D01*
X0075669Y0026913D01*
X0075647Y0026947D01*
X0075622Y0026980D01*
X0075594Y0027011D01*
X0075563Y0027039D01*
X0075530Y0027064D01*
X0075496Y0027086D01*
X0075459Y0027105D01*
X0075420Y0027121D01*
X0075381Y0027134D01*
X0075340Y0027143D01*
X0075299Y0027148D01*
X0075258Y0027150D01*
X0073711Y0027150D02*
X0073289Y0027150D01*
X0073250Y0027148D01*
X0073211Y0027143D01*
X0073174Y0027134D01*
X0073137Y0027121D01*
X0073101Y0027106D01*
X0073067Y0027087D01*
X0073035Y0027065D01*
X0073005Y0027040D01*
X0072977Y0027012D01*
X0072952Y0026982D01*
X0072930Y0026950D01*
X0072911Y0026916D01*
X0072895Y0026880D01*
X0072883Y0026843D01*
X0072874Y0026806D01*
X0072869Y0026767D01*
X0072867Y0026728D01*
X0072867Y0025672D01*
X0072869Y0025633D01*
X0072874Y0025594D01*
X0072883Y0025557D01*
X0072895Y0025520D01*
X0072911Y0025484D01*
X0072930Y0025450D01*
X0072952Y0025418D01*
X0072977Y0025388D01*
X0073005Y0025360D01*
X0073035Y0025335D01*
X0073067Y0025313D01*
X0073101Y0025294D01*
X0073137Y0025278D01*
X0073174Y0025266D01*
X0073211Y0025257D01*
X0073250Y0025252D01*
X0073289Y0025250D01*
X0073711Y0025250D01*
X0043683Y0032280D02*
X0041783Y0032280D01*
X0041783Y0032807D01*
X0041785Y0032842D01*
X0041791Y0032878D01*
X0041801Y0032912D01*
X0041814Y0032945D01*
X0041832Y0032976D01*
X0041852Y0033005D01*
X0041876Y0033031D01*
X0041902Y0033055D01*
X0041931Y0033075D01*
X0041962Y0033093D01*
X0041995Y0033106D01*
X0042029Y0033116D01*
X0042064Y0033122D01*
X0042100Y0033124D01*
X0042733Y0033124D01*
X0042766Y0033122D01*
X0042799Y0033117D01*
X0042831Y0033108D01*
X0042862Y0033097D01*
X0042892Y0033082D01*
X0042919Y0033063D01*
X0042945Y0033043D01*
X0042969Y0033019D01*
X0042989Y0032993D01*
X0043008Y0032966D01*
X0043023Y0032936D01*
X0043034Y0032905D01*
X0043043Y0032873D01*
X0043048Y0032840D01*
X0043050Y0032807D01*
X0043050Y0032280D01*
X0042786Y0030224D02*
X0042722Y0030195D01*
X0042656Y0030168D01*
X0042589Y0030144D01*
X0042521Y0030124D01*
X0042452Y0030106D01*
X0042383Y0030092D01*
X0042312Y0030080D01*
X0042242Y0030072D01*
X0042171Y0030068D01*
X0042100Y0030066D01*
X0042100Y0031122D02*
X0042029Y0031120D01*
X0041958Y0031116D01*
X0041888Y0031108D01*
X0041817Y0031096D01*
X0041748Y0031082D01*
X0041679Y0031064D01*
X0041611Y0031044D01*
X0041544Y0031020D01*
X0041478Y0030993D01*
X0041414Y0030964D01*
X0041572Y0031016D02*
X0042628Y0030171D01*
X0043050Y0030594D02*
X0043048Y0030631D01*
X0043043Y0030668D01*
X0043034Y0030704D01*
X0043022Y0030740D01*
X0043006Y0030774D01*
X0042988Y0030806D01*
X0042966Y0030836D01*
X0042942Y0030864D01*
X0042914Y0030890D01*
X0042885Y0030913D01*
X0042854Y0030933D01*
X0042820Y0030950D01*
X0042786Y0030964D01*
X0043050Y0030594D02*
X0043048Y0030557D01*
X0043043Y0030520D01*
X0043034Y0030484D01*
X0043022Y0030448D01*
X0043006Y0030414D01*
X0042988Y0030382D01*
X0042966Y0030352D01*
X0042942Y0030324D01*
X0042914Y0030298D01*
X0042885Y0030275D01*
X0042854Y0030255D01*
X0042820Y0030238D01*
X0042786Y0030224D01*
X0041414Y0030964D02*
X0041380Y0030950D01*
X0041346Y0030933D01*
X0041315Y0030913D01*
X0041286Y0030890D01*
X0041259Y0030864D01*
X0041234Y0030836D01*
X0041212Y0030806D01*
X0041194Y0030774D01*
X0041178Y0030740D01*
X0041166Y0030704D01*
X0041157Y0030668D01*
X0041152Y0030631D01*
X0041150Y0030594D01*
X0041152Y0030557D01*
X0041157Y0030520D01*
X0041166Y0030484D01*
X0041178Y0030448D01*
X0041194Y0030414D01*
X0041212Y0030382D01*
X0041234Y0030352D01*
X0041259Y0030324D01*
X0041286Y0030298D01*
X0041315Y0030275D01*
X0041346Y0030255D01*
X0041380Y0030238D01*
X0041414Y0030224D01*
X0042100Y0031122D02*
X0042171Y0031120D01*
X0042242Y0031116D01*
X0042312Y0031108D01*
X0042383Y0031096D01*
X0042452Y0031082D01*
X0042521Y0031064D01*
X0042589Y0031044D01*
X0042656Y0031020D01*
X0042722Y0030993D01*
X0042786Y0030964D01*
X0042100Y0030066D02*
X0042029Y0030068D01*
X0041958Y0030072D01*
X0041888Y0030080D01*
X0041817Y0030092D01*
X0041748Y0030106D01*
X0041679Y0030124D01*
X0041611Y0030144D01*
X0041544Y0030168D01*
X0041478Y0030195D01*
X0041414Y0030224D01*
X0041150Y0028539D02*
X0041152Y0028579D01*
X0041158Y0028619D01*
X0041167Y0028658D01*
X0041180Y0028696D01*
X0041197Y0028732D01*
X0041217Y0028767D01*
X0041240Y0028800D01*
X0041267Y0028830D01*
X0041296Y0028858D01*
X0041327Y0028883D01*
X0041361Y0028904D01*
X0041397Y0028923D01*
X0041434Y0028938D01*
X0041473Y0028949D01*
X0041512Y0028957D01*
X0041552Y0028961D01*
X0041592Y0028961D01*
X0041632Y0028957D01*
X0041671Y0028949D01*
X0041710Y0028938D01*
X0041747Y0028923D01*
X0041783Y0028904D01*
X0041817Y0028883D01*
X0041848Y0028858D01*
X0041877Y0028830D01*
X0041904Y0028800D01*
X0041927Y0028767D01*
X0041947Y0028732D01*
X0041964Y0028696D01*
X0041977Y0028658D01*
X0041986Y0028619D01*
X0041992Y0028579D01*
X0041994Y0028539D01*
X0041994Y0028117D01*
X0041994Y0028434D02*
X0041996Y0028479D01*
X0042002Y0028523D01*
X0042011Y0028567D01*
X0042024Y0028610D01*
X0042041Y0028651D01*
X0042061Y0028692D01*
X0042085Y0028730D01*
X0042111Y0028766D01*
X0042141Y0028799D01*
X0042173Y0028830D01*
X0042208Y0028859D01*
X0042245Y0028884D01*
X0042284Y0028905D01*
X0042325Y0028924D01*
X0042367Y0028939D01*
X0042411Y0028950D01*
X0042455Y0028958D01*
X0042500Y0028962D01*
X0042544Y0028962D01*
X0042589Y0028958D01*
X0042633Y0028950D01*
X0042677Y0028939D01*
X0042719Y0028924D01*
X0042760Y0028905D01*
X0042799Y0028884D01*
X0042836Y0028859D01*
X0042871Y0028830D01*
X0042903Y0028799D01*
X0042933Y0028766D01*
X0042959Y0028730D01*
X0042983Y0028692D01*
X0043003Y0028651D01*
X0043020Y0028610D01*
X0043033Y0028567D01*
X0043042Y0028523D01*
X0043048Y0028479D01*
X0043050Y0028434D01*
X0043050Y0027906D01*
X0041150Y0027906D02*
X0041150Y0028539D01*
X0041150Y0025433D02*
X0043050Y0024906D01*
X0041361Y0024378D02*
X0041150Y0024378D01*
X0041150Y0025433D01*
X0041150Y0023411D02*
X0041150Y0022989D01*
X0041152Y0022950D01*
X0041157Y0022911D01*
X0041166Y0022873D01*
X0041179Y0022837D01*
X0041194Y0022801D01*
X0041213Y0022767D01*
X0041235Y0022735D01*
X0041260Y0022705D01*
X0041288Y0022677D01*
X0041318Y0022652D01*
X0041350Y0022630D01*
X0041384Y0022611D01*
X0041420Y0022595D01*
X0041457Y0022583D01*
X0041494Y0022574D01*
X0041533Y0022569D01*
X0041572Y0022567D01*
X0042628Y0022567D01*
X0042667Y0022569D01*
X0042706Y0022574D01*
X0042743Y0022583D01*
X0042780Y0022595D01*
X0042816Y0022611D01*
X0042850Y0022630D01*
X0042882Y0022652D01*
X0042912Y0022677D01*
X0042940Y0022705D01*
X0042965Y0022735D01*
X0042987Y0022767D01*
X0043006Y0022801D01*
X0043022Y0022837D01*
X0043034Y0022874D01*
X0043043Y0022911D01*
X0043048Y0022950D01*
X0043050Y0022989D01*
X0043050Y0023411D01*
X0043050Y0034250D02*
X0041150Y0034250D01*
X0041150Y0035094D01*
X0041994Y0035094D02*
X0041994Y0034250D01*
X0033050Y0044326D02*
X0033050Y0044854D01*
X0033048Y0044899D01*
X0033042Y0044943D01*
X0033033Y0044987D01*
X0033020Y0045030D01*
X0033003Y0045071D01*
X0032983Y0045112D01*
X0032959Y0045150D01*
X0032933Y0045186D01*
X0032903Y0045219D01*
X0032871Y0045250D01*
X0032836Y0045279D01*
X0032799Y0045304D01*
X0032760Y0045325D01*
X0032719Y0045344D01*
X0032677Y0045359D01*
X0032633Y0045370D01*
X0032589Y0045378D01*
X0032544Y0045382D01*
X0032500Y0045382D01*
X0032455Y0045378D01*
X0032411Y0045370D01*
X0032367Y0045359D01*
X0032325Y0045344D01*
X0032284Y0045325D01*
X0032245Y0045304D01*
X0032208Y0045279D01*
X0032173Y0045250D01*
X0032141Y0045219D01*
X0032111Y0045186D01*
X0032085Y0045150D01*
X0032061Y0045112D01*
X0032041Y0045071D01*
X0032024Y0045030D01*
X0032011Y0044987D01*
X0032002Y0044943D01*
X0031996Y0044899D01*
X0031994Y0044854D01*
X0031994Y0044959D02*
X0031994Y0044537D01*
X0031994Y0044959D02*
X0031992Y0044999D01*
X0031986Y0045039D01*
X0031977Y0045078D01*
X0031964Y0045116D01*
X0031947Y0045152D01*
X0031927Y0045187D01*
X0031904Y0045220D01*
X0031877Y0045250D01*
X0031848Y0045278D01*
X0031817Y0045303D01*
X0031783Y0045324D01*
X0031747Y0045343D01*
X0031710Y0045358D01*
X0031671Y0045369D01*
X0031632Y0045377D01*
X0031592Y0045381D01*
X0031552Y0045381D01*
X0031512Y0045377D01*
X0031473Y0045369D01*
X0031434Y0045358D01*
X0031397Y0045343D01*
X0031361Y0045324D01*
X0031327Y0045303D01*
X0031296Y0045278D01*
X0031267Y0045250D01*
X0031240Y0045220D01*
X0031217Y0045187D01*
X0031197Y0045152D01*
X0031180Y0045116D01*
X0031167Y0045078D01*
X0031158Y0045039D01*
X0031152Y0044999D01*
X0031150Y0044959D01*
X0031150Y0044326D01*
X0031150Y0046486D02*
X0031150Y0047119D01*
X0031152Y0047159D01*
X0031158Y0047199D01*
X0031167Y0047238D01*
X0031180Y0047276D01*
X0031197Y0047312D01*
X0031217Y0047347D01*
X0031240Y0047380D01*
X0031267Y0047410D01*
X0031296Y0047438D01*
X0031327Y0047463D01*
X0031361Y0047484D01*
X0031397Y0047503D01*
X0031434Y0047518D01*
X0031473Y0047529D01*
X0031512Y0047537D01*
X0031552Y0047541D01*
X0031592Y0047541D01*
X0031632Y0047537D01*
X0031671Y0047529D01*
X0031710Y0047518D01*
X0031747Y0047503D01*
X0031783Y0047484D01*
X0031817Y0047463D01*
X0031848Y0047438D01*
X0031877Y0047410D01*
X0031904Y0047380D01*
X0031927Y0047347D01*
X0031947Y0047312D01*
X0031964Y0047276D01*
X0031977Y0047238D01*
X0031986Y0047199D01*
X0031992Y0047159D01*
X0031994Y0047119D01*
X0031994Y0046697D01*
X0031994Y0047014D02*
X0031996Y0047059D01*
X0032002Y0047103D01*
X0032011Y0047147D01*
X0032024Y0047190D01*
X0032041Y0047231D01*
X0032061Y0047272D01*
X0032085Y0047310D01*
X0032111Y0047346D01*
X0032141Y0047379D01*
X0032173Y0047410D01*
X0032208Y0047439D01*
X0032245Y0047464D01*
X0032284Y0047485D01*
X0032325Y0047504D01*
X0032367Y0047519D01*
X0032411Y0047530D01*
X0032455Y0047538D01*
X0032500Y0047542D01*
X0032544Y0047542D01*
X0032589Y0047538D01*
X0032633Y0047530D01*
X0032677Y0047519D01*
X0032719Y0047504D01*
X0032760Y0047485D01*
X0032799Y0047464D01*
X0032836Y0047439D01*
X0032871Y0047410D01*
X0032903Y0047379D01*
X0032933Y0047346D01*
X0032959Y0047310D01*
X0032983Y0047272D01*
X0033003Y0047231D01*
X0033020Y0047190D01*
X0033033Y0047147D01*
X0033042Y0047103D01*
X0033048Y0047059D01*
X0033050Y0047014D01*
X0033050Y0046486D01*
X0032786Y0049544D02*
X0032722Y0049573D01*
X0032656Y0049600D01*
X0032589Y0049624D01*
X0032521Y0049644D01*
X0032452Y0049662D01*
X0032383Y0049676D01*
X0032312Y0049688D01*
X0032242Y0049696D01*
X0032171Y0049700D01*
X0032100Y0049702D01*
X0032100Y0048646D02*
X0032029Y0048648D01*
X0031958Y0048652D01*
X0031888Y0048660D01*
X0031817Y0048672D01*
X0031748Y0048686D01*
X0031679Y0048704D01*
X0031611Y0048724D01*
X0031544Y0048748D01*
X0031478Y0048775D01*
X0031414Y0048804D01*
X0031150Y0049174D02*
X0031152Y0049211D01*
X0031157Y0049248D01*
X0031166Y0049284D01*
X0031178Y0049320D01*
X0031194Y0049354D01*
X0031212Y0049386D01*
X0031234Y0049416D01*
X0031259Y0049444D01*
X0031286Y0049470D01*
X0031315Y0049493D01*
X0031346Y0049513D01*
X0031380Y0049530D01*
X0031414Y0049544D01*
X0031572Y0049596D02*
X0032628Y0048751D01*
X0033050Y0049174D02*
X0033048Y0049211D01*
X0033043Y0049248D01*
X0033034Y0049284D01*
X0033022Y0049320D01*
X0033006Y0049354D01*
X0032988Y0049386D01*
X0032966Y0049416D01*
X0032942Y0049444D01*
X0032914Y0049470D01*
X0032885Y0049493D01*
X0032854Y0049513D01*
X0032820Y0049530D01*
X0032786Y0049544D01*
X0033050Y0049174D02*
X0033048Y0049137D01*
X0033043Y0049100D01*
X0033034Y0049064D01*
X0033022Y0049028D01*
X0033006Y0048994D01*
X0032988Y0048962D01*
X0032966Y0048932D01*
X0032942Y0048904D01*
X0032914Y0048878D01*
X0032885Y0048855D01*
X0032854Y0048835D01*
X0032820Y0048818D01*
X0032786Y0048804D01*
X0031414Y0048804D02*
X0031380Y0048818D01*
X0031346Y0048835D01*
X0031315Y0048855D01*
X0031286Y0048878D01*
X0031259Y0048904D01*
X0031234Y0048932D01*
X0031212Y0048962D01*
X0031194Y0048994D01*
X0031178Y0049028D01*
X0031166Y0049064D01*
X0031157Y0049100D01*
X0031152Y0049137D01*
X0031150Y0049174D01*
X0032100Y0048646D02*
X0032171Y0048648D01*
X0032242Y0048652D01*
X0032312Y0048660D01*
X0032383Y0048672D01*
X0032452Y0048686D01*
X0032521Y0048704D01*
X0032589Y0048724D01*
X0032656Y0048748D01*
X0032722Y0048775D01*
X0032786Y0048804D01*
X0032100Y0049702D02*
X0032029Y0049700D01*
X0031958Y0049696D01*
X0031888Y0049688D01*
X0031817Y0049676D01*
X0031748Y0049662D01*
X0031679Y0049644D01*
X0031611Y0049624D01*
X0031544Y0049600D01*
X0031478Y0049573D01*
X0031414Y0049544D01*
X0031783Y0050860D02*
X0031783Y0051387D01*
X0031785Y0051422D01*
X0031791Y0051458D01*
X0031801Y0051492D01*
X0031814Y0051525D01*
X0031832Y0051556D01*
X0031852Y0051585D01*
X0031876Y0051611D01*
X0031902Y0051635D01*
X0031931Y0051655D01*
X0031962Y0051673D01*
X0031995Y0051686D01*
X0032029Y0051696D01*
X0032064Y0051702D01*
X0032100Y0051704D01*
X0032733Y0051704D01*
X0032766Y0051702D01*
X0032799Y0051697D01*
X0032831Y0051688D01*
X0032862Y0051677D01*
X0032892Y0051662D01*
X0032919Y0051643D01*
X0032945Y0051623D01*
X0032969Y0051599D01*
X0032989Y0051573D01*
X0033008Y0051546D01*
X0033023Y0051516D01*
X0033034Y0051485D01*
X0033043Y0051453D01*
X0033048Y0051420D01*
X0033050Y0051387D01*
X0033050Y0050860D01*
X0033683Y0050860D02*
X0031783Y0050860D01*
X0031994Y0052830D02*
X0031994Y0053674D01*
X0031150Y0053674D02*
X0031150Y0052830D01*
X0033050Y0052830D01*
X0023683Y0050860D02*
X0021783Y0050860D01*
X0021783Y0051387D01*
X0021785Y0051422D01*
X0021791Y0051458D01*
X0021801Y0051492D01*
X0021814Y0051525D01*
X0021832Y0051556D01*
X0021852Y0051585D01*
X0021876Y0051611D01*
X0021902Y0051635D01*
X0021931Y0051655D01*
X0021962Y0051673D01*
X0021995Y0051686D01*
X0022029Y0051696D01*
X0022064Y0051702D01*
X0022100Y0051704D01*
X0022733Y0051704D01*
X0022766Y0051702D01*
X0022799Y0051697D01*
X0022831Y0051688D01*
X0022862Y0051677D01*
X0022892Y0051662D01*
X0022919Y0051643D01*
X0022945Y0051623D01*
X0022969Y0051599D01*
X0022989Y0051573D01*
X0023008Y0051546D01*
X0023023Y0051516D01*
X0023034Y0051485D01*
X0023043Y0051453D01*
X0023048Y0051420D01*
X0023050Y0051387D01*
X0023050Y0050860D01*
X0023050Y0052830D02*
X0021150Y0052830D01*
X0021150Y0053674D01*
X0021994Y0053674D02*
X0021994Y0052830D01*
D13*
X0067100Y0050300D02*
X0068233Y0053700D01*
X0069367Y0050300D01*
X0069083Y0051150D02*
X0067383Y0051150D01*
X0071009Y0050300D02*
X0071009Y0053700D01*
X0071953Y0053700D01*
X0072012Y0053698D01*
X0072071Y0053693D01*
X0072130Y0053683D01*
X0072188Y0053670D01*
X0072245Y0053654D01*
X0072301Y0053634D01*
X0072355Y0053610D01*
X0072408Y0053583D01*
X0072459Y0053553D01*
X0072508Y0053520D01*
X0072555Y0053483D01*
X0072599Y0053444D01*
X0072641Y0053402D01*
X0072680Y0053358D01*
X0072717Y0053311D01*
X0072750Y0053262D01*
X0072780Y0053211D01*
X0072807Y0053158D01*
X0072831Y0053104D01*
X0072851Y0053048D01*
X0072867Y0052991D01*
X0072880Y0052933D01*
X0072890Y0052874D01*
X0072895Y0052815D01*
X0072897Y0052756D01*
X0072898Y0052756D02*
X0072898Y0051244D01*
X0072897Y0051244D02*
X0072895Y0051185D01*
X0072890Y0051126D01*
X0072880Y0051067D01*
X0072867Y0051009D01*
X0072851Y0050952D01*
X0072831Y0050896D01*
X0072807Y0050842D01*
X0072780Y0050789D01*
X0072750Y0050738D01*
X0072717Y0050689D01*
X0072680Y0050642D01*
X0072641Y0050598D01*
X0072599Y0050556D01*
X0072555Y0050517D01*
X0072508Y0050480D01*
X0072459Y0050447D01*
X0072408Y0050417D01*
X0072355Y0050390D01*
X0072301Y0050366D01*
X0072245Y0050346D01*
X0072188Y0050330D01*
X0072130Y0050317D01*
X0072071Y0050307D01*
X0072012Y0050302D01*
X0071953Y0050300D01*
X0071009Y0050300D01*
X0074729Y0051244D02*
X0074731Y0051184D01*
X0074737Y0051123D01*
X0074746Y0051064D01*
X0074760Y0051005D01*
X0074777Y0050947D01*
X0074798Y0050890D01*
X0074822Y0050834D01*
X0074850Y0050781D01*
X0074882Y0050729D01*
X0074916Y0050679D01*
X0074954Y0050632D01*
X0074995Y0050587D01*
X0075038Y0050545D01*
X0075084Y0050506D01*
X0075133Y0050470D01*
X0075184Y0050437D01*
X0075236Y0050407D01*
X0075291Y0050381D01*
X0075347Y0050358D01*
X0075404Y0050339D01*
X0075463Y0050324D01*
X0075522Y0050312D01*
X0075582Y0050304D01*
X0075643Y0050300D01*
X0075703Y0050300D01*
X0075764Y0050304D01*
X0075824Y0050312D01*
X0075883Y0050324D01*
X0075942Y0050339D01*
X0075999Y0050358D01*
X0076055Y0050381D01*
X0076110Y0050407D01*
X0076162Y0050437D01*
X0076213Y0050470D01*
X0076262Y0050506D01*
X0076308Y0050545D01*
X0076351Y0050587D01*
X0076392Y0050632D01*
X0076430Y0050679D01*
X0076464Y0050729D01*
X0076496Y0050781D01*
X0076524Y0050834D01*
X0076548Y0050890D01*
X0076569Y0050947D01*
X0076586Y0051005D01*
X0076600Y0051064D01*
X0076609Y0051123D01*
X0076615Y0051184D01*
X0076617Y0051244D01*
X0076615Y0051304D01*
X0076609Y0051365D01*
X0076600Y0051424D01*
X0076586Y0051483D01*
X0076569Y0051541D01*
X0076548Y0051598D01*
X0076524Y0051654D01*
X0076496Y0051707D01*
X0076464Y0051759D01*
X0076430Y0051809D01*
X0076392Y0051856D01*
X0076351Y0051901D01*
X0076308Y0051943D01*
X0076262Y0051982D01*
X0076213Y0052018D01*
X0076162Y0052051D01*
X0076110Y0052081D01*
X0076055Y0052107D01*
X0075999Y0052130D01*
X0075942Y0052149D01*
X0075883Y0052164D01*
X0075824Y0052176D01*
X0075764Y0052184D01*
X0075703Y0052188D01*
X0075643Y0052188D01*
X0075582Y0052184D01*
X0075522Y0052176D01*
X0075463Y0052164D01*
X0075404Y0052149D01*
X0075347Y0052130D01*
X0075291Y0052107D01*
X0075236Y0052081D01*
X0075184Y0052051D01*
X0075133Y0052018D01*
X0075084Y0051982D01*
X0075038Y0051943D01*
X0074995Y0051901D01*
X0074954Y0051856D01*
X0074916Y0051809D01*
X0074882Y0051759D01*
X0074850Y0051707D01*
X0074822Y0051654D01*
X0074798Y0051598D01*
X0074777Y0051541D01*
X0074760Y0051483D01*
X0074746Y0051424D01*
X0074737Y0051365D01*
X0074731Y0051304D01*
X0074729Y0051244D01*
X0074917Y0052944D02*
X0074919Y0052890D01*
X0074925Y0052836D01*
X0074934Y0052783D01*
X0074948Y0052731D01*
X0074965Y0052680D01*
X0074985Y0052630D01*
X0075009Y0052582D01*
X0075037Y0052535D01*
X0075068Y0052491D01*
X0075102Y0052449D01*
X0075138Y0052409D01*
X0075178Y0052373D01*
X0075220Y0052339D01*
X0075264Y0052308D01*
X0075311Y0052280D01*
X0075359Y0052256D01*
X0075409Y0052236D01*
X0075460Y0052219D01*
X0075512Y0052205D01*
X0075565Y0052196D01*
X0075619Y0052190D01*
X0075673Y0052188D01*
X0075727Y0052190D01*
X0075781Y0052196D01*
X0075834Y0052205D01*
X0075886Y0052219D01*
X0075937Y0052236D01*
X0075987Y0052256D01*
X0076035Y0052280D01*
X0076082Y0052308D01*
X0076126Y0052339D01*
X0076168Y0052373D01*
X0076208Y0052409D01*
X0076244Y0052449D01*
X0076278Y0052491D01*
X0076309Y0052535D01*
X0076337Y0052582D01*
X0076361Y0052630D01*
X0076381Y0052680D01*
X0076398Y0052731D01*
X0076412Y0052783D01*
X0076421Y0052836D01*
X0076427Y0052890D01*
X0076429Y0052944D01*
X0076427Y0052998D01*
X0076421Y0053052D01*
X0076412Y0053105D01*
X0076398Y0053157D01*
X0076381Y0053208D01*
X0076361Y0053258D01*
X0076337Y0053306D01*
X0076309Y0053353D01*
X0076278Y0053397D01*
X0076244Y0053439D01*
X0076208Y0053479D01*
X0076168Y0053515D01*
X0076126Y0053549D01*
X0076082Y0053580D01*
X0076035Y0053608D01*
X0075987Y0053632D01*
X0075937Y0053652D01*
X0075886Y0053669D01*
X0075834Y0053683D01*
X0075781Y0053692D01*
X0075727Y0053698D01*
X0075673Y0053700D01*
X0075619Y0053698D01*
X0075565Y0053692D01*
X0075512Y0053683D01*
X0075460Y0053669D01*
X0075409Y0053652D01*
X0075359Y0053632D01*
X0075311Y0053608D01*
X0075264Y0053580D01*
X0075220Y0053549D01*
X0075178Y0053515D01*
X0075138Y0053479D01*
X0075102Y0053439D01*
X0075068Y0053397D01*
X0075037Y0053353D01*
X0075009Y0053306D01*
X0074985Y0053258D01*
X0074965Y0053208D01*
X0074948Y0053157D01*
X0074934Y0053105D01*
X0074925Y0053052D01*
X0074919Y0052998D01*
X0074917Y0052944D01*
X0078329Y0052189D02*
X0078329Y0051244D01*
X0078331Y0051184D01*
X0078337Y0051123D01*
X0078346Y0051064D01*
X0078360Y0051005D01*
X0078377Y0050947D01*
X0078398Y0050890D01*
X0078422Y0050834D01*
X0078450Y0050781D01*
X0078482Y0050729D01*
X0078516Y0050679D01*
X0078554Y0050632D01*
X0078595Y0050587D01*
X0078638Y0050545D01*
X0078684Y0050506D01*
X0078733Y0050470D01*
X0078784Y0050437D01*
X0078836Y0050407D01*
X0078891Y0050381D01*
X0078947Y0050358D01*
X0079004Y0050339D01*
X0079063Y0050324D01*
X0079122Y0050312D01*
X0079182Y0050304D01*
X0079243Y0050300D01*
X0079303Y0050300D01*
X0079364Y0050304D01*
X0079424Y0050312D01*
X0079483Y0050324D01*
X0079542Y0050339D01*
X0079599Y0050358D01*
X0079655Y0050381D01*
X0079710Y0050407D01*
X0079762Y0050437D01*
X0079813Y0050470D01*
X0079862Y0050506D01*
X0079908Y0050545D01*
X0079951Y0050587D01*
X0079992Y0050632D01*
X0080030Y0050679D01*
X0080064Y0050729D01*
X0080096Y0050781D01*
X0080124Y0050834D01*
X0080148Y0050890D01*
X0080169Y0050947D01*
X0080186Y0051005D01*
X0080200Y0051064D01*
X0080209Y0051123D01*
X0080215Y0051184D01*
X0080217Y0051244D01*
X0080218Y0051244D02*
X0080218Y0051433D01*
X0080216Y0051487D01*
X0080210Y0051541D01*
X0080201Y0051594D01*
X0080187Y0051646D01*
X0080170Y0051697D01*
X0080150Y0051747D01*
X0080126Y0051795D01*
X0080098Y0051842D01*
X0080067Y0051886D01*
X0080033Y0051928D01*
X0079997Y0051968D01*
X0079957Y0052004D01*
X0079915Y0052038D01*
X0079871Y0052069D01*
X0079824Y0052097D01*
X0079776Y0052121D01*
X0079726Y0052141D01*
X0079675Y0052158D01*
X0079623Y0052172D01*
X0079570Y0052181D01*
X0079516Y0052187D01*
X0079462Y0052189D01*
X0078329Y0052189D01*
X0078331Y0052266D01*
X0078337Y0052342D01*
X0078346Y0052418D01*
X0078360Y0052493D01*
X0078377Y0052568D01*
X0078398Y0052641D01*
X0078423Y0052714D01*
X0078451Y0052785D01*
X0078483Y0052854D01*
X0078519Y0052922D01*
X0078558Y0052988D01*
X0078600Y0053052D01*
X0078645Y0053114D01*
X0078694Y0053173D01*
X0078745Y0053230D01*
X0078799Y0053284D01*
X0078856Y0053335D01*
X0078915Y0053384D01*
X0078977Y0053429D01*
X0079041Y0053471D01*
X0079107Y0053510D01*
X0079175Y0053546D01*
X0079244Y0053578D01*
X0079315Y0053606D01*
X0079388Y0053631D01*
X0079461Y0053652D01*
X0079536Y0053669D01*
X0079611Y0053683D01*
X0079687Y0053692D01*
X0079763Y0053698D01*
X0079840Y0053700D01*
X0081929Y0053700D02*
X0083818Y0053700D01*
X0085529Y0053700D02*
X0087418Y0053700D01*
X0089282Y0053700D02*
X0090227Y0053700D01*
X0089282Y0053700D02*
X0089282Y0050300D01*
X0091171Y0050300D02*
X0090416Y0051811D01*
X0090227Y0051811D02*
X0089282Y0051811D01*
X0090227Y0051812D02*
X0090287Y0051814D01*
X0090348Y0051820D01*
X0090407Y0051829D01*
X0090466Y0051843D01*
X0090524Y0051860D01*
X0090581Y0051881D01*
X0090637Y0051905D01*
X0090690Y0051933D01*
X0090742Y0051965D01*
X0090792Y0051999D01*
X0090839Y0052037D01*
X0090884Y0052078D01*
X0090926Y0052121D01*
X0090965Y0052167D01*
X0091001Y0052216D01*
X0091034Y0052267D01*
X0091064Y0052319D01*
X0091090Y0052374D01*
X0091113Y0052430D01*
X0091132Y0052487D01*
X0091147Y0052546D01*
X0091159Y0052605D01*
X0091167Y0052665D01*
X0091171Y0052726D01*
X0091171Y0052786D01*
X0091167Y0052847D01*
X0091159Y0052907D01*
X0091147Y0052966D01*
X0091132Y0053025D01*
X0091113Y0053082D01*
X0091090Y0053138D01*
X0091064Y0053193D01*
X0091034Y0053245D01*
X0091001Y0053296D01*
X0090965Y0053345D01*
X0090926Y0053391D01*
X0090884Y0053434D01*
X0090839Y0053475D01*
X0090792Y0053513D01*
X0090742Y0053547D01*
X0090690Y0053579D01*
X0090637Y0053607D01*
X0090581Y0053631D01*
X0090524Y0053652D01*
X0090466Y0053669D01*
X0090407Y0053683D01*
X0090348Y0053692D01*
X0090287Y0053698D01*
X0090227Y0053700D01*
X0087418Y0051433D02*
X0087418Y0051056D01*
X0087416Y0051002D01*
X0087410Y0050948D01*
X0087401Y0050895D01*
X0087387Y0050843D01*
X0087370Y0050792D01*
X0087350Y0050742D01*
X0087326Y0050694D01*
X0087298Y0050647D01*
X0087267Y0050603D01*
X0087233Y0050561D01*
X0087197Y0050521D01*
X0087157Y0050485D01*
X0087115Y0050451D01*
X0087071Y0050420D01*
X0087024Y0050392D01*
X0086976Y0050368D01*
X0086926Y0050348D01*
X0086875Y0050331D01*
X0086823Y0050317D01*
X0086770Y0050308D01*
X0086716Y0050302D01*
X0086662Y0050300D01*
X0085529Y0050300D01*
X0087418Y0051433D02*
X0087416Y0051487D01*
X0087410Y0051541D01*
X0087401Y0051594D01*
X0087387Y0051646D01*
X0087370Y0051697D01*
X0087350Y0051747D01*
X0087326Y0051795D01*
X0087298Y0051842D01*
X0087267Y0051886D01*
X0087233Y0051928D01*
X0087197Y0051968D01*
X0087157Y0052004D01*
X0087115Y0052038D01*
X0087071Y0052069D01*
X0087024Y0052097D01*
X0086976Y0052121D01*
X0086926Y0052141D01*
X0086875Y0052158D01*
X0086823Y0052172D01*
X0086770Y0052181D01*
X0086716Y0052187D01*
X0086662Y0052189D01*
X0085529Y0052189D01*
X0085529Y0053700D01*
X0083062Y0052189D02*
X0081929Y0052189D01*
X0081929Y0053700D01*
X0083062Y0052189D02*
X0083116Y0052187D01*
X0083170Y0052181D01*
X0083223Y0052172D01*
X0083275Y0052158D01*
X0083326Y0052141D01*
X0083376Y0052121D01*
X0083424Y0052097D01*
X0083471Y0052069D01*
X0083515Y0052038D01*
X0083557Y0052004D01*
X0083597Y0051968D01*
X0083633Y0051928D01*
X0083667Y0051886D01*
X0083698Y0051842D01*
X0083726Y0051795D01*
X0083750Y0051747D01*
X0083770Y0051697D01*
X0083787Y0051646D01*
X0083801Y0051594D01*
X0083810Y0051541D01*
X0083816Y0051487D01*
X0083818Y0051433D01*
X0083818Y0051056D01*
X0083816Y0051002D01*
X0083810Y0050948D01*
X0083801Y0050895D01*
X0083787Y0050843D01*
X0083770Y0050792D01*
X0083750Y0050742D01*
X0083726Y0050694D01*
X0083698Y0050647D01*
X0083667Y0050603D01*
X0083633Y0050561D01*
X0083597Y0050521D01*
X0083557Y0050485D01*
X0083515Y0050451D01*
X0083471Y0050420D01*
X0083424Y0050392D01*
X0083376Y0050368D01*
X0083326Y0050348D01*
X0083275Y0050331D01*
X0083223Y0050317D01*
X0083170Y0050308D01*
X0083116Y0050302D01*
X0083062Y0050300D01*
X0081929Y0050300D01*
X0097100Y0040764D02*
X0100500Y0040764D01*
X0100500Y0039820D02*
X0100500Y0041709D01*
X0097856Y0039820D02*
X0097100Y0040764D01*
X0098800Y0036220D02*
X0098898Y0036222D01*
X0098995Y0036227D01*
X0099093Y0036235D01*
X0099190Y0036247D01*
X0099286Y0036263D01*
X0099382Y0036281D01*
X0099478Y0036303D01*
X0099572Y0036328D01*
X0099666Y0036357D01*
X0099758Y0036389D01*
X0099849Y0036424D01*
X0099939Y0036462D01*
X0100028Y0036503D01*
X0099744Y0036409D02*
X0097856Y0037920D01*
X0097572Y0037825D02*
X0097525Y0037807D01*
X0097479Y0037785D01*
X0097434Y0037760D01*
X0097392Y0037732D01*
X0097351Y0037701D01*
X0097313Y0037667D01*
X0097278Y0037630D01*
X0097245Y0037591D01*
X0097216Y0037549D01*
X0097189Y0037506D01*
X0097166Y0037460D01*
X0097146Y0037413D01*
X0097130Y0037365D01*
X0097117Y0037316D01*
X0097107Y0037266D01*
X0097102Y0037215D01*
X0097100Y0037164D01*
X0097102Y0037113D01*
X0097107Y0037062D01*
X0097117Y0037012D01*
X0097130Y0036963D01*
X0097146Y0036915D01*
X0097166Y0036868D01*
X0097189Y0036822D01*
X0097216Y0036779D01*
X0097245Y0036737D01*
X0097278Y0036698D01*
X0097313Y0036661D01*
X0097351Y0036627D01*
X0097392Y0036596D01*
X0097434Y0036568D01*
X0097479Y0036543D01*
X0097525Y0036521D01*
X0097572Y0036503D01*
X0097572Y0037826D02*
X0097661Y0037867D01*
X0097751Y0037905D01*
X0097842Y0037940D01*
X0097934Y0037972D01*
X0098028Y0038001D01*
X0098122Y0038026D01*
X0098218Y0038048D01*
X0098314Y0038066D01*
X0098410Y0038082D01*
X0098507Y0038094D01*
X0098605Y0038102D01*
X0098702Y0038107D01*
X0098800Y0038109D01*
X0100500Y0037164D02*
X0100498Y0037113D01*
X0100493Y0037062D01*
X0100483Y0037012D01*
X0100470Y0036963D01*
X0100454Y0036915D01*
X0100434Y0036868D01*
X0100411Y0036822D01*
X0100384Y0036779D01*
X0100355Y0036737D01*
X0100322Y0036698D01*
X0100287Y0036661D01*
X0100249Y0036627D01*
X0100208Y0036596D01*
X0100166Y0036568D01*
X0100121Y0036543D01*
X0100075Y0036521D01*
X0100028Y0036503D01*
X0100500Y0037164D02*
X0100498Y0037215D01*
X0100493Y0037266D01*
X0100483Y0037316D01*
X0100470Y0037365D01*
X0100454Y0037413D01*
X0100434Y0037460D01*
X0100411Y0037506D01*
X0100384Y0037549D01*
X0100355Y0037591D01*
X0100322Y0037630D01*
X0100287Y0037667D01*
X0100249Y0037701D01*
X0100208Y0037732D01*
X0100166Y0037760D01*
X0100121Y0037785D01*
X0100075Y0037807D01*
X0100028Y0037825D01*
X0098800Y0036220D02*
X0098702Y0036222D01*
X0098605Y0036227D01*
X0098507Y0036235D01*
X0098410Y0036247D01*
X0098314Y0036263D01*
X0098218Y0036281D01*
X0098122Y0036303D01*
X0098028Y0036328D01*
X0097934Y0036357D01*
X0097842Y0036389D01*
X0097751Y0036424D01*
X0097661Y0036462D01*
X0097572Y0036503D01*
X0098800Y0038109D02*
X0098898Y0038107D01*
X0098995Y0038102D01*
X0099093Y0038094D01*
X0099190Y0038082D01*
X0099286Y0038066D01*
X0099382Y0038048D01*
X0099478Y0038026D01*
X0099572Y0038001D01*
X0099666Y0037972D01*
X0099758Y0037940D01*
X0099849Y0037905D01*
X0099939Y0037867D01*
X0100028Y0037826D01*
X0097100Y0034698D02*
X0100500Y0033564D01*
X0097100Y0032431D01*
X0100878Y0031080D02*
X0100878Y0029569D01*
X0098611Y0028261D02*
X0098611Y0026750D01*
X0097100Y0026750D02*
X0100500Y0026750D01*
X0097100Y0026750D02*
X0097100Y0028261D01*
X0097100Y0024161D02*
X0097100Y0023217D01*
X0100500Y0023217D01*
X0098989Y0023217D02*
X0098989Y0024161D01*
X0098988Y0024161D02*
X0098986Y0024221D01*
X0098980Y0024282D01*
X0098971Y0024341D01*
X0098957Y0024400D01*
X0098940Y0024458D01*
X0098919Y0024515D01*
X0098895Y0024571D01*
X0098867Y0024624D01*
X0098835Y0024676D01*
X0098801Y0024726D01*
X0098763Y0024773D01*
X0098722Y0024818D01*
X0098679Y0024860D01*
X0098633Y0024899D01*
X0098584Y0024935D01*
X0098533Y0024968D01*
X0098481Y0024998D01*
X0098426Y0025024D01*
X0098370Y0025047D01*
X0098313Y0025066D01*
X0098254Y0025081D01*
X0098195Y0025093D01*
X0098135Y0025101D01*
X0098074Y0025105D01*
X0098014Y0025105D01*
X0097953Y0025101D01*
X0097893Y0025093D01*
X0097834Y0025081D01*
X0097775Y0025066D01*
X0097718Y0025047D01*
X0097662Y0025024D01*
X0097607Y0024998D01*
X0097555Y0024968D01*
X0097504Y0024935D01*
X0097455Y0024899D01*
X0097409Y0024860D01*
X0097366Y0024818D01*
X0097325Y0024773D01*
X0097287Y0024726D01*
X0097253Y0024676D01*
X0097221Y0024624D01*
X0097193Y0024571D01*
X0097169Y0024515D01*
X0097148Y0024458D01*
X0097131Y0024400D01*
X0097117Y0024341D01*
X0097108Y0024282D01*
X0097102Y0024221D01*
X0097100Y0024161D01*
X0097100Y0021189D02*
X0100500Y0021189D01*
X0098611Y0021189D02*
X0098611Y0019300D01*
X0097100Y0019300D02*
X0100500Y0019300D01*
M02*
